<svg width="19" height="24" viewBox="0 0 19 24" fill="none" xmlns="http://www.w3.org/2000/svg">
<circle cx="14.5" cy="19.5" r="2.5" fill="#FFA86B"/>
<path d="M14.1888 15C14.1576 15 14.1301 15.0037 14.1063 15.0111C13.9568 15.0579 13.9762 15.2739 13.9445 15.4273L13.8413 15.9275C13.8011 16.1224 13.6991 16.2967 13.5296 16.401C13.2885 16.5494 12.9831 16.577 12.7193 16.474L12.2721 16.2993C12.1528 16.2527 12.0264 16.2067 11.9077 16.2548C11.852 16.2774 11.815 16.3373 11.7862 16.3901L11.1321 17.5893C11.073 17.6975 10.9683 17.7918 11.0084 17.9084C11.0369 17.9915 11.1433 18.042 11.2123 18.0964L11.6389 18.4328C11.842 18.5929 11.9605 18.8373 11.9605 19.096C11.9605 19.3546 11.842 19.599 11.6389 19.7592L11.1086 20.1773C10.9701 20.3157 11.0906 20.5267 11.1844 20.6986L11.7862 21.8019C11.815 21.8547 11.852 21.9146 11.9077 21.9372C12.0264 21.9853 12.1528 21.9392 12.2721 21.8927L12.7193 21.718C12.9831 21.6149 13.2885 21.6425 13.5296 21.7909C13.6991 21.8953 13.8011 22.0695 13.8413 22.2645L13.9445 22.7646C13.9762 22.918 13.9568 23.1341 14.1063 23.1808C14.1301 23.1882 14.1576 23.1919 14.1888 23.1919H15.8271C15.8927 23.1919 16.0238 23.1264 16.0238 22.9953L16.104 22.3632C16.136 22.1115 16.3073 21.8799 16.5297 21.7578C16.7632 21.6296 17.0235 21.6141 17.27 21.7151L17.7652 21.9181C17.8378 21.9478 17.9393 21.968 18.017 21.9571C18.1239 21.9422 18.1499 21.8322 18.2048 21.7392L18.8227 20.6936C18.9224 20.5248 19.0459 20.3159 18.9073 20.1773L18.377 19.7592C18.1739 19.599 18.0554 19.3546 18.0554 19.096C18.0554 18.8373 18.1739 18.5929 18.377 18.4328L18.9073 18.0146C19.0459 17.876 18.9224 17.6671 18.8227 17.4984L18.2048 16.4527C18.1499 16.3598 18.1239 16.2498 18.017 16.2348C17.9393 16.2239 17.8378 16.2441 17.7652 16.2739L17.27 16.4768C17.0235 16.5778 16.7632 16.5624 16.5297 16.4342C16.3073 16.3121 16.136 16.0804 16.104 15.8287L16.0238 15.1966C16.0238 15.0655 15.8927 15 15.8271 15H14.1888ZM15.0407 17.8672C15.6961 17.8672 16.2367 18.4079 16.2367 19.1287C16.2367 19.7841 15.6961 20.3248 15.0407 20.3248C14.3198 20.3248 13.7792 19.7841 13.7792 19.1287C13.7792 18.4079 14.3198 17.8672 15.0407 17.8672Z" fill="#1E1E1E"/>
<path d="M1 20.2L1.0004 16.5996C1.00063 14.6115 2.61234 13 4.6004 13H11.7999M13 4.6C13 6.58822 11.3882 8.2 9.4 8.2C7.41177 8.2 5.8 6.58822 5.8 4.6C5.8 2.61177 7.41177 1 9.4 1C11.3882 1 13 2.61177 13 4.6Z" stroke="#1E1E1E" stroke-width="2" stroke-linecap="round" stroke-linejoin="round"/>
</svg>
