<svg width="44" height="44" viewBox="0 0 44 44" fill="none" xmlns="http://www.w3.org/2000/svg">
<g filter="url(#filter0_d_237_6004)">
<rect x="1" y="1" width="40" height="40" rx="10" fill="#FFF9CD"/>
<rect x="0.5" y="0.5" width="41" height="41" rx="10.5" stroke="#1E1E1E"/>
</g>
<path d="M28.6892 24.7191C28.7822 24.6307 28.8559 24.5256 28.9062 24.4099C28.9565 24.2942 28.9824 24.1702 28.9824 24.045C28.9824 23.9197 28.9565 23.7957 28.9062 23.68C28.8559 23.5644 28.7822 23.4593 28.6892 23.3709L22.0542 17.0409C21.9804 16.9703 21.8926 16.9143 21.796 16.8761C21.6994 16.8379 21.5959 16.8182 21.4913 16.8182C21.3868 16.8182 21.2832 16.8379 21.1866 16.8761C21.09 16.9143 21.0023 16.9703 20.9284 17.0409L14.2934 23.3709C13.9022 23.7441 13.9022 24.3459 14.2934 24.7191C14.6847 25.0923 15.3154 25.0923 15.7067 24.7191L21.4953 19.2042L27.284 24.7267C27.6672 25.0923 28.306 25.0923 28.6892 24.7191Z" fill="#1E1E1E" stroke="#1E1E1E"/>
<defs>
<filter id="filter0_d_237_6004" x="0" y="0" width="44" height="44" filterUnits="userSpaceOnUse" color-interpolation-filters="sRGB">
<feFlood flood-opacity="0" result="BackgroundImageFix"/>
<feColorMatrix in="SourceAlpha" type="matrix" values="0 0 0 0 0 0 0 0 0 0 0 0 0 0 0 0 0 0 127 0" result="hardAlpha"/>
<feOffset dx="2" dy="2"/>
<feComposite in2="hardAlpha" operator="out"/>
<feColorMatrix type="matrix" values="0 0 0 0 0.117647 0 0 0 0 0.117647 0 0 0 0 0.117647 0 0 0 1 0"/>
<feBlend mode="normal" in2="BackgroundImageFix" result="effect1_dropShadow_237_6004"/>
<feBlend mode="normal" in="SourceGraphic" in2="effect1_dropShadow_237_6004" result="shape"/>
</filter>
</defs>
</svg>
