<svg width="18" height="22" viewBox="0 0 18 22" fill="none" xmlns="http://www.w3.org/2000/svg">
<rect x="5" y="1" width="7" height="11" rx="3" fill="#FFA86B"/>
<path d="M1 9.77714C1.26583 11.6036 2.18038 13.2734 3.57635 14.4809C4.97231 15.6884 6.75636 16.3529 8.6021 16.3529M8.6021 16.3529C10.4478 16.3529 12.2319 15.6884 13.6279 14.4809C15.0238 13.2734 15.9384 11.6036 16.2042 9.77714M8.6021 16.3529V20.2M8.6032 1C7.73026 1 6.89307 1.34677 6.27581 1.96404C5.65855 2.5813 5.31177 3.41849 5.31177 4.29143V8.68C5.31177 9.55294 5.65855 10.3901 6.27581 11.0074C6.89307 11.6247 7.73026 11.9714 8.6032 11.9714C9.47614 11.9714 10.3133 11.6247 10.9306 11.0074C11.5479 10.3901 11.8946 9.55294 11.8946 8.68V4.29143C11.8946 3.41849 11.5479 2.5813 10.9306 1.96404C10.3133 1.34677 9.47614 1 8.6032 1Z" stroke="black" stroke-width="2" stroke-linecap="round" stroke-linejoin="round"/>
</svg>
