<svg width="91" height="106" viewBox="0 0 91 106" fill="none" xmlns="http://www.w3.org/2000/svg">
<path d="M51.1564 99.6703L51.1601 99.6679L50.4247 98.5357C50.6381 98.9207 50.8917 99.303 51.1564 99.6703Z" fill="#272525"/>
<path d="M49.3261 100.846C49.3261 100.846 49.3353 100.84 49.3409 100.837L49.2245 100.69L49.3261 100.846Z" fill="#272525"/>
<path d="M44.6187 46.3324C43.7148 46.0531 42.7082 46.1678 41.7929 46.5319C42.628 47.3219 43.9305 47.3685 44.6187 46.3324Z" fill="white"/>
<path d="M51.1565 99.6702C51.7777 100.526 52.4725 101.289 52.92 101.752C64.3175 94.1761 75.5582 86.3665 86.6325 78.3248C78.4695 65.4237 70.2004 52.5889 61.8226 39.8246C59.4905 39.2689 57.1584 38.7131 54.8262 38.1574C53.8323 37.9209 52.8384 37.6843 51.8444 37.4478C50.8262 37.2061 49.5652 36.6431 48.514 36.7133C47.5159 36.7806 46.3682 37.8428 45.5814 38.3644C44.6491 38.9804 43.721 39.6069 42.7983 40.2376C41.43 41.1736 40.0753 42.1347 38.7303 43.1027C39.2926 43.5855 39.8624 44.0557 40.4414 44.5199C40.72 44.3886 40.9935 44.3785 41.2368 44.4508C43.6438 43.6307 46.3972 43.9363 48.0119 46.1884C49.8423 48.7402 48.6979 52.0803 46.0144 53.4701C43.5392 54.7533 40.2216 54.5262 38.6978 51.9507C37.5912 50.0779 37.5659 47.6573 38.7607 45.9624C38.1377 45.4587 37.5234 44.9442 36.9208 44.4194C35.2542 45.646 33.6057 46.8922 31.9751 48.166C31.0126 48.9169 30.0591 49.6776 29.1111 50.4426C28.243 51.1453 27.0304 51.7811 26.9623 52.9981C26.9075 53.9656 27.2815 55.0813 27.4352 56.0311C27.6161 57.1439 27.7964 58.2597 27.9774 59.3725C28.3211 61.4895 28.6649 63.6064 29.0086 65.7234C29.121 65.7996 29.2275 65.9032 29.3172 66.0412L51.1626 99.6715L51.1589 99.6739L51.1565 99.6702Z" fill="#FFA86B"/>
<path d="M26.0983 32.2118C28.7381 36.1225 31.8268 39.7129 35.2695 42.9293C33.2699 44.4088 31.2967 45.9209 29.3493 47.4686C27.9268 48.5994 25.4245 49.9578 24.8852 51.8317C24.6489 52.6527 24.8265 53.4902 24.9585 54.3101C25.1858 55.7279 25.4179 57.1451 25.6501 58.5623C26.0778 61.1954 26.5043 63.8267 26.932 66.4598C26.9984 66.8642 27.235 67.1398 27.5291 67.2944L48.596 99.7262L50.424 98.5387L29.3141 66.0406C29.2244 65.9026 29.1191 65.8008 29.0055 65.7228C28.6618 63.6058 28.318 61.4888 27.9743 59.3719C27.7933 58.2591 27.613 57.1433 27.432 56.0305C27.2784 55.0806 26.9044 53.965 26.9592 52.9975C27.0273 51.7805 28.2417 51.1435 29.108 50.442C30.0567 49.6739 31.0113 48.9151 31.972 48.1654C33.6026 46.8916 35.2511 45.6453 36.9177 44.4188C37.5215 44.9454 38.1358 45.4599 38.7576 45.9618C37.5647 47.6555 37.5881 50.0773 38.6947 51.9501C40.2166 54.5268 43.5342 54.7539 46.0113 53.4695C48.6948 52.0797 49.841 48.7384 48.0088 46.1878C46.3935 43.9388 43.6407 43.6301 41.2337 44.4502C40.9904 44.3779 40.7169 44.388 40.4383 44.5193C39.8605 44.0569 39.2895 43.5849 38.7272 43.1021C40.074 42.1329 41.428 41.1749 42.7952 40.237C43.7179 39.6063 44.646 38.9798 45.5783 38.3638C46.3651 37.8422 47.5128 36.78 48.5109 36.7127C49.5621 36.6425 50.8249 37.2043 51.8413 37.4472C52.8353 37.6837 53.8292 37.9203 54.8231 38.1568C57.1553 38.7125 59.4874 39.2683 61.8195 39.824C70.1954 52.5895 78.4645 65.4243 86.6294 78.3242C75.5539 86.3641 64.3144 94.1755 52.9169 101.752C53.2002 102.047 53.3868 102.221 53.3868 102.221L51.4336 103.49L51.6848 103.869C52.0066 104.356 52.6976 104.517 53.191 104.189C65.1254 96.2742 76.8867 88.1056 88.4691 79.6815C89.0575 79.4589 89.4956 78.7712 89.0581 78.0816C80.6024 64.7057 72.0326 51.4039 63.3474 38.1744C63.0861 37.7762 62.7039 37.6553 62.3404 37.7082C59.7879 37.0993 57.2335 36.4916 54.681 35.8827C53.29 35.5507 51.8978 35.2169 50.5061 34.8879C49.687 34.6949 48.8496 34.4535 48.0018 34.5749C47.0277 34.7155 46.2123 35.3421 45.4108 35.8653C44.9819 36.144 44.5547 36.4293 44.1281 36.7116C42.9574 31.3911 41.3953 26.105 38.706 21.3363C36.9888 18.2897 34.484 14.752 31.3171 12.6573C30.1512 11.886 28.8959 11.3035 27.553 11.0214C23.2492 10.1182 19.3887 13.0893 19.6995 17.5574C19.7557 18.3612 19.8861 19.1665 20.0653 19.9662C21.045 24.3559 23.687 28.6448 26.0953 32.2111L26.0983 32.2118ZM44.6125 46.2867C43.9575 47.3457 42.6545 47.3387 41.7941 46.5783C42.6981 46.1847 43.7003 46.039 44.6125 46.2867ZM46.3404 47.625C47.3034 49.1276 46.3461 50.9746 44.7071 51.6753C43.2463 52.2997 41.4015 52.2807 40.5258 50.7633C40.0157 49.8773 39.8946 48.8566 40.1893 47.9845C40.2253 48.0319 40.2582 48.0785 40.3028 48.1229C42.1201 49.9292 44.8563 49.5314 46.3404 47.625ZM22.2663 15.0288C23.6092 12.3974 27.0885 12.7969 29.2632 13.9968C29.3074 14.0204 29.3515 14.0441 29.3939 14.069C31.9959 15.5802 34.0796 18.1271 35.7148 20.6041C39.1262 25.7753 40.8648 31.8369 42.1596 37.8359C42.1734 37.8976 42.1941 37.9496 42.213 38.0028C42.1817 38.0231 42.1486 38.0446 42.1173 38.0649C40.4144 39.2234 38.7282 40.4077 37.0607 41.6166C33.6247 38.4508 30.5524 34.9099 27.9264 31.0243C26.1763 28.4309 24.5624 25.7045 23.381 22.8018C22.9102 21.6417 22.2956 20.1798 21.9952 18.7179C21.7281 17.4202 21.7077 16.1194 22.2663 15.0288Z" fill="#272525"/>
<path d="M55.4806 83.6921C53.9203 81.37 51.4779 77.0196 49.4032 72.9077C47.6411 69.4154 46.0764 65.8942 45.5907 64.2312C47.2206 62.4195 50.4013 60.32 53.9499 58.5294C55.4144 57.7905 57.1605 56.9095 58.7666 56.3111C59.0777 56.5074 59.5598 57.1829 59.9862 58.0278C60.583 59.2106 61.0961 60.6478 61.2687 61.55C60.0569 61.9495 58.5355 62.5758 56.8457 63.4284C55.4375 64.1389 53.8325 65.0194 52.0594 66.2674C52.4015 67.2255 52.6857 67.7887 53.0268 68.4647C53.3963 69.1969 53.7373 69.8728 54.5021 70.6883C56.2741 69.1582 57.8497 67.9392 59.0615 67.5398C59.5716 68.1304 60.0826 69.0032 60.5658 69.9608C60.9068 70.6367 61.1626 71.1437 61.2768 71.5101C60.0945 72.248 58.6036 73.4949 56.5779 75.0824C57.1458 76.0678 58.7069 78.6015 60.2953 80.9094C59.2825 81.7031 57.9311 82.5263 56.9172 83.0379C56.3258 83.3363 55.8046 83.5639 55.4806 83.6921Z" fill="#272525"/>
<path d="M53.3881 102.223C53.3881 102.223 53.2032 102.047 52.9181 101.754C52.4706 101.29 51.7747 100.525 51.1547 99.6715C50.8881 99.3054 50.6363 98.9219 50.4229 98.5369L48.5948 99.7244L49.2227 100.691L49.339 100.838L51.4348 103.492L53.3881 102.223Z" fill="#272525"/>
</svg>
