<svg width="20" height="20" viewBox="0 0 20 20" fill="none" xmlns="http://www.w3.org/2000/svg">
<path d="M1 10C1 7.61305 1.94821 5.32387 3.63604 3.63604C5.32387 1.94821 7.61305 1 10 1C12.3869 1 14.6761 1.94821 16.364 3.63604C18.0518 5.32387 19 7.61305 19 10C19 12.3869 18.0518 14.6761 16.364 16.364C14.6761 18.0518 12.3869 19 10 19C7.61305 19 5.32387 18.0518 3.63604 16.364C1.94821 14.6761 1 12.3869 1 10ZM2.8 10C2.79985 11.3474 3.17778 12.6678 3.89082 13.811C4.60386 14.9543 5.62339 15.8745 6.83348 16.4671C8.04357 17.0597 9.39566 17.3008 10.736 17.1631C12.0763 17.0254 13.3511 16.5143 14.4154 15.688L4.312 5.5846C3.3652 6.8032 2.8 8.3368 2.8 10ZM5.5846 4.312L15.688 14.4154C16.7649 13.0301 17.2989 11.2993 17.1896 9.54815C17.0804 7.79696 16.3354 6.14593 15.0948 4.90525C13.8541 3.66456 12.203 2.91962 10.4519 2.81038C8.70066 2.70114 6.96985 3.23512 5.5846 4.312Z" fill="black" stroke="black" stroke-width="0.5"/>
</svg>
