<svg width="68" height="84" viewBox="0 0 68 84" fill="none" xmlns="http://www.w3.org/2000/svg">
<mask id="mask0_538_2630" style="mask-type:luminance" maskUnits="userSpaceOnUse" x="1" y="2" width="66" height="81">
<mask id="path-1-inside-1_538_2630" fill="white">
<path d="M33.7271 82.5096C16.1785 82.5773 1.06142 70.8244 1.00025 53.9575C0.904127 27.1027 28.8228 25.5451 27.3504 2C27.3504 2 47.7345 8.04467 47.1119 29.7089C47.1119 29.7089 50.5176 24.8526 50.4935 18.181C50.6836 18.3077 50.8737 18.4366 51.0637 18.5677C60.8527 25.4119 67.9132 40.4722 66.5653 55.0497C64.9553 72.4541 49.5673 82.4506 33.7293 82.5118"/>
</mask>
<path d="M33.7271 82.5096C16.1785 82.5773 1.06142 70.8244 1.00025 53.9575C0.904127 27.1027 28.8228 25.5451 27.3504 2C27.3504 2 47.7345 8.04467 47.1119 29.7089C47.1119 29.7089 50.5176 24.8526 50.4935 18.181C50.6836 18.3077 50.8737 18.4366 51.0637 18.5677C60.8527 25.4119 67.9132 40.4722 66.5653 55.0497C64.9553 72.4541 49.5673 82.4506 33.7293 82.5118" fill="white"/>
<path d="M1.00025 53.9575L-0.305695 53.9621L-0.305695 53.9622L1.00025 53.9575ZM27.3504 2L27.7216 0.747939L25.9303 0.216749L26.047 2.08151L27.3504 2ZM47.1119 29.7089L45.8064 29.6714L45.6814 34.0231L48.1811 30.4588L47.1119 29.7089ZM50.4935 18.181L51.218 17.0944L49.1788 15.7349L49.1876 18.1857L50.4935 18.181ZM51.0637 18.5677L51.812 17.4974L51.8051 17.4926L51.0637 18.5677ZM66.5653 55.0497L67.8657 55.17L67.8657 55.17L66.5653 55.0497ZM33.722 81.2037C16.686 81.2694 2.36404 69.9058 2.30619 53.9527L-0.305695 53.9622C-0.241213 71.743 15.6711 83.8852 33.7321 83.8155L33.722 81.2037ZM2.30619 53.9528C2.2602 41.105 8.84304 34.3389 15.6084 27.6675C22.348 21.0215 29.4314 14.3545 28.6538 1.91849L26.047 2.08151C26.7417 13.1906 20.602 19.075 13.7744 25.8078C6.97259 32.5151 -0.35583 39.9552 -0.305695 53.9621L2.30619 53.9528ZM27.3504 2C26.9791 3.25206 26.9785 3.2519 26.9781 3.25177C26.9781 3.25176 26.9777 3.25165 26.9776 3.25162C26.9774 3.25156 26.9775 3.2516 26.9779 3.25172C26.9788 3.25198 26.9808 3.2526 26.9841 3.25359C26.9906 3.25557 27.0019 3.25904 27.0178 3.26403C27.0496 3.27401 27.0998 3.29007 27.1673 3.31249C27.3023 3.35734 27.5059 3.4276 27.7683 3.52554C28.2934 3.72152 29.0519 4.02772 29.9643 4.46212C31.7921 5.33236 34.2202 6.70873 36.6241 8.72995C41.4083 12.7524 46.1039 19.3223 45.8064 29.6714L48.4173 29.7464C48.7424 18.4313 43.5573 11.1468 38.305 6.73078C35.6908 4.5328 33.0617 3.04399 31.087 2.10385C30.0982 1.63305 29.269 1.29776 28.6817 1.07855C28.3879 0.968892 28.1543 0.888129 27.991 0.833857C27.9093 0.806717 27.8452 0.786188 27.7999 0.771972C27.7772 0.764863 27.7593 0.759331 27.7462 0.755338C27.7396 0.753342 27.7343 0.75173 27.7302 0.750499C27.7282 0.749883 27.7264 0.749362 27.725 0.748936C27.7243 0.748723 27.7234 0.748473 27.7231 0.748367C27.7223 0.748141 27.7216 0.747939 27.3504 2ZM47.1119 29.7089C48.1811 30.4588 48.1813 30.4584 48.1816 30.458C48.1817 30.4579 48.182 30.4575 48.1822 30.4572C48.1826 30.4566 48.1831 30.4559 48.1836 30.4551C48.1847 30.4536 48.1859 30.4518 48.1874 30.4497C48.1903 30.4455 48.194 30.4401 48.1985 30.4335C48.2076 30.4204 48.2197 30.4025 48.2348 30.38C48.265 30.3349 48.307 30.2713 48.359 30.1899C48.4629 30.027 48.6072 29.7926 48.7782 29.4926C49.1199 28.893 49.5701 28.0284 50.0182 26.9466C50.9123 24.7885 51.8123 21.732 51.7995 18.1763L49.1876 18.1857C49.1988 21.3016 48.408 24.0091 47.6052 25.947C47.2049 26.9133 46.8051 27.6797 46.509 28.1992C46.3611 28.4587 46.2395 28.6558 46.1573 28.7845C46.1163 28.8489 46.085 28.8961 46.0654 28.9255C46.0555 28.9402 46.0486 28.9504 46.0447 28.956C46.0428 28.9588 46.0416 28.9605 46.0413 28.961C46.0411 28.9612 46.0411 28.9612 46.0413 28.9609C46.0415 28.9607 46.0416 28.9605 46.0418 28.9602C46.0419 28.96 46.0421 28.9598 46.0422 28.9597C46.0424 28.9594 46.0426 28.9591 47.1119 29.7089ZM49.7691 19.2676C49.9534 19.3905 50.1378 19.5155 50.3223 19.6427L51.8051 17.4926C51.6095 17.3577 51.4138 17.2249 51.218 17.0944L49.7691 19.2676ZM50.3154 19.638C59.6849 26.1889 66.5737 40.7751 65.2649 54.9295L67.8657 55.17C69.2527 40.1694 62.0205 24.6349 51.812 17.4974L50.3154 19.638ZM65.2649 54.9295C63.7336 71.4833 49.0878 81.1465 33.7242 81.2058L33.7343 83.8177C50.0467 83.7547 66.177 73.4249 67.8657 55.17L65.2649 54.9295Z" fill="white" mask="url(#path-1-inside-1_538_2630)"/>
</mask>
<g mask="url(#mask0_538_2630)">
<path d="M1.46236 2.75547L67.1147 2.50339L67.419 81.7305L1.76657 81.9826L1.46236 2.75547Z" fill="white" stroke="black" stroke-width="1.30595"/>
</g>
<mask id="path-4-inside-2_538_2630" fill="white">
<path fill-rule="evenodd" clip-rule="evenodd" d="M33.7273 82.5096C16.1788 82.5773 1.06166 70.8244 1.00049 53.9575C0.904371 27.1027 28.823 25.5451 27.3506 2C27.3506 2 47.7347 8.04467 47.1121 29.7089C47.1121 29.7089 50.5178 24.8526 50.4938 18.181C50.6838 18.3077 50.8739 18.4366 51.064 18.5677C60.8529 25.4119 67.9134 40.4722 66.5656 55.0497C64.9555 72.4541 49.5675 82.4506 33.7295 82.5118"/>
</mask>
<path fill-rule="evenodd" clip-rule="evenodd" d="M33.7273 82.5096C16.1788 82.5773 1.06166 70.8244 1.00049 53.9575C0.904371 27.1027 28.823 25.5451 27.3506 2C27.3506 2 47.7347 8.04467 47.1121 29.7089C47.1121 29.7089 50.5178 24.8526 50.4938 18.181C50.6838 18.3077 50.8739 18.4366 51.064 18.5677C60.8529 25.4119 67.9134 40.4722 66.5656 55.0497C64.9555 72.4541 49.5675 82.4506 33.7295 82.5118" fill="#FFFAF0"/>
<path d="M1.00049 53.9575L-0.305451 53.9621L-0.305451 53.9622L1.00049 53.9575ZM27.3506 2L27.7219 0.747939L25.9306 0.216749L26.0472 2.08151L27.3506 2ZM47.1121 29.7089L45.8067 29.6714L45.6816 34.0231L48.1813 30.4588L47.1121 29.7089ZM50.4938 18.181L51.2182 17.0944L49.179 15.7349L49.1878 18.1857L50.4938 18.181ZM51.064 18.5677L51.8123 17.4974L51.8054 17.4926L51.064 18.5677ZM66.5656 55.0497L67.866 55.17L67.866 55.17L66.5656 55.0497ZM33.7223 81.2037C16.6862 81.2694 2.36429 69.9058 2.30643 53.9527L-0.305451 53.9622C-0.240969 71.743 15.6713 83.8852 33.7324 83.8155L33.7223 81.2037ZM2.30643 53.9528C2.26045 41.105 8.84328 34.3389 15.6086 27.6675C22.3482 21.0215 29.4317 14.3545 28.654 1.91849L26.0472 2.08151C26.7419 13.1906 20.6022 19.075 13.7747 25.8078C6.97283 32.5151 -0.355586 39.9552 -0.305451 53.9621L2.30643 53.9528ZM27.3506 2C26.9793 3.25206 26.9788 3.2519 26.9783 3.25177C26.9783 3.25176 26.9779 3.25165 26.9778 3.25162C26.9776 3.25156 26.9778 3.2516 26.9782 3.25172C26.979 3.25198 26.9811 3.2526 26.9843 3.25359C26.9908 3.25557 27.0021 3.25904 27.018 3.26403C27.0498 3.27401 27.1001 3.29007 27.1675 3.31249C27.3025 3.35734 27.5062 3.4276 27.7686 3.52554C28.2936 3.72152 29.0521 4.02772 29.9645 4.46212C31.7924 5.33236 34.2204 6.70873 36.6244 8.72995C41.4085 12.7524 46.1041 19.3223 45.8067 29.6714L48.4175 29.7464C48.7427 18.4313 43.5575 11.1468 38.3053 6.73078C35.691 4.5328 33.062 3.04399 31.0873 2.10385C30.0984 1.63305 29.2692 1.29776 28.682 1.07855C28.3882 0.968892 28.1545 0.888129 27.9912 0.833857C27.9095 0.806717 27.8454 0.786188 27.8001 0.771972C27.7775 0.764863 27.7595 0.759331 27.7464 0.755338C27.7399 0.753342 27.7345 0.75173 27.7304 0.750499C27.7284 0.749883 27.7267 0.749362 27.7252 0.748936C27.7245 0.748723 27.7237 0.748473 27.7233 0.748367C27.7226 0.748141 27.7219 0.747939 27.3506 2ZM47.1121 29.7089C48.1813 30.4588 48.1816 30.4584 48.1818 30.458C48.1819 30.4579 48.1822 30.4575 48.1824 30.4572C48.1828 30.4566 48.1833 30.4559 48.1838 30.4551C48.1849 30.4536 48.1862 30.4518 48.1876 30.4497C48.1905 30.4455 48.1943 30.4401 48.1988 30.4335C48.2078 30.4204 48.22 30.4025 48.2351 30.38C48.2653 30.3349 48.3072 30.2713 48.3592 30.1899C48.4631 30.027 48.6075 29.7926 48.7785 29.4926C49.1202 28.893 49.5704 28.0284 50.0185 26.9466C50.9125 24.7885 51.8125 21.732 51.7997 18.1763L49.1878 18.1857C49.1991 21.3016 48.4083 24.0091 47.6054 25.947C47.2051 26.9133 46.8054 27.6797 46.5093 28.1992C46.3614 28.4587 46.2398 28.6558 46.1576 28.7845C46.1165 28.8489 46.0853 28.8961 46.0656 28.9255C46.0558 28.9402 46.0488 28.9504 46.045 28.956C46.043 28.9588 46.0419 28.9605 46.0415 28.961C46.0413 28.9612 46.0414 28.9612 46.0416 28.9609C46.0417 28.9607 46.0419 28.9605 46.0421 28.9602C46.0422 28.96 46.0424 28.9598 46.0424 28.9597C46.0427 28.9594 46.0429 28.9591 47.1121 29.7089ZM49.7694 19.2676C49.9537 19.3905 50.138 19.5155 50.3225 19.6427L51.8054 17.4926C51.6098 17.3577 51.414 17.2249 51.2182 17.0944L49.7694 19.2676ZM50.3156 19.638C59.6851 26.1889 66.5739 40.7751 65.2652 54.9295L67.866 55.17C69.253 40.1694 62.0208 24.6349 51.8123 17.4974L50.3156 19.638ZM65.2652 54.9295C63.7338 71.4833 49.0881 81.1465 33.7245 81.2058L33.7346 83.8177C50.047 83.7547 66.1773 73.4249 67.866 55.17L65.2652 54.9295Z" fill="black" mask="url(#path-4-inside-2_538_2630)"/>
<mask id="mask1_538_2630" style="mask-type:luminance" maskUnits="userSpaceOnUse" x="1" y="2" width="66" height="81">
<mask id="path-6-inside-3_538_2630" fill="white">
<path d="M33.7271 82.5098C16.1785 82.5775 1.06142 70.8246 1.00025 53.9577C0.904127 27.1029 28.8228 25.5453 27.3504 2.00018C27.3504 2.00018 47.7345 8.04485 47.1119 29.7091C47.1119 29.7091 50.5176 24.8528 50.4935 18.1812C50.6836 18.3079 50.8737 18.4368 51.0637 18.5679C60.8527 25.4121 67.9132 40.4724 66.5653 55.0499C64.9553 72.4543 49.5673 82.4508 33.7293 82.512"/>
</mask>
<path d="M33.7271 82.5098C16.1785 82.5775 1.06142 70.8246 1.00025 53.9577C0.904127 27.1029 28.8228 25.5453 27.3504 2.00018C27.3504 2.00018 47.7345 8.04485 47.1119 29.7091C47.1119 29.7091 50.5176 24.8528 50.4935 18.1812C50.6836 18.3079 50.8737 18.4368 51.0637 18.5679C60.8527 25.4121 67.9132 40.4724 66.5653 55.0499C64.9553 72.4543 49.5673 82.4508 33.7293 82.512" fill="white"/>
<path d="M1.00025 53.9577L-0.305695 53.9623L-0.305695 53.9624L1.00025 53.9577ZM27.3504 2.00018L27.7216 0.748122L25.9303 0.216932L26.047 2.08169L27.3504 2.00018ZM47.1119 29.7091L45.8064 29.6716L45.6814 34.0233L48.1811 30.4589L47.1119 29.7091ZM50.4935 18.1812L51.218 17.0946L49.1788 15.7351L49.1876 18.1859L50.4935 18.1812ZM51.0637 18.5679L51.812 17.4975L51.8051 17.4928L51.0637 18.5679ZM66.5653 55.0499L67.8657 55.1702L67.8657 55.1702L66.5653 55.0499ZM33.722 81.2038C16.686 81.2696 2.36404 69.906 2.30619 53.9529L-0.305695 53.9624C-0.241213 71.7432 15.6711 83.8854 33.7321 83.8157L33.722 81.2038ZM2.30619 53.953C2.2602 41.1051 8.84304 34.3391 15.6084 27.6677C22.348 21.0217 29.4314 14.3547 28.6538 1.91867L26.047 2.08169C26.7417 13.1908 20.602 19.0752 13.7744 25.8079C6.97259 32.5153 -0.35583 39.9554 -0.305695 53.9623L2.30619 53.953ZM27.3504 2.00018C26.9791 3.25224 26.9785 3.25209 26.9781 3.25195C26.9781 3.25194 26.9777 3.25183 26.9776 3.2518C26.9774 3.25175 26.9775 3.25178 26.9779 3.25191C26.9788 3.25216 26.9808 3.25278 26.9841 3.25377C26.9906 3.25576 27.0019 3.25922 27.0178 3.26421C27.0496 3.27419 27.0998 3.29025 27.1673 3.31267C27.3023 3.35752 27.5059 3.42778 27.7683 3.52572C28.2934 3.7217 29.0519 4.02791 29.9643 4.4623C31.7921 5.33255 34.2202 6.70892 36.6241 8.73014C41.4083 12.7526 46.1039 19.3225 45.8064 29.6716L48.4173 29.7466C48.7424 18.4314 43.5573 11.1469 38.305 6.73096C35.6908 4.53298 33.0617 3.04417 31.087 2.10403C30.0982 1.63324 29.269 1.29795 28.6817 1.07873C28.3879 0.969075 28.1543 0.888312 27.991 0.83404C27.9093 0.8069 27.8452 0.786371 27.7999 0.772155C27.7772 0.765046 27.7593 0.759514 27.7462 0.755521C27.7396 0.753525 27.7343 0.751913 27.7302 0.750682C27.7282 0.750066 27.7264 0.749545 27.725 0.749119C27.7243 0.748906 27.7234 0.748656 27.7231 0.74855C27.7223 0.748324 27.7216 0.748122 27.3504 2.00018ZM47.1119 29.7091C48.1811 30.4589 48.1813 30.4586 48.1816 30.4582C48.1817 30.4581 48.182 30.4577 48.1822 30.4574C48.1826 30.4568 48.1831 30.4561 48.1836 30.4553C48.1847 30.4538 48.1859 30.452 48.1874 30.4499C48.1903 30.4457 48.194 30.4403 48.1985 30.4337C48.2076 30.4206 48.2197 30.4027 48.2348 30.3802C48.265 30.3351 48.307 30.2715 48.359 30.1901C48.4629 30.0272 48.6072 29.7928 48.7782 29.4927C49.1199 28.8932 49.5701 28.0285 50.0182 26.9468C50.9123 24.7887 51.8123 21.7322 51.7995 18.1765L49.1876 18.1859C49.1988 21.3018 48.408 24.0093 47.6052 25.9472C47.2049 26.9135 46.8051 27.6799 46.509 28.1994C46.3611 28.4589 46.2395 28.6559 46.1573 28.7847C46.1163 28.8491 46.085 28.8963 46.0654 28.9257C46.0555 28.9404 46.0486 28.9506 46.0447 28.9562C46.0428 28.959 46.0416 28.9607 46.0413 28.9612C46.0411 28.9614 46.0411 28.9614 46.0413 28.9611C46.0415 28.9609 46.0416 28.9607 46.0418 28.9604C46.0419 28.9602 46.0421 28.9599 46.0422 28.9599C46.0424 28.9596 46.0426 28.9592 47.1119 29.7091ZM49.7691 19.2678C49.9534 19.3907 50.1378 19.5157 50.3223 19.6429L51.8051 17.4928C51.6095 17.3579 51.4138 17.2251 51.218 17.0946L49.7691 19.2678ZM50.3154 19.6381C59.6849 26.189 66.5737 40.7752 65.2649 54.9297L67.8657 55.1702C69.2527 40.1695 62.0205 24.6351 51.812 17.4976L50.3154 19.6381ZM65.2649 54.9296C63.7336 71.4835 49.0878 81.1467 33.7242 81.206L33.7343 83.8179C50.0467 83.7549 66.177 73.4251 67.8657 55.1702L65.2649 54.9296Z" fill="white" mask="url(#path-6-inside-3_538_2630)"/>
</mask>
<g mask="url(#mask1_538_2630)">
<path d="M67.7652 1.84794L0.806885 2.10504L1.11611 82.6381L68.0744 82.381L67.7652 1.84794Z" fill="#FFFAF0" stroke="black" stroke-width="1.30595" stroke-miterlimit="10"/>
</g>
<path d="M33.7273 82.5096C16.1788 82.5773 1.06166 70.8244 1.00049 53.9575C0.904371 27.1027 28.823 25.5451 27.3506 2C27.3506 2 47.7347 8.04467 47.1121 29.7089C47.1121 29.7089 50.5178 24.8526 50.4938 18.181C50.6838 18.3077 50.8739 18.4366 51.064 18.5677C60.8529 25.4119 67.9134 40.4722 66.5656 55.0497C64.9555 72.4541 49.5675 82.4506 33.7295 82.5118" stroke="black" stroke-width="1.85156" stroke-miterlimit="10"/>
<path fill-rule="evenodd" clip-rule="evenodd" d="M62.5424 56.4371C62.5511 59.0848 62.0618 61.49 61.1639 63.6505C61.0241 57.975 58.0378 52.979 53.2995 49.8048C49.4853 47.2511 39.0322 44.8437 38.8203 52.1794C38.6477 58.1826 46.0992 57.7282 50.8222 59.6746C57.5048 62.4271 58.7063 69.717 51.8752 73.5531C41.2757 79.5082 25.1384 79.4427 14.7312 73.3172C8.32171 69.5444 10.2878 62.3551 16.3434 59.8057C21.0511 57.8243 28.507 58.2219 28.2907 52.2187C28.0264 44.8873 17.5908 47.3734 13.794 49.9555C9.07758 53.1646 6.12624 58.1847 6.02793 63.8602C5.11479 61.7062 4.60797 59.3076 4.59705 56.6577C4.56865 48.6929 9.29166 41.6236 16.5728 37.2676C19.3384 35.6139 25.169 33.3944 27.8254 35.8542C29.6583 37.5516 33.4244 46.4974 35.9542 47.8343C35.9542 47.8343 34.3223 41.5079 38.154 37.7701C46.3876 29.7353 62.4987 43.8082 62.5446 56.4349L62.5424 56.4371Z" fill="white" stroke="#43423D" stroke-width="0.759281" stroke-miterlimit="10"/>
<path d="M41.1926 68.3775C39.0954 72.1983 34.2129 72.9083 30.9907 70.9596C29.0486 69.7865 27.7095 67.6457 27.9454 64.6375C32.0459 66.798 38.5427 67.5867 42.2106 64.1198C42.1975 65.8237 41.8217 67.2393 41.1926 68.3753V68.3775Z" fill="#43423D"/>
<path d="M40.7283 68.7424C38.2226 72.1852 33.3707 72.2399 30.4609 69.9242C32.5406 67.3377 35.3761 69.0045 35.3761 69.0045C37.7595 67.1215 40.6365 68.6878 40.7305 68.7424H40.7283Z" fill="#F37E80"/>
<path d="M29.8611 56.2464C32.1287 54.8679 34.6737 54.6473 37.4983 55.5866C38.311 55.8575 38.7152 56.8056 38.3416 57.5964C37.7496 58.8438 36.6092 60.5565 34.5907 61.3713C34.298 61.4893 33.9768 61.5002 33.6754 61.4041C32.7863 61.1245 30.8202 60.314 29.4373 58.337C28.9546 57.6488 29.1512 56.6745 29.8611 56.2442V56.2464Z" fill="#43423D"/>
<path d="M35.8292 56.3703C35.8707 56.7701 34.7784 56.8619 33.6337 56.9864C32.489 57.1109 31.7222 57.2223 31.6807 56.8204C31.6392 56.4206 32.5349 55.9946 33.6818 55.8701C34.8265 55.7456 35.7899 55.9706 35.8314 56.3703H35.8292Z" fill="white"/>
<path d="M32.5354 72.1137C31.8451 71.9084 31.1854 71.6135 30.578 71.2334C28.2799 69.7894 27.1396 67.4082 27.3667 64.5312C27.3777 64.3804 27.4869 64.2581 27.6573 64.2057C27.8255 64.1532 28.0658 64.127 28.2056 64.2668C31.9718 66.2657 36.8237 66.7987 42.3899 63.712C42.7504 63.6792 42.7897 64.0003 42.7897 64.1969C42.7613 68.1706 40.7078 71.1395 37.2956 72.1334C35.738 72.5878 34.0624 72.5681 32.5354 72.1137ZM29.2127 65.7633C29.4246 67.9893 30.5387 69.6998 32.3912 70.6217C34.0624 71.454 36.1487 71.5108 37.9728 70.7746C40.5484 69.7348 42.0688 67.3973 42.189 64.3913C38.8204 67.0827 33.3765 67.1701 29.2127 65.7633Z" fill="#43423D"/>
<path d="M30.3249 70.2582C30.2944 70.2451 30.2638 70.2276 30.2354 70.2101C30.0104 70.0659 29.9317 69.8213 30.0584 69.664C31.8869 67.3899 34.3358 68.1501 35.2336 68.5411C37.8136 66.7279 40.8982 68.4253 40.9288 68.4428C41.1625 68.5739 41.2652 68.8186 41.1581 68.9868C41.0511 69.155 40.778 69.1856 40.5421 69.0545C40.4307 68.9933 37.8922 67.617 35.7383 69.3188C35.6006 69.428 35.3691 69.4237 35.1747 69.3101C35.0763 69.2533 32.6974 67.9185 30.8711 70.1904C30.7618 70.3281 30.5325 70.3521 30.3271 70.2604L30.3249 70.2582Z" fill="#43423D"/>
<path d="M16.8744 45.2961C17.923 43.3081 20.4789 42.2858 22.5411 43.1814C23.3822 43.5528 25.097 44.6997 24.0638 45.6565C23.8322 45.84 23.5416 45.8706 23.2839 45.781C22.3401 45.5014 21.5603 45.2983 20.6449 45.4184C19.8345 45.5211 18.9716 45.9099 18.2179 46.2966C18.1633 46.3184 18.0977 46.3621 18.0628 46.3621L17.5254 46.3884C16.9814 46.432 16.5948 45.7723 16.8766 45.2961H16.8744Z" fill="#43423D"/>
<path d="M40.8344 44.3353C41.8808 42.3473 44.4389 41.325 46.5011 42.2206C47.3422 42.592 49.0571 43.7389 48.0238 44.6957C47.7922 44.8792 47.5017 44.9098 47.2439 44.8202C46.3002 44.5406 45.5203 44.3375 44.6049 44.4576C43.7945 44.5603 42.9316 44.9491 42.1779 45.3358C42.1233 45.3576 42.0578 45.4013 42.0228 45.4013L41.4854 45.4276C40.9415 45.4713 40.5548 44.8115 40.8366 44.3353H40.8344Z" fill="#43423D"/>
<path d="M22.8391 56.8916C24.5133 56.8916 25.8705 55.0463 25.8705 52.77C25.8705 50.4937 24.5133 48.6483 22.8391 48.6483C21.1648 48.6483 19.8076 50.4937 19.8076 52.77C19.8076 55.0463 21.1648 56.8916 22.8391 56.8916Z" fill="#43423D"/>
<path d="M24.4174 52.496C24.4434 51.6125 24.0766 50.885 23.5982 50.8709C23.1199 50.8569 22.7111 51.5617 22.6852 52.4452C22.6593 53.3287 23.026 54.0563 23.5044 54.0704C23.9827 54.0844 24.3915 53.3795 24.4174 52.496Z" fill="white"/>
<path d="M44.9152 56.8077C46.6114 56.7004 47.8684 54.749 47.7229 52.4492C47.5774 50.1494 46.0845 48.372 44.3883 48.4793C42.6921 48.5866 41.4351 50.538 41.5806 52.8378C41.7261 55.1376 43.219 56.915 44.9152 56.8077Z" fill="#43423D"/>
<path d="M43.7729 54.068C44.2564 54.0216 44.5788 53.26 44.4929 52.367C44.4071 51.474 43.9456 50.7877 43.4621 50.8342C42.9786 50.8806 42.6562 51.6422 42.742 52.5353C42.8278 53.4283 43.2894 54.1145 43.7729 54.068Z" fill="white"/>
</svg>
