<svg width="42" height="42" viewBox="0 0 42 42" fill="none" xmlns="http://www.w3.org/2000/svg">
<rect x="0.5" y="0.5" width="41" height="41" rx="10.5" fill="#1E1E1E" stroke="#1E1E1E"/>
<path d="M22.0294 14.5719L23.229 15.7715C23.3034 15.8465 23.3918 15.906 23.4893 15.9466C23.5868 15.9872 23.6913 16.0081 23.7969 16.0081C23.9024 16.0081 24.007 15.9872 24.1044 15.9466C24.2019 15.906 24.2904 15.8465 24.3647 15.7715C24.4861 15.6441 24.562 15.4803 24.5808 15.3053C24.5996 15.1304 24.5602 14.9541 24.4687 14.8038H27.3958C27.6079 14.8038 27.8114 14.7196 27.9613 14.5696C28.1113 14.4196 28.1956 14.2162 28.1956 14.0041C28.1956 13.7919 28.1113 13.5885 27.9613 13.4385C27.8114 13.2886 27.6079 13.2043 27.3958 13.2043H24.4687C24.5602 13.054 24.5996 12.8777 24.5808 12.7028C24.562 12.5278 24.4861 12.364 24.3647 12.2366C24.2904 12.1616 24.2019 12.1021 24.1044 12.0615C24.007 12.0209 23.9024 12 23.7969 12C23.6913 12 23.5868 12.0209 23.4893 12.0615C23.3918 12.1021 23.3034 12.1616 23.229 12.2366L22.0294 13.4362C21.9566 13.5123 21.8995 13.602 21.8614 13.7001C21.7814 13.8949 21.7814 14.1133 21.8614 14.308C21.8995 14.4061 21.9566 14.4958 22.0294 14.5719ZM30.5309 17.699C30.4929 17.6008 30.4358 17.5111 30.363 17.4351L29.1633 16.2354C29.089 16.1604 29.0005 16.101 28.9031 16.0603C28.8056 16.0197 28.7011 15.9988 28.5955 15.9988C28.4899 15.9988 28.3854 16.0197 28.2879 16.0603C28.1904 16.101 28.102 16.1604 28.0276 16.2354C27.9063 16.3628 27.8303 16.5267 27.8115 16.7016C27.7927 16.8766 27.8321 17.0529 27.9237 17.2031H24.9965C24.7844 17.2031 24.581 17.2874 24.431 17.4374C24.281 17.5874 24.1968 17.7908 24.1968 18.0029C24.1968 18.215 24.281 18.4184 24.431 18.5684C24.581 18.7184 24.7844 18.8027 24.9965 18.8027H27.9237C27.8321 18.9529 27.7927 19.1292 27.8115 19.3042C27.8303 19.4791 27.9063 19.643 28.0276 19.7704C28.102 19.8453 28.1904 19.9048 28.2879 19.9454C28.3854 19.9861 28.4899 20.007 28.5955 20.007C28.7011 20.007 28.8056 19.9861 28.9031 19.9454C29.0005 19.9048 29.089 19.8453 29.1633 19.7704L30.363 18.5707C30.4358 18.4947 30.4929 18.405 30.5309 18.3068C30.6109 18.1121 30.6109 17.8937 30.5309 17.699ZM20.9977 18.4028C20.365 18.4028 19.7465 18.5904 19.2204 18.9419C18.6943 19.2934 18.2843 19.7931 18.0421 20.3776C17.8 20.9622 17.7366 21.6054 17.8601 22.226C17.9835 22.8465 18.2882 23.4165 18.7356 23.8639C19.183 24.3113 19.753 24.616 20.3736 24.7395C20.9941 24.8629 21.6374 24.7995 22.2219 24.5574C22.8065 24.3153 23.3061 23.9052 23.6576 23.3792C24.0091 22.8531 24.1968 22.2346 24.1968 21.6019C24.1968 20.7534 23.8597 19.9397 23.2598 19.3398C22.6598 18.7398 21.8461 18.4028 20.9977 18.4028ZM20.9977 23.2014C20.6813 23.2014 20.3721 23.1076 20.109 22.9318C19.846 22.7561 19.641 22.5062 19.5199 22.214C19.3988 21.9217 19.3672 21.6001 19.4289 21.2898C19.4906 20.9795 19.6429 20.6945 19.8666 20.4708C20.0903 20.2471 20.3753 20.0948 20.6856 20.0331C20.9959 19.9713 21.3175 20.003 21.6098 20.1241C21.9021 20.2451 22.1519 20.4502 22.3276 20.7132C22.5034 20.9762 22.5972 21.2855 22.5972 21.6019C22.5972 22.0261 22.4287 22.4329 22.1287 22.7329C21.8288 23.0329 21.4219 23.2014 20.9977 23.2014ZM28.1956 20.8021C27.9835 20.8021 27.7801 20.8863 27.6301 21.0363C27.4801 21.1863 27.3958 21.3897 27.3958 21.6019V25.6007C27.3958 25.8128 27.3116 26.0162 27.1616 26.1662C27.0116 26.3162 26.8082 26.4005 26.5961 26.4005H15.3993C15.1872 26.4005 14.9838 26.3162 14.8338 26.1662C14.6838 26.0162 14.5995 25.8128 14.5995 25.6007V19.2026C14.5995 18.9904 14.6838 18.787 14.8338 18.637C14.9838 18.487 15.1872 18.4028 15.3993 18.4028H16.9988C17.1742 18.4114 17.3476 18.362 17.4921 18.2622C17.6367 18.1625 17.7444 18.018 17.7986 17.8509L18.2305 16.5553C18.2805 16.4013 18.3761 16.266 18.5046 16.1675C18.6331 16.069 18.7885 16.0118 18.9503 16.0035H20.1979C20.41 16.0035 20.6134 15.9192 20.7634 15.7692C20.9134 15.6192 20.9977 15.4158 20.9977 15.2037C20.9977 14.9916 20.9134 14.7882 20.7634 14.6382C20.6134 14.4882 20.41 14.4039 20.1979 14.4039H18.9503C18.4453 14.4038 17.9532 14.5629 17.5439 14.8587C17.1346 15.1545 16.8292 15.5719 16.6709 16.0515L16.423 16.8032H15.3993C14.763 16.8032 14.1527 17.056 13.7027 17.506C13.2528 17.9559 13 18.5662 13 19.2026V25.6007C13 26.237 13.2528 26.8473 13.7027 27.2973C14.1527 27.7472 14.763 28 15.3993 28H26.5961C27.2324 28 27.8427 27.7472 28.2926 27.2973C28.7426 26.8473 28.9954 26.237 28.9954 25.6007V21.6019C28.9954 21.3897 28.9111 21.1863 28.7611 21.0363C28.6111 20.8863 28.4077 20.8021 28.1956 20.8021Z" fill="white"/>
</svg>
