<svg width="9" height="6" viewBox="0 0 9 6" fill="none" xmlns="http://www.w3.org/2000/svg">
<path d="M0.744558 1.09749C0.69865 1.14118 0.662227 1.19308 0.637375 1.25021C0.612524 1.30735 0.599731 1.3686 0.599731 1.43046C0.599731 1.49232 0.612524 1.55358 0.637375 1.61071C0.662227 1.66785 0.69865 1.71975 0.744558 1.76343L4.02178 4.88997C4.05827 4.92485 4.1016 4.95252 4.14931 4.9714C4.19702 4.99028 4.24816 5 4.29981 5C4.35146 5 4.40261 4.99028 4.45031 4.9714C4.49802 4.95252 4.54136 4.92485 4.57784 4.88997L7.85507 1.76343C8.04831 1.57908 8.04831 1.28185 7.85507 1.09749C7.66183 0.913137 7.35027 0.913137 7.15703 1.09749L4.29784 3.82146L1.43865 1.09373C1.24935 0.913137 0.933856 0.913137 0.744558 1.09749Z" fill="white" stroke="white" stroke-width="0.49393"/>
</svg>
