<svg width="17" height="23" viewBox="0 0 17 23" fill="none" xmlns="http://www.w3.org/2000/svg">
<rect x="1" y="9.00391" width="15" height="12" fill="#FFEDAB"/>
<path d="M8.5 17C7.93641 17 7.39591 16.7761 6.9974 16.3776C6.59888 15.9791 6.375 15.4386 6.375 14.875C6.375 13.6956 7.32062 12.75 8.5 12.75C9.06359 12.75 9.60409 12.9739 10.0026 13.3724C10.4011 13.7709 10.625 14.3114 10.625 14.875C10.625 15.4386 10.4011 15.9791 10.0026 16.3776C9.60409 16.7761 9.06359 17 8.5 17ZM14.875 20.1875V9.5625H2.125V20.1875H14.875ZM14.875 7.4375C15.4386 7.4375 15.9791 7.66138 16.3776 8.0599C16.7761 8.45841 17 8.99891 17 9.5625V20.1875C17 20.7511 16.7761 21.2916 16.3776 21.6901C15.9791 22.0886 15.4386 22.3125 14.875 22.3125H2.125C1.56141 22.3125 1.02091 22.0886 0.622398 21.6901C0.223883 21.2916 0 20.7511 0 20.1875V9.5625C0 8.38313 0.945625 7.4375 2.125 7.4375H3.1875V5.3125C3.1875 3.90354 3.74721 2.55228 4.74349 1.556C5.73978 0.559708 7.09104 0 8.5 0C9.19765 0 9.88846 0.137412 10.533 0.40439C11.1775 0.671368 11.7632 1.06268 12.2565 1.556C12.7498 2.04931 13.1411 2.63495 13.4081 3.27949C13.6751 3.92404 13.8125 4.61485 13.8125 5.3125V7.4375H14.875ZM8.5 2.125C7.65462 2.125 6.84387 2.46082 6.2461 3.0586C5.64832 3.65637 5.3125 4.46712 5.3125 5.3125V7.4375H11.6875V5.3125C11.6875 4.46712 11.3517 3.65637 10.7539 3.0586C10.1561 2.46082 9.34538 2.125 8.5 2.125Z" fill="#1E1E1E"/>
</svg>
