<svg width="22" height="20" viewBox="0 0 22 20" fill="none" xmlns="http://www.w3.org/2000/svg">
<path fill-rule="evenodd" clip-rule="evenodd" d="M6.47485 2.2817C6.74718 0.945524 7.93648 0 9.29816 0H12.6315C13.9931 0 15.1814 0.945524 15.4548 2.2817C15.4849 2.42884 15.5637 2.56155 15.6784 2.6585C15.7931 2.75545 15.9371 2.81098 16.0872 2.81617H16.1208C17.5519 2.87941 18.6514 3.05485 19.5694 3.65766C20.1477 4.03709 20.6455 4.52464 21.0331 5.09481C21.5155 5.80268 21.7277 6.61663 21.8297 7.59989C21.9296 8.56173 21.9296 9.76633 21.9296 11.2922V11.3789C21.9296 12.9048 21.9296 14.1104 21.8297 15.0713C21.7277 16.0545 21.5155 16.8685 21.0331 17.5774C20.6443 18.1479 20.1469 18.6362 19.5694 19.0145C18.8523 19.4847 18.0292 19.6928 17.0317 19.7917C16.0545 19.8897 14.8295 19.8897 13.273 19.8897H8.65659C7.1001 19.8897 5.8751 19.8897 4.89796 19.7917C3.90041 19.6928 3.07729 19.4857 2.36024 19.0145C1.78263 18.6359 1.28527 18.1472 0.896565 17.5763C0.414113 16.8685 0.201957 16.0545 0.0999583 15.0713C5.02786e-08 14.1104 0 12.9048 0 11.3789V11.2922C0 9.76633 5.02786e-08 8.56173 0.0999583 7.59989C0.201957 6.61663 0.414113 5.80268 0.896565 5.09481C1.28527 4.52395 1.78263 4.03525 2.36024 3.65664C3.27822 3.05485 4.37777 2.87941 5.8088 2.81719L5.82614 2.81617H5.84246C5.99256 2.81098 6.13655 2.75545 6.25125 2.6585C6.36596 2.56155 6.44472 2.42884 6.47485 2.2817ZM9.29816 1.52997C8.64537 1.52997 8.09764 1.98183 7.97422 2.58668C7.77533 3.56586 6.9063 4.33697 5.86082 4.34615C4.48588 4.40734 3.74946 4.57564 3.19867 4.93672C2.78953 5.2052 2.43709 5.5514 2.16134 5.95568C1.87983 6.36877 1.71051 6.89814 1.62075 7.75799C1.53099 8.63109 1.52997 9.75715 1.52997 11.3361C1.52997 12.915 1.52997 14.0401 1.62177 14.9132C1.71051 15.773 1.87983 16.3024 2.16236 16.7165C2.43572 17.1184 2.78761 17.4652 3.19969 17.7355C3.62502 18.0139 4.16969 18.1822 5.04993 18.2699C5.9414 18.3587 7.0899 18.3597 8.69841 18.3597H13.2312C14.8387 18.3597 15.9872 18.3597 16.8797 18.2699C17.7599 18.1822 18.3046 18.0149 18.7299 17.7355C19.142 17.4652 19.4949 17.1184 19.7683 16.7155C20.0498 16.3024 20.2191 15.773 20.3089 14.9132C20.3986 14.0401 20.3996 12.914 20.3996 11.3361C20.3996 9.75715 20.3997 8.63109 20.3079 7.75799C20.2191 6.89814 20.0498 6.36877 19.7673 5.95568C19.4918 5.55086 19.1393 5.20427 18.7299 4.9357C18.1812 4.57564 17.4448 4.40734 16.0678 4.34615C15.0233 4.33595 14.1543 3.56688 13.9554 2.58668C13.8901 2.28504 13.7227 2.01517 13.4815 1.82265C13.2403 1.63013 12.9401 1.52675 12.6315 1.52997H9.29816ZM10.9648 8.66985C10.3562 8.66985 9.77242 8.91164 9.34203 9.34203C8.91164 9.77242 8.66985 10.3561 8.66985 10.9648C8.66985 11.5735 8.91164 12.1572 9.34203 12.5876C9.77242 13.018 10.3562 13.2598 10.9648 13.2598C11.5735 13.2598 12.1572 13.018 12.5876 12.5876C13.018 12.1572 13.2598 11.5735 13.2598 10.9648C13.2598 10.3561 13.018 9.77242 12.5876 9.34203C12.1572 8.91164 11.5735 8.66985 10.9648 8.66985ZM7.13988 10.9648C7.13988 9.95038 7.54286 8.97749 8.26017 8.26017C8.97749 7.54286 9.95038 7.13988 10.9648 7.13988C11.9792 7.13988 12.9521 7.54286 13.6694 8.26017C14.3868 8.97749 14.7897 9.95038 14.7897 10.9648C14.7897 11.9792 14.3868 12.9521 13.6694 13.6694C12.9521 14.3868 11.9792 14.7897 10.9648 14.7897C9.95038 14.7897 8.97749 14.3868 8.26017 13.6694C7.54286 12.9521 7.13988 11.9792 7.13988 10.9648ZM16.3197 7.90486C16.3197 7.70198 16.4003 7.5074 16.5438 7.36394C16.6872 7.22047 16.8818 7.13988 17.0847 7.13988H18.1047C18.3076 7.13988 18.5022 7.22047 18.6456 7.36394C18.7891 7.5074 18.8697 7.70198 18.8697 7.90486C18.8697 8.10775 18.7891 8.30233 18.6456 8.44579C18.5022 8.58925 18.3076 8.66985 18.1047 8.66985H17.0847C16.8818 8.66985 16.6872 8.58925 16.5438 8.44579C16.4003 8.30233 16.3197 8.10775 16.3197 7.90486Z" fill="#1E1E1E"/>
</svg>
