<svg width="28" height="24" viewBox="0 0 28 24" fill="none" xmlns="http://www.w3.org/2000/svg">
<circle cx="13.3979" cy="12.2805" r="10.626" fill="white" stroke="black" stroke-width="0.8855"/>
<circle cx="11.6262" cy="11.3951" r="10.626" fill="#FFE72D" stroke="black" stroke-width="0.8855"/>
<path d="M12.1082 15.7841C12.0015 15.7841 11.9176 15.7612 11.8566 15.7155C11.8032 15.6621 11.7536 15.6087 11.7078 15.5553L9.24824 12.8212C9.1796 12.7449 9.13384 12.6724 9.11096 12.6038C9.0957 12.5352 9.08808 12.4398 9.08808 12.3178V11.906C9.08808 11.8297 9.11096 11.7649 9.15672 11.7115C9.2101 11.6581 9.27874 11.6314 9.36264 11.6314H9.90032C10.3808 11.6314 10.7507 11.5704 11.01 11.4484C11.2693 11.3187 11.4447 11.1471 11.5362 10.9336C11.6354 10.72 11.685 10.4722 11.685 10.19C11.685 9.92303 11.6354 9.68279 11.5362 9.46924C11.4447 9.2557 11.2769 9.0841 11.0329 8.95444C10.7888 8.81716 10.4456 8.74852 10.0033 8.74852H9.28256C9.20629 8.74852 9.14146 8.72564 9.08808 8.67988C9.03469 8.6265 9.008 8.55786 9.008 8.47396V8.05068C9.008 7.97442 9.03469 7.90959 9.08808 7.8562C9.14146 7.80282 9.20629 7.77612 9.28256 7.77612H14.0073C14.0835 7.77612 14.1484 7.80282 14.2018 7.8562C14.2551 7.90959 14.2818 7.97442 14.2818 8.05068V8.47396C14.2818 8.55786 14.2551 8.6265 14.2018 8.67988C14.1484 8.72564 14.0835 8.74852 14.0073 8.74852H12.1883L12.2112 8.47396C12.6307 8.60362 12.9205 8.83623 13.0806 9.1718C13.2408 9.49975 13.3209 9.86964 13.3209 10.2815C13.3209 10.7238 13.2255 11.1242 13.0349 11.4827C12.8442 11.8411 12.5544 12.1271 12.1654 12.3407C11.7841 12.5542 11.3113 12.6763 10.7469 12.7068L10.3465 12.7411L10.4723 12.089L13.4124 15.4066C13.4734 15.4752 13.5039 15.5324 13.5039 15.5782C13.5039 15.6468 13.481 15.7002 13.4353 15.7384C13.3895 15.7689 13.3323 15.7841 13.2637 15.7841H12.1082ZM9.28256 10.6018C9.19866 10.6018 9.13002 10.5751 9.07664 10.5217C9.03088 10.4683 9.008 10.4035 9.008 10.3272V9.90396C9.008 9.82007 9.03469 9.75524 9.08808 9.70948C9.14146 9.6561 9.20629 9.6294 9.28256 9.6294H14.0073C14.0835 9.6294 14.1484 9.6561 14.2018 9.70948C14.2551 9.75524 14.2818 9.82007 14.2818 9.90396L14.2704 10.3272C14.2704 10.4035 14.2437 10.4683 14.1903 10.5217C14.1446 10.5751 14.0797 10.6018 13.9958 10.6018H9.28256Z" fill="black"/>
<path d="M15.9094 12.0111H18.6634L19.765 9.80786H21.9682L23.0698 12.0111H25.8238L26.9254 14.2143L25.8238 15.3159V16.4175L26.9254 18.6207L26.3746 19.7223L24.7222 20.2731H23.0698L22.519 22.4763H19.765L18.1126 19.7223L15.9094 20.2731L14.8078 18.0699L16.4602 15.8667L14.8078 14.2143L15.9094 12.0111Z" fill="white"/>
<mask id="path-5-outside-1_2_10809" maskUnits="userSpaceOnUse" x="13.0002" y="8" width="15" height="16" fill="black">
<rect fill="white" x="13.0002" y="8" width="15" height="16"/>
<path d="M20.8662 13.7741C20.2329 13.7741 19.6255 14.0256 19.1777 14.4735C18.7298 14.9213 18.4783 15.5287 18.4783 16.162C18.4783 16.7953 18.7298 17.4027 19.1777 17.8506C19.6255 18.2984 20.2329 18.55 20.8662 18.55C21.4995 18.55 22.1069 18.2984 22.5548 17.8506C23.0026 17.4027 23.2542 16.7953 23.2542 16.162C23.2542 15.5287 23.0026 14.9213 22.5548 14.4735C22.1069 14.0256 21.4995 13.7741 20.8662 13.7741ZM19.6722 16.162C19.6722 15.8454 19.798 15.5417 20.0219 15.3177C20.2459 15.0938 20.5496 14.968 20.8662 14.968C21.1829 14.968 21.4866 15.0938 21.7105 15.3177C21.9344 15.5417 22.0602 15.8454 22.0602 16.162C22.0602 16.4787 21.9344 16.7824 21.7105 17.0063C21.4866 17.2302 21.1829 17.356 20.8662 17.356C20.5496 17.356 20.2459 17.2302 20.0219 17.0063C19.798 16.7824 19.6722 16.4787 19.6722 16.162ZM23.9921 11.8613C23.7719 11.9011 23.545 11.8523 23.3607 11.7255C23.1764 11.5987 23.0497 11.4041 23.0082 11.1843L22.6978 9.49364C22.6832 9.41105 22.644 9.33477 22.5855 9.27472C22.5269 9.21467 22.4516 9.17363 22.3694 9.15694C21.3778 8.94769 20.3534 8.94769 19.3618 9.15694C19.2796 9.17363 19.2043 9.21467 19.1458 9.27472C19.0872 9.33477 19.0481 9.41105 19.0335 9.49364L18.7242 11.1843C18.7016 11.3047 18.6532 11.4188 18.5823 11.5187C18.5114 11.6186 18.4197 11.702 18.3135 11.763C18.2073 11.8241 18.0891 11.8614 17.967 11.8724C17.845 11.8834 17.7221 11.8678 17.6067 11.8267L15.984 11.2488C15.9052 11.2214 15.8201 11.2175 15.7391 11.2376C15.6581 11.2578 15.5847 11.3011 15.5279 11.3622C14.8482 12.111 14.3346 12.9952 14.0211 13.9567C13.995 14.0362 13.9933 14.1217 14.0163 14.2022C14.0393 14.2827 14.0859 14.3544 14.1501 14.4081L15.4659 15.5197C15.5017 15.5491 15.5339 15.5813 15.5626 15.6164C15.6345 15.7006 15.6891 15.7982 15.7232 15.9036C15.7573 16.009 15.7702 16.1201 15.7612 16.2305C15.7522 16.3409 15.7215 16.4484 15.6708 16.5469C15.6201 16.6454 15.5505 16.7329 15.4659 16.8044L14.1501 17.916C14.0859 17.9696 14.0393 18.0413 14.0163 18.1218C13.9933 18.2023 13.995 18.2878 14.0211 18.3673C14.335 19.3289 14.8489 20.2131 15.5291 20.9618C15.5859 21.023 15.6593 21.0662 15.7403 21.0864C15.8213 21.1065 15.9064 21.1027 15.9852 21.0752L17.609 20.4974C17.7244 20.4558 17.8475 20.4399 17.9697 20.4507C18.0918 20.4615 18.2102 20.4988 18.3165 20.5599C18.4228 20.621 18.5146 20.7045 18.5854 20.8046C18.6562 20.9048 18.7044 21.0191 18.7266 21.1397L19.0347 22.8304C19.0657 22.9975 19.1958 23.1313 19.363 23.1659C20.355 23.3753 21.3798 23.3753 22.3718 23.1659C22.4536 23.1491 22.5285 23.1081 22.5869 23.0483C22.6452 22.9885 22.6842 22.9126 22.699 22.8304L23.0094 21.1397C23.032 21.0193 23.0804 20.9052 23.1513 20.8053C23.2222 20.7054 23.3139 20.622 23.4202 20.561C23.5264 20.4999 23.6446 20.4626 23.7666 20.4517C23.8886 20.4407 24.0116 20.4563 24.127 20.4974L25.7496 21.0752C25.9108 21.1325 26.0911 21.0872 26.2057 20.9618C26.8855 20.213 27.399 19.3288 27.7125 18.3673C27.7387 18.2878 27.7404 18.2023 27.7174 18.1218C27.6944 18.0413 27.6478 17.9696 27.5835 17.916L26.2678 16.8044C26.1741 16.7256 26.0988 16.6273 26.0471 16.5163C25.9955 16.4053 25.9687 16.2844 25.9687 16.162C25.9687 16.0396 25.9955 15.9187 26.0471 15.8077C26.0988 15.6968 26.1741 15.5984 26.2678 15.5197L27.5835 14.4081C27.6478 14.3544 27.6944 14.2827 27.7174 14.2022C27.7404 14.1217 27.7387 14.0362 27.7125 13.9567C27.3983 12.995 26.8839 12.1108 26.2033 11.3622C26.1465 11.3011 26.0731 11.2578 25.9921 11.2376C25.9111 11.2175 25.826 11.2214 25.7472 11.2488L24.1234 11.8267C24.0799 11.8411 24.0357 11.8531 23.9909 11.8625M16.0867 12.555L17.2055 12.9526C17.4839 13.0517 17.7804 13.0892 18.0747 13.0625C18.369 13.0358 18.654 12.9456 18.91 12.798C19.166 12.6504 19.3869 12.449 19.5574 12.2077C19.728 11.9664 19.8442 11.691 19.8979 11.4004L20.1092 10.2423C20.6107 10.1783 21.1182 10.1783 21.6196 10.2423L21.8321 11.4004C21.8855 11.6912 22.0014 11.9669 22.1719 12.2084C22.3424 12.4499 22.5633 12.6515 22.8194 12.7991C23.0756 12.9467 23.3607 13.0369 23.6551 13.0634C23.9495 13.09 24.2462 13.0521 24.5246 12.9526L25.6421 12.5526C25.9478 12.953 26.1985 13.3844 26.3943 13.8469L25.4941 14.6075C25.2679 14.7984 25.0861 15.0365 24.9614 15.305C24.8367 15.5735 24.7721 15.866 24.7721 16.162C24.7721 16.4581 24.8367 16.7505 24.9614 17.019C25.0861 17.2875 25.2679 17.5256 25.4941 17.7166L26.3955 18.4771C26.2001 18.9384 25.9474 19.3733 25.6433 19.7714L24.5246 19.3726C24.2462 19.2735 23.9496 19.236 23.6553 19.2627C23.3611 19.2894 23.0761 19.3797 22.8201 19.5273C22.5641 19.6748 22.3432 19.8762 22.1726 20.1175C22.002 20.3588 21.8859 20.6342 21.8321 20.9248L21.6196 22.083C21.1182 22.1469 20.6107 22.1469 20.1092 22.083L19.8979 20.9248C19.8445 20.634 19.7286 20.3584 19.5581 20.1168C19.3877 19.8753 19.1667 19.6738 18.9106 19.5261C18.6545 19.3785 18.3694 19.2883 18.0749 19.2618C17.7805 19.2353 17.4838 19.2731 17.2055 19.3726L16.0903 19.7714C15.7863 19.3733 15.5335 18.9384 15.3381 18.4771L16.2384 17.7154C16.4644 17.5244 16.646 17.2864 16.7706 17.018C16.8951 16.7496 16.9597 16.4573 16.9597 16.1614C16.9597 15.8655 16.8951 15.5732 16.7706 15.3048C16.646 15.0364 16.4644 14.7984 16.2384 14.6075L15.3369 13.8469C15.5343 13.3844 15.785 12.953 16.0891 12.5526"/>
</mask>
<path d="M20.8662 13.7741C20.2329 13.7741 19.6255 14.0256 19.1777 14.4735C18.7298 14.9213 18.4783 15.5287 18.4783 16.162C18.4783 16.7953 18.7298 17.4027 19.1777 17.8506C19.6255 18.2984 20.2329 18.55 20.8662 18.55C21.4995 18.55 22.1069 18.2984 22.5548 17.8506C23.0026 17.4027 23.2542 16.7953 23.2542 16.162C23.2542 15.5287 23.0026 14.9213 22.5548 14.4735C22.1069 14.0256 21.4995 13.7741 20.8662 13.7741ZM19.6722 16.162C19.6722 15.8454 19.798 15.5417 20.0219 15.3177C20.2459 15.0938 20.5496 14.968 20.8662 14.968C21.1829 14.968 21.4866 15.0938 21.7105 15.3177C21.9344 15.5417 22.0602 15.8454 22.0602 16.162C22.0602 16.4787 21.9344 16.7824 21.7105 17.0063C21.4866 17.2302 21.1829 17.356 20.8662 17.356C20.5496 17.356 20.2459 17.2302 20.0219 17.0063C19.798 16.7824 19.6722 16.4787 19.6722 16.162ZM23.9921 11.8613C23.7719 11.9011 23.545 11.8523 23.3607 11.7255C23.1764 11.5987 23.0497 11.4041 23.0082 11.1843L22.6978 9.49364C22.6832 9.41105 22.644 9.33477 22.5855 9.27472C22.5269 9.21467 22.4516 9.17363 22.3694 9.15694C21.3778 8.94769 20.3534 8.94769 19.3618 9.15694C19.2796 9.17363 19.2043 9.21467 19.1458 9.27472C19.0872 9.33477 19.0481 9.41105 19.0335 9.49364L18.7242 11.1843C18.7016 11.3047 18.6532 11.4188 18.5823 11.5187C18.5114 11.6186 18.4197 11.702 18.3135 11.763C18.2073 11.8241 18.0891 11.8614 17.967 11.8724C17.845 11.8834 17.7221 11.8678 17.6067 11.8267L15.984 11.2488C15.9052 11.2214 15.8201 11.2175 15.7391 11.2376C15.6581 11.2578 15.5847 11.3011 15.5279 11.3622C14.8482 12.111 14.3346 12.9952 14.0211 13.9567C13.995 14.0362 13.9933 14.1217 14.0163 14.2022C14.0393 14.2827 14.0859 14.3544 14.1501 14.4081L15.4659 15.5197C15.5017 15.5491 15.5339 15.5813 15.5626 15.6164C15.6345 15.7006 15.6891 15.7982 15.7232 15.9036C15.7573 16.009 15.7702 16.1201 15.7612 16.2305C15.7522 16.3409 15.7215 16.4484 15.6708 16.5469C15.6201 16.6454 15.5505 16.7329 15.4659 16.8044L14.1501 17.916C14.0859 17.9696 14.0393 18.0413 14.0163 18.1218C13.9933 18.2023 13.995 18.2878 14.0211 18.3673C14.335 19.3289 14.8489 20.2131 15.5291 20.9618C15.5859 21.023 15.6593 21.0662 15.7403 21.0864C15.8213 21.1065 15.9064 21.1027 15.9852 21.0752L17.609 20.4974C17.7244 20.4558 17.8475 20.4399 17.9697 20.4507C18.0918 20.4615 18.2102 20.4988 18.3165 20.5599C18.4228 20.621 18.5146 20.7045 18.5854 20.8046C18.6562 20.9048 18.7044 21.0191 18.7266 21.1397L19.0347 22.8304C19.0657 22.9975 19.1958 23.1313 19.363 23.1659C20.355 23.3753 21.3798 23.3753 22.3718 23.1659C22.4536 23.1491 22.5285 23.1081 22.5869 23.0483C22.6452 22.9885 22.6842 22.9126 22.699 22.8304L23.0094 21.1397C23.032 21.0193 23.0804 20.9052 23.1513 20.8053C23.2222 20.7054 23.3139 20.622 23.4202 20.561C23.5264 20.4999 23.6446 20.4626 23.7666 20.4517C23.8886 20.4407 24.0116 20.4563 24.127 20.4974L25.7496 21.0752C25.9108 21.1325 26.0911 21.0872 26.2057 20.9618C26.8855 20.213 27.399 19.3288 27.7125 18.3673C27.7387 18.2878 27.7404 18.2023 27.7174 18.1218C27.6944 18.0413 27.6478 17.9696 27.5835 17.916L26.2678 16.8044C26.1741 16.7256 26.0988 16.6273 26.0471 16.5163C25.9955 16.4053 25.9687 16.2844 25.9687 16.162C25.9687 16.0396 25.9955 15.9187 26.0471 15.8077C26.0988 15.6968 26.1741 15.5984 26.2678 15.5197L27.5835 14.4081C27.6478 14.3544 27.6944 14.2827 27.7174 14.2022C27.7404 14.1217 27.7387 14.0362 27.7125 13.9567C27.3983 12.995 26.8839 12.1108 26.2033 11.3622C26.1465 11.3011 26.0731 11.2578 25.9921 11.2376C25.9111 11.2175 25.826 11.2214 25.7472 11.2488L24.1234 11.8267C24.0799 11.8411 24.0357 11.8531 23.9909 11.8625M16.0867 12.555L17.2055 12.9526C17.4839 13.0517 17.7804 13.0892 18.0747 13.0625C18.369 13.0358 18.654 12.9456 18.91 12.798C19.166 12.6504 19.3869 12.449 19.5574 12.2077C19.728 11.9664 19.8442 11.691 19.8979 11.4004L20.1092 10.2423C20.6107 10.1783 21.1182 10.1783 21.6196 10.2423L21.8321 11.4004C21.8855 11.6912 22.0014 11.9669 22.1719 12.2084C22.3424 12.4499 22.5633 12.6515 22.8194 12.7991C23.0756 12.9467 23.3607 13.0369 23.6551 13.0634C23.9495 13.09 24.2462 13.0521 24.5246 12.9526L25.6421 12.5526C25.9478 12.953 26.1985 13.3844 26.3943 13.8469L25.4941 14.6075C25.2679 14.7984 25.0861 15.0365 24.9614 15.305C24.8367 15.5735 24.7721 15.866 24.7721 16.162C24.7721 16.4581 24.8367 16.7505 24.9614 17.019C25.0861 17.2875 25.2679 17.5256 25.4941 17.7166L26.3955 18.4771C26.2001 18.9384 25.9474 19.3733 25.6433 19.7714L24.5246 19.3726C24.2462 19.2735 23.9496 19.236 23.6553 19.2627C23.3611 19.2894 23.0761 19.3797 22.8201 19.5273C22.5641 19.6748 22.3432 19.8762 22.1726 20.1175C22.002 20.3588 21.8859 20.6342 21.8321 20.9248L21.6196 22.083C21.1182 22.1469 20.6107 22.1469 20.1092 22.083L19.8979 20.9248C19.8445 20.634 19.7286 20.3584 19.5581 20.1168C19.3877 19.8753 19.1667 19.6738 18.9106 19.5261C18.6545 19.3785 18.3694 19.2883 18.0749 19.2618C17.7805 19.2353 17.4838 19.2731 17.2055 19.3726L16.0903 19.7714C15.7863 19.3733 15.5335 18.9384 15.3381 18.4771L16.2384 17.7154C16.4644 17.5244 16.646 17.2864 16.7706 17.018C16.8951 16.7496 16.9597 16.4573 16.9597 16.1614C16.9597 15.8655 16.8951 15.5732 16.7706 15.3048C16.646 15.0364 16.4644 14.7984 16.2384 14.6075L15.3369 13.8469C15.5343 13.3844 15.785 12.953 16.0891 12.5526" fill="black"/>
<path d="M20.8662 13.7741V13.5741V13.7741ZM18.4783 16.162H18.2783H18.4783ZM20.8662 14.968V15.168V14.968ZM23.0082 11.1843L22.8115 11.2204L22.8117 11.2214L23.0082 11.1843ZM22.6978 9.49364L22.5008 9.5285L22.5011 9.52976L22.6978 9.49364ZM22.3694 9.15694L22.3281 9.35264L22.3296 9.35294L22.3694 9.15694ZM19.3618 9.15694L19.4016 9.35295L19.4031 9.35263L19.3618 9.15694ZM19.0335 9.49364L19.2302 9.52963L19.2304 9.5285L19.0335 9.49364ZM18.7242 11.1843L18.9208 11.2212L18.921 11.2203L18.7242 11.1843ZM17.6067 11.8267L17.5396 12.0151L17.5396 12.0151L17.6067 11.8267ZM15.984 11.2488L16.0511 11.0604L16.0497 11.0599L15.984 11.2488ZM15.5279 11.3622L15.3814 11.2261L15.3799 11.2278L15.5279 11.3622ZM14.0211 13.9567L14.2111 14.0193L14.2113 14.0187L14.0211 13.9567ZM14.1501 14.4081L14.2792 14.2553L14.2783 14.2546L14.1501 14.4081ZM15.4659 15.5197L15.3368 15.6724L15.3388 15.6741L15.4659 15.5197ZM15.5626 15.6164L15.4077 15.743L15.4105 15.7463L15.5626 15.6164ZM15.4659 16.8044L15.3368 16.6516L15.3368 16.6516L15.4659 16.8044ZM14.1501 17.916L14.2783 18.0694L14.2792 18.0687L14.1501 17.916ZM14.0211 18.3673L14.2113 18.3052L14.2111 18.3048L14.0211 18.3673ZM15.5291 20.9618L15.3811 21.0963L15.3826 21.0979L15.5291 20.9618ZM15.9852 21.0752L16.0509 21.2641L16.0523 21.2637L15.9852 21.0752ZM17.609 20.4974L17.6761 20.6858L17.6768 20.6855L17.609 20.4974ZM18.7266 21.1397L18.9234 21.1039L18.9233 21.1035L18.7266 21.1397ZM19.0347 22.8304L18.8379 22.8662L18.838 22.8669L19.0347 22.8304ZM19.363 23.1659L19.4043 22.9702L19.4036 22.9701L19.363 23.1659ZM22.3718 23.1659L22.3315 22.97L22.3305 22.9702L22.3718 23.1659ZM22.699 22.8304L22.5023 22.7943L22.5021 22.7951L22.699 22.8304ZM23.0094 21.1397L22.8128 21.1029L22.8127 21.1036L23.0094 21.1397ZM24.127 20.4974L24.1941 20.3089L24.1941 20.3089L24.127 20.4974ZM25.7496 21.0752L25.6825 21.2636L25.6826 21.2637L25.7496 21.0752ZM26.2057 20.9618L26.3533 21.0968L26.3538 21.0962L26.2057 20.9618ZM27.7125 18.3673L27.5225 18.3048L27.5223 18.3053L27.7125 18.3673ZM27.5835 17.916L27.4545 18.0687L27.4553 18.0694L27.5835 17.916ZM26.2678 16.8044L26.3969 16.6516L26.3965 16.6513L26.2678 16.8044ZM25.9687 16.162H25.7687H25.9687ZM26.2678 15.5197L26.3965 15.6727L26.3969 15.6724L26.2678 15.5197ZM27.5835 14.4081L27.4553 14.2546L27.4545 14.2553L27.5835 14.4081ZM27.7125 13.9567L27.5224 14.0188L27.5225 14.0193L27.7125 13.9567ZM26.2033 11.3622L26.3513 11.2277L26.3498 11.2261L26.2033 11.3622ZM25.7472 11.2488L25.6815 11.0599L25.6801 11.0604L25.7472 11.2488ZM24.1234 11.8267L24.1866 12.0165L24.1905 12.0151L24.1234 11.8267ZM17.2055 12.9526L17.2726 12.7642L17.2725 12.7641L17.2055 12.9526ZM19.8979 11.4004L20.0946 11.4368L20.0947 11.4363L19.8979 11.4004ZM20.1092 10.2423L20.0839 10.0439L19.9388 10.0624L19.9125 10.2064L20.1092 10.2423ZM21.6196 10.2423L21.8163 10.2062L21.7899 10.0624L21.6449 10.0439L21.6196 10.2423ZM21.8321 11.4004L21.6354 11.4365V11.4365L21.8321 11.4004ZM24.5246 12.9526L24.5919 13.1409L24.592 13.1409L24.5246 12.9526ZM25.6421 12.5526L25.8011 12.4313L25.7124 12.315L25.5747 12.3643L25.6421 12.5526ZM26.3943 13.8469L26.5234 13.9997L26.636 13.9046L26.5785 13.7689L26.3943 13.8469ZM25.4941 14.6075L25.6231 14.7603L25.6232 14.7602L25.4941 14.6075ZM24.7721 16.162H24.9721H24.7721ZM25.4941 17.7166L25.3651 17.8694L25.3651 17.8694L25.4941 17.7166ZM26.3955 18.4771L26.5797 18.5552L26.6372 18.4194L26.5245 18.3243L26.3955 18.4771ZM25.6433 19.7714L25.5762 19.9598L25.7137 20.0088L25.8023 19.8928L25.6433 19.7714ZM24.5246 19.3726L24.5917 19.1842L24.5916 19.1842L24.5246 19.3726ZM21.8321 20.9248L21.6355 20.8884L21.6354 20.8887L21.8321 20.9248ZM21.6196 22.083L21.6449 22.2814L21.7899 22.2629L21.8163 22.1191L21.6196 22.083ZM20.1092 22.083L19.9125 22.1189L19.9388 22.2628L20.0839 22.2814L20.1092 22.083ZM19.8979 20.9248L20.0947 20.8889L20.0946 20.8887L19.8979 20.9248ZM17.2055 19.3726L17.1381 19.1843L17.1381 19.1843L17.2055 19.3726ZM16.0903 19.7714L15.9314 19.8928L16.02 20.0089L16.1576 19.9597L16.0903 19.7714ZM15.3381 18.4771L15.2089 18.3245L15.0965 18.4196L15.1539 18.5552L15.3381 18.4771ZM16.2384 17.7154L16.1093 17.5626L16.1092 17.5627L16.2384 17.7154ZM16.9597 16.1614H16.7597H16.9597ZM16.2384 14.6075L16.3675 14.4547L16.3673 14.4546L16.2384 14.6075ZM15.3369 13.8469L15.153 13.7684L15.0949 13.9044L15.2079 13.9998L15.3369 13.8469ZM20.8662 13.5741C20.1799 13.5741 19.5216 13.8467 19.0363 14.3321L19.3191 14.6149C19.7294 14.2046 20.2859 13.9741 20.8662 13.9741V13.5741ZM19.0363 14.3321C18.5509 14.8174 18.2783 15.4756 18.2783 16.162H18.6783C18.6783 15.5817 18.9088 15.0252 19.3191 14.6149L19.0363 14.3321ZM18.2783 16.162C18.2783 16.8484 18.5509 17.5066 19.0363 17.992L19.3191 17.7091C18.9088 17.2988 18.6783 16.7423 18.6783 16.162H18.2783ZM19.0363 17.992C19.5216 18.4773 20.1799 18.75 20.8662 18.75V18.35C20.2859 18.35 19.7294 18.1195 19.3191 17.7091L19.0363 17.992ZM20.8662 18.75C21.5526 18.75 22.2108 18.4773 22.6962 17.992L22.4133 17.7091C22.003 18.1195 21.4465 18.35 20.8662 18.35V18.75ZM22.6962 17.992C23.1815 17.5066 23.4542 16.8484 23.4542 16.162H23.0542C23.0542 16.7423 22.8237 17.2988 22.4133 17.7091L22.6962 17.992ZM23.4542 16.162C23.4542 15.4756 23.1815 14.8174 22.6962 14.3321L22.4133 14.6149C22.8237 15.0252 23.0542 15.5817 23.0542 16.162H23.4542ZM22.6962 14.3321C22.2108 13.8467 21.5526 13.5741 20.8662 13.5741V13.9741C21.4465 13.9741 22.003 14.2046 22.4133 14.6149L22.6962 14.3321ZM19.8722 16.162C19.8722 15.8984 19.977 15.6456 20.1634 15.4592L19.8805 15.1763C19.6191 15.4377 19.4722 15.7923 19.4722 16.162H19.8722ZM20.1634 15.4592C20.3498 15.2728 20.6026 15.168 20.8662 15.168V14.768C20.4965 14.768 20.1419 14.9149 19.8805 15.1763L20.1634 15.4592ZM20.8662 15.168C21.1298 15.168 21.3827 15.2728 21.5691 15.4592L21.8519 15.1763C21.5905 14.9149 21.2359 14.768 20.8662 14.768V15.168ZM21.5691 15.4592C21.7555 15.6456 21.8602 15.8984 21.8602 16.162H22.2602C22.2602 15.7923 22.1133 15.4377 21.8519 15.1763L21.5691 15.4592ZM21.8602 16.162C21.8602 16.4256 21.7555 16.6785 21.5691 16.8649L21.8519 17.1477C22.1133 16.8863 22.2602 16.5317 22.2602 16.162H21.8602ZM21.5691 16.8649C21.3827 17.0513 21.1298 17.156 20.8662 17.156V17.556C21.2359 17.556 21.5905 17.4091 21.8519 17.1477L21.5691 16.8649ZM20.8662 17.156C20.6026 17.156 20.3498 17.0513 20.1634 16.8649L19.8805 17.1477C20.1419 17.4091 20.4965 17.556 20.8662 17.556V17.156ZM20.1634 16.8649C19.977 16.6785 19.8722 16.4256 19.8722 16.162H19.4722C19.4722 16.5317 19.6191 16.8863 19.8805 17.1477L20.1634 16.8649ZM23.9565 11.6645C23.7883 11.6949 23.6149 11.6576 23.4741 11.5607L23.2473 11.8902C23.4751 12.047 23.7556 12.1073 24.0276 12.0581L23.9565 11.6645ZM23.4741 11.5607C23.3333 11.4638 23.2364 11.3152 23.2047 11.1472L22.8117 11.2214C22.863 11.4931 23.0195 11.7335 23.2473 11.8902L23.4741 11.5607ZM23.2049 11.1482L22.8945 9.45752L22.5011 9.52976L22.8115 11.2204L23.2049 11.1482ZM22.8947 9.45879C22.8731 9.33666 22.8152 9.22388 22.7287 9.13509L22.4423 9.41435C22.4728 9.44566 22.4932 9.48544 22.5008 9.5285L22.8947 9.45879ZM22.7287 9.13509C22.6421 9.0463 22.5308 8.98562 22.4092 8.96094L22.3296 9.35294C22.3725 9.36164 22.4118 9.38304 22.4423 9.41435L22.7287 9.13509ZM22.4107 8.96125C21.3919 8.74625 20.3394 8.74625 19.3205 8.96125L19.4031 9.35263C20.3675 9.14912 21.3637 9.14912 22.3281 9.35263L22.4107 8.96125ZM19.322 8.96094C19.2005 8.98562 19.0892 9.0463 19.0026 9.13509L19.289 9.41435C19.3195 9.38304 19.3587 9.36164 19.4016 9.35294L19.322 8.96094ZM19.0026 9.13509C18.916 9.22388 18.8581 9.33667 18.8365 9.45879L19.2304 9.5285C19.238 9.48544 19.2584 9.44566 19.289 9.41435L19.0026 9.13509ZM18.8367 9.45766L18.5275 11.1483L18.921 11.2203L19.2302 9.52963L18.8367 9.45766ZM18.5276 11.1475C18.5104 11.2395 18.4734 11.3266 18.4192 11.403L18.7454 11.6345C18.8331 11.511 18.8929 11.37 18.9208 11.2212L18.5276 11.1475ZM18.4192 11.403C18.365 11.4793 18.295 11.543 18.2138 11.5896L18.4131 11.9364C18.5444 11.861 18.6578 11.758 18.7454 11.6345L18.4192 11.403ZM18.2138 11.5896C18.1326 11.6363 18.0423 11.6648 17.9491 11.6732L17.985 12.0716C18.1358 12.058 18.2819 12.0119 18.4131 11.9364L18.2138 11.5896ZM17.9491 11.6732C17.8559 11.6816 17.7619 11.6697 17.6737 11.6383L17.5396 12.0151C17.6822 12.0659 17.8342 12.0852 17.985 12.0716L17.9491 11.6732ZM17.6738 11.6383L16.0511 11.0604L15.9169 11.4372L17.5396 12.0151L17.6738 11.6383ZM16.0497 11.0599C15.9342 11.0197 15.8095 11.014 15.6908 11.0436L15.7874 11.4317C15.8307 11.421 15.8762 11.423 15.9183 11.4377L16.0497 11.0599ZM15.6908 11.0436C15.5722 11.0731 15.4646 11.1365 15.3814 11.2261L15.6745 11.4983C15.7048 11.4657 15.7441 11.4425 15.7874 11.4317L15.6908 11.0436ZM15.3799 11.2278C14.6811 11.9975 14.1532 12.9064 13.831 13.8947L14.2113 14.0187C14.516 13.0841 15.0152 12.2245 15.676 11.4967L15.3799 11.2278ZM13.8312 13.8942C13.7925 14.0117 13.79 14.1382 13.824 14.2572L14.2086 14.1473C14.1966 14.1053 14.1975 14.0607 14.2111 14.0193L13.8312 13.8942ZM13.824 14.2572C13.858 14.3761 13.9269 14.4822 14.0218 14.5615L14.2783 14.2546C14.2449 14.2266 14.2206 14.1892 14.2086 14.1473L13.824 14.2572ZM14.021 14.5608L15.3368 15.6724L15.5949 15.3669L14.2792 14.2553L14.021 14.5608ZM15.3388 15.6741C15.3648 15.6955 15.3876 15.7184 15.4078 15.743L15.7174 15.4897C15.6802 15.4443 15.6386 15.4028 15.5929 15.3652L15.3388 15.6741ZM15.4105 15.7463C15.4653 15.8104 15.5069 15.8848 15.5329 15.9651L15.9135 15.842C15.8713 15.7116 15.8037 15.5907 15.7146 15.4865L15.4105 15.7463ZM15.5329 15.9651C15.5589 16.0455 15.5687 16.1301 15.5619 16.2143L15.9605 16.2467C15.9717 16.11 15.9557 15.9725 15.9135 15.842L15.5329 15.9651ZM15.5619 16.2143C15.555 16.2984 15.5316 16.3803 15.493 16.4554L15.8486 16.6384C15.9114 16.5165 15.9494 16.3834 15.9605 16.2467L15.5619 16.2143ZM15.493 16.4554C15.4543 16.5304 15.4013 16.5971 15.3368 16.6516L15.5949 16.9572C15.6997 16.8687 15.7859 16.7603 15.8486 16.6384L15.493 16.4554ZM15.3368 16.6516L14.021 17.7632L14.2792 18.0687L15.5949 16.9572L15.3368 16.6516ZM14.0218 17.7625C13.9269 17.8419 13.858 17.9479 13.824 18.0669L14.2086 18.1768C14.2206 18.1348 14.2449 18.0974 14.2783 18.0694L14.0218 17.7625ZM13.824 18.0669C13.79 18.1859 13.7925 18.3123 13.8312 18.4298L14.2111 18.3048C14.1975 18.2633 14.1966 18.2187 14.2086 18.1768L13.824 18.0669ZM13.831 18.4294C14.1536 19.4178 14.6819 20.3267 15.3811 21.0963L15.6772 20.8273C15.016 20.0995 14.5164 19.24 14.2113 18.3052L13.831 18.4294ZM15.3826 21.0979C15.4658 21.1875 15.5734 21.251 15.692 21.2805L15.7886 20.8923C15.7453 20.8815 15.706 20.8584 15.6757 20.8257L15.3826 21.0979ZM15.692 21.2805C15.8107 21.31 15.9354 21.3043 16.0509 21.2641L15.9195 20.8863C15.8774 20.901 15.8319 20.9031 15.7886 20.8923L15.692 21.2805ZM16.0523 21.2637L17.6761 20.6858L17.542 20.3089L15.9182 20.8868L16.0523 21.2637ZM17.6768 20.6855C17.7649 20.6538 17.8588 20.6417 17.9521 20.6499L17.9873 20.2515C17.8362 20.2381 17.684 20.2578 17.5413 20.3092L17.6768 20.6855ZM17.9521 20.6499C18.0453 20.6582 18.1357 20.6866 18.2168 20.7333L18.4162 20.3865C18.2847 20.3109 18.1383 20.2648 17.9873 20.2515L17.9521 20.6499ZM18.2168 20.7333C18.298 20.7799 18.3681 20.8437 18.4221 20.9201L18.7487 20.6891C18.6611 20.5653 18.5477 20.4621 18.4162 20.3865L18.2168 20.7333ZM18.4221 20.9201C18.4762 20.9966 18.513 21.0838 18.5299 21.1759L18.9233 21.1035C18.8958 20.9544 18.8363 20.813 18.7487 20.6891L18.4221 20.9201ZM18.5298 21.1756L18.8379 22.8662L19.2314 22.7945L18.9234 21.1039L18.5298 21.1756ZM18.838 22.8669C18.8838 23.1135 19.0753 23.3106 19.3224 23.3617L19.4036 22.9701C19.3164 22.952 19.2476 22.8815 19.2313 22.7939L18.838 22.8669ZM19.3217 23.3616C20.3409 23.5768 21.3939 23.5768 22.4131 23.3616L22.3305 22.9702C21.3657 23.1739 20.3691 23.1739 19.4043 22.9702L19.3217 23.3616ZM22.4121 23.3618C22.5331 23.3369 22.6438 23.2764 22.73 23.1879L22.4437 22.9087C22.4133 22.9399 22.3742 22.9612 22.3315 22.97L22.4121 23.3618ZM22.73 23.1879C22.8163 23.0995 22.874 22.9873 22.8958 22.8657L22.5021 22.7951C22.4944 22.8379 22.4741 22.8775 22.4437 22.9087L22.73 23.1879ZM22.8957 22.8665L23.2061 21.1758L22.8127 21.1036L22.5023 22.7943L22.8957 22.8665ZM23.206 21.1766C23.2232 21.0846 23.2602 20.9974 23.3144 20.9211L22.9882 20.6895C22.9006 20.813 22.8407 20.954 22.8128 21.1029L23.206 21.1766ZM23.3144 20.9211C23.3686 20.8447 23.4387 20.781 23.5198 20.7344L23.3205 20.3876C23.1892 20.4631 23.0759 20.5661 22.9882 20.6895L23.3144 20.9211ZM23.5198 20.7344C23.601 20.6877 23.6913 20.6592 23.7845 20.6508L23.7487 20.2525C23.5978 20.266 23.4518 20.3121 23.3205 20.3876L23.5198 20.7344ZM23.7845 20.6508C23.8778 20.6425 23.9717 20.6544 24.0599 20.6858L24.1941 20.3089C24.0514 20.2581 23.8995 20.2389 23.7487 20.2525L23.7845 20.6508ZM24.0599 20.6858L25.6825 21.2636L25.8167 20.8868L24.1941 20.3089L24.0599 20.6858ZM25.6826 21.2637C25.9196 21.348 26.1845 21.2814 26.3533 21.0968L26.0581 20.8269C25.9977 20.8929 25.9019 20.9171 25.8166 20.8868L25.6826 21.2637ZM26.3538 21.0962C27.0525 20.3266 27.5804 19.4176 27.9026 18.4293L27.5223 18.3053C27.2176 19.24 26.7184 20.0995 26.0576 20.8274L26.3538 21.0962ZM27.9025 18.4298C27.9412 18.3123 27.9437 18.1859 27.9097 18.0669L27.5251 18.1768C27.5371 18.2187 27.5362 18.2633 27.5225 18.3048L27.9025 18.4298ZM27.9097 18.0669C27.8757 17.9479 27.8067 17.8419 27.7118 17.7625L27.4553 18.0694C27.4888 18.0974 27.5131 18.1348 27.5251 18.1768L27.9097 18.0669ZM27.7126 17.7632L26.3969 16.6516L26.1387 16.9572L27.4545 18.0687L27.7126 17.7632ZM26.3965 16.6513C26.3252 16.5913 26.2678 16.5164 26.2284 16.4319L25.8658 16.6007C25.9298 16.7381 26.0231 16.8599 26.139 16.9574L26.3965 16.6513ZM26.2284 16.4319C26.1891 16.3474 26.1687 16.2553 26.1687 16.162H25.7687C25.7687 16.3136 25.8018 16.4633 25.8658 16.6007L26.2284 16.4319ZM26.1687 16.162C26.1687 16.0688 26.1891 15.9767 26.2284 15.8921L25.8658 15.7233C25.8018 15.8607 25.7687 16.0104 25.7687 16.162H26.1687ZM26.2284 15.8921C26.2678 15.8076 26.3252 15.7327 26.3965 15.6727L26.139 15.3666C26.0231 15.4642 25.9298 15.5859 25.8658 15.7233L26.2284 15.8921ZM26.3969 15.6724L27.7126 14.5608L27.4545 14.2553L26.1387 15.3669L26.3969 15.6724ZM27.7118 14.5615C27.8067 14.4822 27.8757 14.3761 27.9097 14.2572L27.5251 14.1473C27.5131 14.1892 27.4888 14.2266 27.4553 14.2546L27.7118 14.5615ZM27.9097 14.2572C27.9437 14.1382 27.9412 14.0117 27.9025 13.8942L27.5225 14.0193C27.5362 14.0607 27.5371 14.1053 27.5251 14.1473L27.9097 14.2572ZM27.9026 13.8946C27.5796 12.9061 27.0509 11.9971 26.3513 11.2277L26.0553 11.4968C26.717 12.2244 27.2169 13.084 27.5224 14.0188L27.9026 13.8946ZM26.3498 11.2261C26.2666 11.1365 26.1591 11.0731 26.0404 11.0436L25.9439 11.4317C25.9872 11.4425 26.0264 11.4657 26.0568 11.4983L26.3498 11.2261ZM26.0404 11.0436C25.9217 11.014 25.797 11.0197 25.6815 11.0599L25.8129 11.4377C25.8551 11.423 25.9006 11.421 25.9439 11.4317L26.0404 11.0436ZM25.6801 11.0604L24.0563 11.6383L24.1905 12.0151L25.8143 11.4372L25.6801 11.0604ZM24.0602 11.6369C24.024 11.649 23.9872 11.6589 23.9499 11.6667L24.0319 12.0583C24.0842 12.0473 24.1359 12.0333 24.1866 12.0164L24.0602 11.6369ZM16.0197 12.7435L17.1385 13.1411L17.2725 12.7641L16.1537 12.3666L16.0197 12.7435ZM17.1384 13.141C17.444 13.2498 17.7697 13.291 18.0928 13.2617L18.0566 12.8633C17.7912 12.8874 17.5237 12.8536 17.2726 12.7642L17.1384 13.141ZM18.0928 13.2617C18.4159 13.2324 18.7288 13.1333 19.0098 12.9712L18.8101 12.6247C18.5792 12.7578 18.3221 12.8392 18.0566 12.8633L18.0928 13.2617ZM19.0098 12.9712C19.2909 12.8092 19.5335 12.5881 19.7208 12.3232L19.3941 12.0923C19.2403 12.3099 19.041 12.4916 18.8101 12.6247L19.0098 12.9712ZM19.7208 12.3232C19.908 12.0582 20.0356 11.7558 20.0946 11.4368L19.7012 11.3641C19.6528 11.6262 19.548 11.8746 19.3941 12.0923L19.7208 12.3232ZM20.0947 11.4363L20.306 10.2782L19.9125 10.2064L19.7012 11.3645L20.0947 11.4363ZM20.1345 10.4407C20.6192 10.3789 21.1097 10.3789 21.5943 10.4407L21.6449 10.0439C21.1267 9.97779 20.6022 9.97779 20.0839 10.0439L20.1345 10.4407ZM21.4229 10.2784L21.6354 11.4365L22.0289 11.3643L21.8163 10.2062L21.4229 10.2784ZM21.6354 11.4365C21.694 11.7558 21.8213 12.0585 22.0085 12.3237L22.3353 12.093C22.1816 11.8752 22.077 11.6266 22.0289 11.3643L21.6354 11.4365ZM22.0085 12.3237C22.1957 12.5889 22.4383 12.8102 22.7196 12.9724L22.9193 12.6258C22.6883 12.4927 22.4891 12.3109 22.3353 12.093L22.0085 12.3237ZM22.7196 12.9724C23.0008 13.1345 23.3139 13.2335 23.6372 13.2626L23.6731 12.8642C23.4075 12.8403 23.1503 12.759 22.9193 12.6258L22.7196 12.9724ZM23.6372 13.2626C23.9605 13.2917 24.2863 13.2502 24.5919 13.1409L24.4572 12.7643C24.2062 12.854 23.9386 12.8882 23.6731 12.8642L23.6372 13.2626ZM24.592 13.1409L25.7095 12.7409L25.5747 12.3643L24.4572 12.7643L24.592 13.1409ZM25.4832 12.674C25.7787 13.0611 26.0209 13.4779 26.2102 13.9249L26.5785 13.7689C26.3761 13.2909 26.1169 12.8449 25.8011 12.4313L25.4832 12.674ZM26.2653 13.6941L25.365 14.4547L25.6232 14.7602L26.5234 13.9997L26.2653 13.6941ZM25.3651 14.4546C25.1166 14.6644 24.9169 14.9258 24.78 15.2207L25.1428 15.3892C25.2552 15.1471 25.4191 14.9325 25.6231 14.7603L25.3651 14.4546ZM24.78 15.2207C24.643 15.5156 24.5721 15.8369 24.5721 16.162H24.9721C24.9721 15.8951 25.0303 15.6313 25.1428 15.3892L24.78 15.2207ZM24.5721 16.162C24.5721 16.4872 24.643 16.8084 24.78 17.1033L25.1428 16.9348C25.0303 16.6927 24.9721 16.429 24.9721 16.162H24.5721ZM24.78 17.1033C24.9169 17.3982 25.1166 17.6596 25.3651 17.8694L25.6231 17.5638C25.4191 17.3915 25.2552 17.1769 25.1428 16.9348L24.78 17.1033ZM25.3651 17.8694L26.2666 18.63L26.5245 18.3243L25.6231 17.5637L25.3651 17.8694ZM26.2114 18.3991C26.0225 18.8449 25.7782 19.2652 25.4844 19.65L25.8023 19.8928C26.1165 19.4813 26.3777 19.0319 26.5797 18.5552L26.2114 18.3991ZM25.7105 19.583L24.5917 19.1842L24.4574 19.561L25.5762 19.9598L25.7105 19.583ZM24.5916 19.1842C24.286 19.0754 23.9604 19.0342 23.6373 19.0635L23.6734 19.4619C23.9389 19.4378 24.2064 19.4716 24.4575 19.561L24.5916 19.1842ZM23.6373 19.0635C23.3142 19.0929 23.0013 19.1919 22.7202 19.354L22.92 19.7005C23.1509 19.5674 23.408 19.486 23.6734 19.4619L23.6373 19.0635ZM22.7202 19.354C22.4391 19.516 22.1966 19.7371 22.0093 20.0021L22.3359 20.233C22.4898 20.0153 22.6891 19.8336 22.92 19.7005L22.7202 19.354ZM22.0093 20.0021C21.822 20.267 21.6945 20.5694 21.6355 20.8884L22.0288 20.9612C22.0773 20.6991 22.1821 20.4506 22.3359 20.233L22.0093 20.0021ZM21.6354 20.8887L21.4229 22.0469L21.8163 22.1191L22.0289 20.9609L21.6354 20.8887ZM21.5943 21.8846C21.1097 21.9464 20.6192 21.9464 20.1345 21.8846L20.0839 22.2814C20.6022 22.3474 21.1267 22.3474 21.6449 22.2814L21.5943 21.8846ZM20.306 22.0471L20.0947 20.8889L19.7012 20.9607L19.9125 22.1189L20.306 22.0471ZM20.0946 20.8887C20.036 20.5694 19.9087 20.2667 19.7215 20.0015L19.3947 20.2322C19.5485 20.45 19.6531 20.6987 19.7012 20.9609L20.0946 20.8887ZM19.7215 20.0015C19.5343 19.7363 19.2917 19.515 19.0105 19.3529L18.8107 19.6994C19.0417 19.8326 19.241 20.0144 19.3947 20.2322L19.7215 20.0015ZM19.0105 19.3529C18.7293 19.1907 18.4162 19.0917 18.0929 19.0626L18.057 19.461C18.3225 19.4849 18.5797 19.5662 18.8107 19.6994L19.0105 19.3529ZM18.0929 19.0626C17.7696 19.0335 17.4438 19.075 17.1381 19.1843L17.2728 19.5609C17.5239 19.4712 17.7914 19.4371 18.057 19.461L18.0929 19.0626ZM17.1381 19.1843L16.023 19.5831L16.1576 19.9597L17.2728 19.5609L17.1381 19.1843ZM16.2493 19.65C15.9554 19.2652 15.7111 18.8449 15.5223 18.3991L15.1539 18.5552C15.3559 19.0319 15.6171 19.4813 15.9314 19.8928L16.2493 19.65ZM15.4673 18.6298L16.3675 17.8681L16.1092 17.5627L15.2089 18.3245L15.4673 18.6298ZM16.3675 17.8681C16.6157 17.6584 16.8151 17.397 16.952 17.1022L16.5891 16.9338C16.4768 17.1758 16.313 17.3904 16.1093 17.5626L16.3675 17.8681ZM16.952 17.1022C17.0888 16.8075 17.1597 16.4864 17.1597 16.1614H16.7597C16.7597 16.4282 16.7015 16.6918 16.5891 16.9338L16.952 17.1022ZM17.1597 16.1614C17.1597 15.8364 17.0888 15.5154 16.952 15.2206L16.5891 15.389C16.7015 15.631 16.7597 15.8946 16.7597 16.1614H17.1597ZM16.952 15.2206C16.8151 14.9258 16.6157 14.6645 16.3675 14.4547L16.1093 14.7602C16.313 14.9324 16.4768 15.147 16.5891 15.389L16.952 15.2206ZM16.3673 14.4546L15.4659 13.694L15.2079 13.9998L16.1094 14.7603L16.3673 14.4546ZM15.5208 13.9254C15.7118 13.478 15.9543 13.0609 16.2484 12.6736L15.9298 12.4317C15.6158 12.8451 15.3568 13.2908 15.153 13.7684L15.5208 13.9254Z" fill="black" mask="url(#path-5-outside-1_2_10809)"/>
</svg>
