<svg width="17" height="20" viewBox="0 0 17 20" fill="none" xmlns="http://www.w3.org/2000/svg">
<path d="M15.222 1.7767C12.8531 -0.592233 8.99542 -0.592233 6.62901 1.7767L0.0654079 8.33527C0.0226565 8.37802 2.32489e-05 8.43586 2.32489e-05 8.49621C2.32489e-05 8.55657 0.0226565 8.61441 0.0654079 8.65716L0.993365 9.58512C1.03578 9.62735 1.0932 9.65106 1.15305 9.65106C1.21291 9.65106 1.27033 9.62735 1.31274 9.58512L7.87634 3.02655C8.69113 2.21176 9.77501 1.76412 10.9268 1.76412C12.0786 1.76412 13.1624 2.21176 13.9747 3.02655C14.7895 3.84134 15.2371 4.92521 15.2371 6.07447C15.2371 7.22624 14.7895 8.3076 13.9747 9.12239L7.28537 15.8092L6.20149 16.8931C5.18803 17.9065 3.54085 17.9065 2.52739 16.8931C2.037 16.4027 1.76792 15.7514 1.76792 15.0573C1.76792 14.3632 2.037 13.7119 2.52739 13.2215L9.16391 6.58749C9.3324 6.42151 9.5537 6.32846 9.79009 6.32846H9.79261C10.029 6.32846 10.2478 6.42151 10.4138 6.58749C10.5823 6.75598 10.6728 6.97728 10.6728 7.21367C10.6728 7.44755 10.5797 7.66885 10.4138 7.83482L4.98936 13.2542C4.94661 13.2969 4.92398 13.3548 4.92398 13.4151C4.92398 13.4755 4.94661 13.5333 4.98936 13.5761L5.91732 14.504C5.95974 14.5463 6.01715 14.57 6.07701 14.57C6.13686 14.57 6.19428 14.5463 6.2367 14.504L11.6586 9.08216C12.159 8.58171 12.4331 7.91781 12.4331 7.21116C12.4331 6.5045 12.1565 5.83808 11.6586 5.34015C10.625 4.30657 8.94513 4.30909 7.91155 5.34015L7.26776 5.98645L1.27754 11.9742C0.870972 12.3783 0.548696 12.8592 0.329399 13.3889C0.110101 13.9186 -0.00185509 14.4865 2.32489e-05 15.0598C2.32489e-05 16.2242 0.4552 17.3181 1.27754 18.1404C2.13005 18.9904 3.24662 19.4154 4.36318 19.4154C5.47975 19.4154 6.59631 18.9904 7.44631 18.1404L15.222 10.3697C16.3663 9.22299 17 7.69651 17 6.07447C17.0025 4.44992 16.3688 2.92344 15.222 1.7767Z" fill="black"/>
</svg>
