<svg width="21" height="20" viewBox="0 0 21 20" fill="none" xmlns="http://www.w3.org/2000/svg">
<path d="M4 3L11 0.5L18 5.5L19 12L17 16.5L18.5 19L11 19.5L4.5 17L1 11.5L2 6L4 3Z" fill="#C5D9F7"/>
<path d="M19.85 10L19.85 10.0006C19.8586 12.2747 19.0712 14.4801 17.6243 16.2346L17.5376 16.3397L17.6339 16.4361L19.6332 18.4354C19.6334 18.4355 19.6335 18.4356 19.6336 18.4358C19.7514 18.5552 19.8311 18.7069 19.8628 18.8716C19.8944 19.0356 19.877 19.2053 19.8127 19.3594C19.7421 19.5114 19.628 19.639 19.485 19.7264C19.3412 19.8141 19.1746 19.8572 19.0063 19.8501L19.0063 19.85H19H10C7.38762 19.85 4.88223 18.8122 3.035 16.965C1.18776 15.1178 0.15 12.6124 0.15 10C0.15 7.38762 1.18776 4.88223 3.035 3.035C4.88223 1.18776 7.38762 0.15 10 0.15C11.2935 0.15 12.5744 0.404778 13.7694 0.899787C14.9645 1.3948 16.0503 2.12034 16.965 3.035C18.8122 4.88223 19.85 7.38762 19.85 10ZM9.99988 18.15H10H16.59H16.9521L16.6961 17.8939L15.7664 16.9643C15.7663 16.9642 15.7663 16.9641 15.7662 16.9641C15.608 16.8049 15.5192 16.5895 15.5192 16.365C15.5192 16.1405 15.608 15.9251 15.7663 15.7658C17.1001 14.4334 17.9307 12.6797 18.1166 10.8036C18.3025 8.92731 17.8321 7.04461 16.7855 5.47626C15.739 3.90791 14.181 2.75094 12.3771 2.20246C10.5732 1.65398 8.6349 1.74793 6.89247 2.46829C5.15005 3.18866 3.71129 4.49088 2.82132 6.15309C1.93136 7.8153 1.64525 9.73466 2.01173 11.5842C2.37822 13.4337 3.37464 15.0989 4.83122 16.2961C6.28779 17.4934 8.11442 18.1485 9.99988 18.15Z" fill="#1E1E1E" stroke="white" stroke-width="0.3"/>
</svg>
