<svg width="278" height="58" viewBox="0 0 278 58" fill="none" xmlns="http://www.w3.org/2000/svg">
<rect x="4.75" y="4.75" width="272.5" height="52.5" rx="13.25" fill="#FFA86B" stroke="#1E1E1E" stroke-width="1.5"/>
<rect x="0.75" y="0.75" width="272.5" height="52.5" rx="11.25" fill="white" stroke="#1E1E1E" stroke-width="1.5"/>
<path d="M23.682 32C23.5887 32 23.5093 31.972 23.444 31.916C23.388 31.8507 23.36 31.7713 23.36 31.678V23.446H20.672C20.5787 23.446 20.4993 23.418 20.434 23.362C20.378 23.2967 20.35 23.2173 20.35 23.124V22.536C20.35 22.4333 20.378 22.354 20.434 22.298C20.4993 22.2327 20.5787 22.2 20.672 22.2H27.42C27.5227 22.2 27.602 22.2327 27.658 22.298C27.7233 22.354 27.756 22.4333 27.756 22.536V23.124C27.756 23.2173 27.7233 23.2967 27.658 23.362C27.602 23.418 27.5227 23.446 27.42 23.446H24.746V31.678C24.746 31.7713 24.7133 31.8507 24.648 31.916C24.592 31.972 24.5127 32 24.41 32H23.682ZM29.2827 34.66C29.208 34.66 29.1427 34.632 29.0867 34.576C29.0307 34.52 29.0027 34.4547 29.0027 34.38C29.0027 34.3427 29.0073 34.3053 29.0167 34.268C29.026 34.2307 29.0447 34.184 29.0727 34.128L30.1507 31.566L27.4767 25.252C27.43 25.14 27.4067 25.0607 27.4067 25.014C27.4067 24.93 27.4347 24.86 27.4907 24.804C27.5467 24.748 27.6167 24.72 27.7007 24.72H28.3867C28.48 24.72 28.5547 24.7433 28.6107 24.79C28.6667 24.8367 28.704 24.8927 28.7227 24.958L30.8507 30.054L33.0347 24.958C33.0627 24.8927 33.1 24.8367 33.1467 24.79C33.2027 24.7433 33.282 24.72 33.3847 24.72H34.0427C34.1267 24.72 34.1967 24.748 34.2527 24.804C34.3087 24.86 34.3367 24.9253 34.3367 25C34.3367 25.0467 34.3133 25.1307 34.2667 25.252L30.2907 34.422C30.2627 34.4873 30.2207 34.5433 30.1647 34.59C30.118 34.6367 30.0433 34.66 29.9407 34.66H29.2827ZM36.0556 34.66C35.9623 34.66 35.8829 34.6273 35.8176 34.562C35.7616 34.506 35.7336 34.4313 35.7336 34.338V25.042C35.7336 24.9487 35.7616 24.874 35.8176 24.818C35.8829 24.7527 35.9623 24.72 36.0556 24.72H36.6996C36.7929 24.72 36.8676 24.7527 36.9236 24.818C36.9889 24.874 37.0216 24.9487 37.0216 25.042V25.658C37.2456 25.35 37.5443 25.0933 37.9176 24.888C38.2909 24.6827 38.7576 24.58 39.3176 24.58C39.8403 24.58 40.2836 24.6687 40.6476 24.846C41.0209 25.0233 41.3243 25.266 41.5576 25.574C41.8003 25.882 41.9823 26.232 42.1036 26.624C42.2249 27.016 42.2903 27.436 42.2996 27.884C42.3089 28.0333 42.3136 28.192 42.3136 28.36C42.3136 28.528 42.3089 28.6867 42.2996 28.836C42.2903 29.2747 42.2249 29.6947 42.1036 30.096C41.9823 30.488 41.8003 30.838 41.5576 31.146C41.3243 31.4447 41.0209 31.6873 40.6476 31.874C40.2836 32.0513 39.8403 32.14 39.3176 32.14C38.7763 32.14 38.3189 32.042 37.9456 31.846C37.5816 31.6407 37.2829 31.3887 37.0496 31.09V34.338C37.0496 34.4313 37.0216 34.506 36.9656 34.562C36.9096 34.6273 36.8303 34.66 36.7276 34.66H36.0556ZM39.0236 31.006C39.5089 31.006 39.8869 30.9033 40.1576 30.698C40.4376 30.4833 40.6383 30.208 40.7596 29.872C40.8809 29.5267 40.9509 29.158 40.9696 28.766C40.9789 28.4953 40.9789 28.2247 40.9696 27.954C40.9509 27.562 40.8809 27.198 40.7596 26.862C40.6383 26.5167 40.4376 26.2413 40.1576 26.036C39.8869 25.8213 39.5089 25.714 39.0236 25.714C38.5663 25.714 38.1929 25.8213 37.9036 26.036C37.6236 26.2507 37.4136 26.526 37.2736 26.862C37.1429 27.1887 37.0683 27.5247 37.0496 27.87C37.0403 28.0193 37.0356 28.1967 37.0356 28.402C37.0356 28.6073 37.0403 28.7893 37.0496 28.948C37.0589 29.2747 37.1336 29.5967 37.2736 29.914C37.4229 30.2313 37.6423 30.4927 37.9316 30.698C38.2209 30.9033 38.5849 31.006 39.0236 31.006ZM46.9574 32.14C45.9961 32.14 45.2308 31.846 44.6614 31.258C44.0921 30.6607 43.7794 29.8487 43.7234 28.822C43.7141 28.7007 43.7094 28.5467 43.7094 28.36C43.7094 28.164 43.7141 28.0053 43.7234 27.884C43.7608 27.2213 43.9148 26.6427 44.1854 26.148C44.4561 25.644 44.8248 25.2567 45.2914 24.986C45.7674 24.7153 46.3228 24.58 46.9574 24.58C47.6668 24.58 48.2594 24.7293 48.7354 25.028C49.2208 25.3267 49.5894 25.7513 49.8414 26.302C50.0934 26.8527 50.2194 27.4967 50.2194 28.234V28.472C50.2194 28.5747 50.1868 28.654 50.1214 28.71C50.0654 28.766 49.9908 28.794 49.8974 28.794H45.0534C45.0534 28.8033 45.0534 28.822 45.0534 28.85C45.0534 28.878 45.0534 28.9013 45.0534 28.92C45.0721 29.3027 45.1561 29.662 45.3054 29.998C45.4548 30.3247 45.6694 30.5907 45.9494 30.796C46.2294 31.0013 46.5654 31.104 46.9574 31.104C47.2934 31.104 47.5734 31.0527 47.7974 30.95C48.0214 30.8473 48.2034 30.7353 48.3434 30.614C48.4834 30.4833 48.5768 30.3853 48.6234 30.32C48.7074 30.1987 48.7728 30.1287 48.8194 30.11C48.8661 30.082 48.9408 30.068 49.0434 30.068H49.7154C49.8088 30.068 49.8834 30.096 49.9394 30.152C50.0048 30.1987 50.0328 30.2687 50.0234 30.362C50.0141 30.502 49.9394 30.6747 49.7994 30.88C49.6594 31.076 49.4588 31.272 49.1974 31.468C48.9361 31.664 48.6188 31.8273 48.2454 31.958C47.8721 32.0793 47.4428 32.14 46.9574 32.14ZM45.0534 27.828H48.8894V27.786C48.8894 27.366 48.8101 26.9927 48.6514 26.666C48.5021 26.3393 48.2828 26.0827 47.9934 25.896C47.7041 25.7 47.3588 25.602 46.9574 25.602C46.5561 25.602 46.2108 25.7 45.9214 25.896C45.6414 26.0827 45.4268 26.3393 45.2774 26.666C45.1281 26.9927 45.0534 27.366 45.0534 27.786V27.828ZM58.6571 32.14C57.8451 32.14 57.1637 32.0187 56.6131 31.776C56.0624 31.524 55.6377 31.202 55.3391 30.81C55.0497 30.4087 54.8957 29.984 54.8771 29.536C54.8771 29.4613 54.9051 29.396 54.9611 29.34C55.0264 29.2747 55.1011 29.242 55.1851 29.242H55.8991C56.0111 29.242 56.0951 29.27 56.1511 29.326C56.2071 29.382 56.2444 29.4473 56.2631 29.522C56.3097 29.746 56.4217 29.97 56.5991 30.194C56.7857 30.4087 57.0424 30.5907 57.3691 30.74C57.7051 30.88 58.1344 30.95 58.6571 30.95C59.4597 30.95 60.0477 30.81 60.4211 30.53C60.8037 30.2407 60.9951 29.858 60.9951 29.382C60.9951 29.0553 60.8924 28.794 60.6871 28.598C60.4911 28.3927 60.1877 28.2107 59.7771 28.052C59.3664 27.8933 58.8344 27.7207 58.1811 27.534C57.4997 27.338 56.9351 27.1233 56.4871 26.89C56.0391 26.6567 55.7031 26.3673 55.4791 26.022C55.2644 25.6767 55.1571 25.238 55.1571 24.706C55.1571 24.202 55.2924 23.754 55.5631 23.362C55.8337 22.9607 56.2211 22.6433 56.7251 22.41C57.2384 22.1767 57.8591 22.06 58.5871 22.06C59.1657 22.06 59.6697 22.1393 60.0991 22.298C60.5377 22.4473 60.9017 22.6527 61.1911 22.914C61.4804 23.166 61.6997 23.4413 61.8491 23.74C61.9984 24.0293 62.0777 24.314 62.0871 24.594C62.0871 24.6593 62.0637 24.7247 62.0171 24.79C61.9704 24.846 61.8957 24.874 61.7931 24.874H61.0511C60.9857 24.874 60.9157 24.8553 60.8411 24.818C60.7757 24.7807 60.7244 24.7107 60.6871 24.608C60.6311 24.2253 60.4164 23.9033 60.0431 23.642C59.6697 23.3807 59.1844 23.25 58.5871 23.25C57.9804 23.25 57.4857 23.3667 57.1031 23.6C56.7297 23.8333 56.5431 24.1973 56.5431 24.692C56.5431 25.0093 56.6317 25.2753 56.8091 25.49C56.9864 25.6953 57.2664 25.8773 57.6491 26.036C58.0317 26.1947 58.5311 26.3627 59.1471 26.54C59.8937 26.7453 60.5051 26.9647 60.9811 27.198C61.4571 27.422 61.8071 27.7067 62.0311 28.052C62.2644 28.388 62.3811 28.822 62.3811 29.354C62.3811 29.942 62.2271 30.446 61.9191 30.866C61.6111 31.2767 61.1771 31.594 60.6171 31.818C60.0664 32.0327 59.4131 32.14 58.6571 32.14ZM67.016 32.14C66.3067 32.14 65.714 32.0047 65.238 31.734C64.762 31.4633 64.398 31.09 64.146 30.614C63.894 30.1287 63.754 29.578 63.726 28.962C63.7167 28.8033 63.712 28.6027 63.712 28.36C63.712 28.108 63.7167 27.9073 63.726 27.758C63.754 27.1327 63.894 26.582 64.146 26.106C64.4074 25.63 64.776 25.2567 65.252 24.986C65.728 24.7153 66.316 24.58 67.016 24.58C67.716 24.58 68.304 24.7153 68.78 24.986C69.256 25.2567 69.62 25.63 69.872 26.106C70.1334 26.582 70.278 27.1327 70.306 27.758C70.3154 27.9073 70.32 28.108 70.32 28.36C70.32 28.6027 70.3154 28.8033 70.306 28.962C70.278 29.578 70.138 30.1287 69.886 30.614C69.634 31.09 69.27 31.4633 68.794 31.734C68.318 32.0047 67.7254 32.14 67.016 32.14ZM67.016 31.062C67.5947 31.062 68.0567 30.88 68.402 30.516C68.7474 30.1427 68.934 29.6013 68.962 28.892C68.9714 28.752 68.976 28.5747 68.976 28.36C68.976 28.1453 68.9714 27.968 68.962 27.828C68.934 27.1187 68.7474 26.582 68.402 26.218C68.0567 25.8447 67.5947 25.658 67.016 25.658C66.4374 25.658 65.9707 25.8447 65.616 26.218C65.2707 26.582 65.0887 27.1187 65.07 27.828C65.0607 27.968 65.056 28.1453 65.056 28.36C65.056 28.5747 65.0607 28.752 65.07 28.892C65.0887 29.6013 65.2707 30.1427 65.616 30.516C65.9707 30.88 66.4374 31.062 67.016 31.062ZM72.3951 32C72.3018 32 72.2224 31.972 72.1571 31.916C72.1011 31.8507 72.0731 31.7713 72.0731 31.678V25.042C72.0731 24.9487 72.1011 24.874 72.1571 24.818C72.2224 24.7527 72.3018 24.72 72.3951 24.72H73.0251C73.1184 24.72 73.1931 24.7527 73.2491 24.818C73.3144 24.874 73.3471 24.9487 73.3471 25.042V25.532C73.5618 25.2427 73.8324 25.014 74.1591 24.846C74.4858 24.6687 74.8778 24.58 75.3351 24.58C76.3898 24.5707 77.1364 25 77.5751 25.868C77.7898 25.476 78.1024 25.1633 78.5131 24.93C78.9238 24.6967 79.3904 24.58 79.9131 24.58C80.3984 24.58 80.8371 24.692 81.2291 24.916C81.6304 25.14 81.9431 25.4807 82.1671 25.938C82.4004 26.386 82.5171 26.9507 82.5171 27.632V31.678C82.5171 31.7713 82.4844 31.8507 82.4191 31.916C82.3631 31.972 82.2884 32 82.1951 32H81.5371C81.4438 32 81.3644 31.972 81.2991 31.916C81.2431 31.8507 81.2151 31.7713 81.2151 31.678V27.758C81.2151 27.2353 81.1404 26.8247 80.9911 26.526C80.8418 26.2273 80.6411 26.0173 80.3891 25.896C80.1371 25.7747 79.8618 25.714 79.5631 25.714C79.3204 25.714 79.0731 25.7747 78.8211 25.896C78.5691 26.0173 78.3591 26.2273 78.1911 26.526C78.0324 26.8247 77.9531 27.2353 77.9531 27.758V31.678C77.9531 31.7713 77.9204 31.8507 77.8551 31.916C77.7991 31.972 77.7244 32 77.6311 32H76.9731C76.8798 32 76.8004 31.972 76.7351 31.916C76.6791 31.8507 76.6511 31.7713 76.6511 31.678V27.758C76.6511 27.2353 76.5718 26.8247 76.4131 26.526C76.2544 26.2273 76.0491 26.0173 75.7971 25.896C75.5451 25.7747 75.2791 25.714 74.9991 25.714C74.7564 25.714 74.5091 25.7747 74.2571 25.896C74.0051 26.0173 73.7951 26.2273 73.6271 26.526C73.4684 26.8247 73.3891 27.2307 73.3891 27.744V31.678C73.3891 31.7713 73.3564 31.8507 73.2911 31.916C73.2351 31.972 73.1604 32 73.0671 32H72.3951ZM87.4125 32.14C86.4512 32.14 85.6858 31.846 85.1165 31.258C84.5472 30.6607 84.2345 29.8487 84.1785 28.822C84.1692 28.7007 84.1645 28.5467 84.1645 28.36C84.1645 28.164 84.1692 28.0053 84.1785 27.884C84.2158 27.2213 84.3698 26.6427 84.6405 26.148C84.9112 25.644 85.2798 25.2567 85.7465 24.986C86.2225 24.7153 86.7778 24.58 87.4125 24.58C88.1218 24.58 88.7145 24.7293 89.1905 25.028C89.6758 25.3267 90.0445 25.7513 90.2965 26.302C90.5485 26.8527 90.6745 27.4967 90.6745 28.234V28.472C90.6745 28.5747 90.6418 28.654 90.5765 28.71C90.5205 28.766 90.4458 28.794 90.3525 28.794H85.5085C85.5085 28.8033 85.5085 28.822 85.5085 28.85C85.5085 28.878 85.5085 28.9013 85.5085 28.92C85.5272 29.3027 85.6112 29.662 85.7605 29.998C85.9098 30.3247 86.1245 30.5907 86.4045 30.796C86.6845 31.0013 87.0205 31.104 87.4125 31.104C87.7485 31.104 88.0285 31.0527 88.2525 30.95C88.4765 30.8473 88.6585 30.7353 88.7985 30.614C88.9385 30.4833 89.0318 30.3853 89.0785 30.32C89.1625 30.1987 89.2278 30.1287 89.2745 30.11C89.3212 30.082 89.3958 30.068 89.4985 30.068H90.1705C90.2638 30.068 90.3385 30.096 90.3945 30.152C90.4598 30.1987 90.4878 30.2687 90.4785 30.362C90.4692 30.502 90.3945 30.6747 90.2545 30.88C90.1145 31.076 89.9138 31.272 89.6525 31.468C89.3912 31.664 89.0738 31.8273 88.7005 31.958C88.3272 32.0793 87.8978 32.14 87.4125 32.14ZM85.5085 27.828H89.3445V27.786C89.3445 27.366 89.2652 26.9927 89.1065 26.666C88.9572 26.3393 88.7378 26.0827 88.4485 25.896C88.1592 25.7 87.8138 25.602 87.4125 25.602C87.0112 25.602 86.6658 25.7 86.3765 25.896C86.0965 26.0827 85.8818 26.3393 85.7325 26.666C85.5832 26.9927 85.5085 27.366 85.5085 27.786V27.828ZM95.1495 32C94.6268 32 94.2022 31.902 93.8755 31.706C93.5488 31.5007 93.3108 31.216 93.1615 30.852C93.0122 30.4787 92.9375 30.04 92.9375 29.536V25.84H91.8455C91.7522 25.84 91.6728 25.812 91.6075 25.756C91.5515 25.6907 91.5235 25.6113 91.5235 25.518V25.042C91.5235 24.9487 91.5515 24.874 91.6075 24.818C91.6728 24.7527 91.7522 24.72 91.8455 24.72H92.9375V22.382C92.9375 22.2887 92.9655 22.214 93.0215 22.158C93.0868 22.0927 93.1662 22.06 93.2595 22.06H93.9175C94.0108 22.06 94.0855 22.0927 94.1415 22.158C94.2068 22.214 94.2395 22.2887 94.2395 22.382V24.72H95.9755C96.0688 24.72 96.1435 24.7527 96.1995 24.818C96.2648 24.874 96.2975 24.9487 96.2975 25.042V25.518C96.2975 25.6113 96.2648 25.6907 96.1995 25.756C96.1435 25.812 96.0688 25.84 95.9755 25.84H94.2395V29.438C94.2395 29.8767 94.3142 30.222 94.4635 30.474C94.6128 30.726 94.8788 30.852 95.2615 30.852H96.1155C96.2088 30.852 96.2835 30.8847 96.3395 30.95C96.4048 31.006 96.4375 31.0807 96.4375 31.174V31.678C96.4375 31.7713 96.4048 31.8507 96.3395 31.916C96.2835 31.972 96.2088 32 96.1155 32H95.1495ZM98.1122 32C98.0189 32 97.9396 31.972 97.8742 31.916C97.8182 31.8507 97.7902 31.7713 97.7902 31.678V22.382C97.7902 22.2887 97.8182 22.214 97.8742 22.158C97.9396 22.0927 98.0189 22.06 98.1122 22.06H98.8122C98.9149 22.06 98.9942 22.0927 99.0502 22.158C99.1062 22.214 99.1342 22.2887 99.1342 22.382V25.644C99.3862 25.3267 99.6942 25.07 100.058 24.874C100.422 24.678 100.884 24.58 101.444 24.58C102.051 24.58 102.564 24.7153 102.984 24.986C103.414 25.2473 103.736 25.616 103.95 26.092C104.174 26.5587 104.286 27.1047 104.286 27.73V31.678C104.286 31.7713 104.258 31.8507 104.202 31.916C104.146 31.972 104.067 32 103.964 32H103.264C103.171 32 103.092 31.972 103.026 31.916C102.97 31.8507 102.942 31.7713 102.942 31.678V27.8C102.942 27.1467 102.784 26.638 102.466 26.274C102.149 25.9007 101.682 25.714 101.066 25.714C100.488 25.714 100.021 25.9007 99.6662 26.274C99.3116 26.638 99.1342 27.1467 99.1342 27.8V31.678C99.1342 31.7713 99.1062 31.8507 99.0502 31.916C98.9942 31.972 98.9149 32 98.8122 32H98.1122ZM106.629 32C106.536 32 106.457 31.972 106.391 31.916C106.335 31.8507 106.307 31.7713 106.307 31.678V25.042C106.307 24.9487 106.335 24.874 106.391 24.818C106.457 24.7527 106.536 24.72 106.629 24.72H107.301C107.395 24.72 107.469 24.7527 107.525 24.818C107.581 24.874 107.609 24.9487 107.609 25.042V31.678C107.609 31.7713 107.581 31.8507 107.525 31.916C107.469 31.972 107.395 32 107.301 32H106.629ZM106.517 23.362C106.424 23.362 106.345 23.334 106.279 23.278C106.223 23.2127 106.195 23.1333 106.195 23.04V22.284C106.195 22.1907 106.223 22.116 106.279 22.06C106.345 21.9947 106.424 21.962 106.517 21.962H107.399C107.493 21.962 107.567 21.9947 107.623 22.06C107.689 22.116 107.721 22.1907 107.721 22.284V23.04C107.721 23.1333 107.689 23.2127 107.623 23.278C107.567 23.334 107.493 23.362 107.399 23.362H106.517ZM110.157 32C110.063 32 109.984 31.972 109.919 31.916C109.863 31.8507 109.835 31.7713 109.835 31.678V25.042C109.835 24.9487 109.863 24.874 109.919 24.818C109.984 24.7527 110.063 24.72 110.157 24.72H110.815C110.908 24.72 110.983 24.7527 111.039 24.818C111.104 24.874 111.137 24.9487 111.137 25.042V25.658C111.379 25.3407 111.683 25.084 112.047 24.888C112.42 24.6827 112.896 24.58 113.475 24.58C114.081 24.58 114.595 24.7153 115.015 24.986C115.444 25.2473 115.766 25.616 115.981 26.092C116.195 26.5587 116.303 27.1047 116.303 27.73V31.678C116.303 31.7713 116.275 31.8507 116.219 31.916C116.163 31.972 116.088 32 115.995 32H115.295C115.201 32 115.122 31.972 115.057 31.916C115.001 31.8507 114.973 31.7713 114.973 31.678V27.8C114.973 27.1467 114.814 26.638 114.497 26.274C114.179 25.9007 113.713 25.714 113.097 25.714C112.518 25.714 112.051 25.9007 111.697 26.274C111.351 26.638 111.179 27.1467 111.179 27.8V31.678C111.179 31.7713 111.146 31.8507 111.081 31.916C111.025 31.972 110.95 32 110.857 32H110.157ZM121.307 35.08C120.672 35.08 120.15 34.996 119.739 34.828C119.338 34.66 119.02 34.4547 118.787 34.212C118.563 33.9787 118.4 33.7407 118.297 33.498C118.204 33.2647 118.152 33.078 118.143 32.938C118.134 32.8447 118.162 32.7653 118.227 32.7C118.302 32.6347 118.381 32.602 118.465 32.602H119.137C119.221 32.602 119.291 32.6207 119.347 32.658C119.403 32.6953 119.45 32.7747 119.487 32.896C119.543 33.036 119.627 33.19 119.739 33.358C119.851 33.5353 120.024 33.6847 120.257 33.806C120.49 33.9367 120.817 34.002 121.237 34.002C121.676 34.002 122.044 33.9413 122.343 33.82C122.642 33.708 122.866 33.5027 123.015 33.204C123.174 32.9147 123.253 32.5133 123.253 32V31.048C123.029 31.3373 122.735 31.58 122.371 31.776C122.007 31.9627 121.55 32.056 120.999 32.056C120.476 32.056 120.028 31.9673 119.655 31.79C119.282 31.6033 118.974 31.356 118.731 31.048C118.498 30.7307 118.32 30.3713 118.199 29.97C118.087 29.5687 118.022 29.1487 118.003 28.71C117.994 28.4487 117.994 28.192 118.003 27.94C118.022 27.5013 118.087 27.0813 118.199 26.68C118.32 26.2787 118.498 25.9193 118.731 25.602C118.974 25.2847 119.282 25.0373 119.655 24.86C120.028 24.6733 120.476 24.58 120.999 24.58C121.559 24.58 122.021 24.6873 122.385 24.902C122.758 25.1073 123.062 25.3593 123.295 25.658V25.056C123.295 24.9627 123.323 24.8833 123.379 24.818C123.444 24.7527 123.524 24.72 123.617 24.72H124.261C124.354 24.72 124.434 24.7527 124.499 24.818C124.564 24.8833 124.597 24.9627 124.597 25.056V31.846C124.597 32.4713 124.49 33.0267 124.275 33.512C124.07 33.9973 123.724 34.38 123.239 34.66C122.763 34.94 122.119 35.08 121.307 35.08ZM121.279 30.936C121.746 30.936 122.119 30.8287 122.399 30.614C122.688 30.3993 122.898 30.1287 123.029 29.802C123.169 29.4753 123.244 29.144 123.253 28.808C123.262 28.6773 123.267 28.5187 123.267 28.332C123.267 28.136 123.262 27.9727 123.253 27.842C123.244 27.506 123.169 27.1747 123.029 26.848C122.898 26.5213 122.688 26.2507 122.399 26.036C122.119 25.8213 121.746 25.714 121.279 25.714C120.812 25.714 120.439 25.8213 120.159 26.036C119.879 26.2413 119.678 26.5167 119.557 26.862C119.436 27.198 119.366 27.562 119.347 27.954C119.338 28.1967 119.338 28.444 119.347 28.696C119.366 29.088 119.436 29.4567 119.557 29.802C119.678 30.138 119.879 30.4133 120.159 30.628C120.439 30.8333 120.812 30.936 121.279 30.936ZM126.903 32C126.809 32 126.73 31.972 126.665 31.916C126.609 31.8507 126.581 31.7713 126.581 31.678V30.67C126.581 30.5767 126.609 30.502 126.665 30.446C126.73 30.3807 126.809 30.348 126.903 30.348H127.911C128.004 30.348 128.079 30.3807 128.135 30.446C128.2 30.502 128.233 30.5767 128.233 30.67V31.678C128.233 31.7713 128.2 31.8507 128.135 31.916C128.079 31.972 128.004 32 127.911 32H126.903ZM130.43 32C130.337 32 130.257 31.972 130.192 31.916C130.136 31.8507 130.108 31.7713 130.108 31.678V30.67C130.108 30.5767 130.136 30.502 130.192 30.446C130.257 30.3807 130.337 30.348 130.43 30.348H131.438C131.531 30.348 131.606 30.3807 131.662 30.446C131.727 30.502 131.76 30.5767 131.76 30.67V31.678C131.76 31.7713 131.727 31.8507 131.662 31.916C131.606 31.972 131.531 32 131.438 32H130.43ZM133.957 32C133.864 32 133.785 31.972 133.719 31.916C133.663 31.8507 133.635 31.7713 133.635 31.678V30.67C133.635 30.5767 133.663 30.502 133.719 30.446C133.785 30.3807 133.864 30.348 133.957 30.348H134.965C135.059 30.348 135.133 30.3807 135.189 30.446C135.255 30.502 135.287 30.5767 135.287 30.67V31.678C135.287 31.7713 135.255 31.8507 135.189 31.916C135.133 31.972 135.059 32 134.965 32H133.957Z" fill="#B2B2B2"/>
<path d="M246.321 29L257.321 18M246.321 29L249.821 36C249.865 36.0957 249.935 36.1769 250.024 36.2338C250.112 36.2906 250.216 36.3209 250.321 36.3209C250.426 36.3209 250.529 36.2906 250.618 36.2338C250.707 36.1769 250.777 36.0957 250.821 36L257.321 18M246.321 29L239.321 25.5C239.225 25.4561 239.144 25.3857 239.087 25.2971C239.03 25.2084 239 25.1053 239 25C239 24.8947 239.03 24.7916 239.087 24.7029C239.144 24.6143 239.225 24.5439 239.321 24.5L257.321 18" stroke="#1E1E1E" stroke-width="2" stroke-linecap="round" stroke-linejoin="round"/>
</svg>
