<svg width="18" height="18" viewBox="0 0 18 18" fill="none" xmlns="http://www.w3.org/2000/svg">
<path d="M5.75 0C4.22501 0 2.76247 0.605802 1.68414 1.68414C0.605802 2.76247 0 4.22501 0 5.75V12.857C0 13.0559 0.0790175 13.2467 0.21967 13.3873C0.360322 13.528 0.551088 13.607 0.75 13.607C0.948912 13.607 1.13968 13.528 1.28033 13.3873C1.42098 13.2467 1.5 13.0559 1.5 12.857V5.75C1.5 4.62283 1.94777 3.54183 2.7448 2.7448C3.54183 1.94777 4.62283 1.5 5.75 1.5H12.763C12.9619 1.5 13.1527 1.42098 13.2933 1.28033C13.434 1.13968 13.513 0.948912 13.513 0.75C13.513 0.551088 13.434 0.360322 13.2933 0.21967C13.1527 0.0790175 12.9619 0 12.763 0H5.75Z" fill="#1E1E1E"/>
<path fill-rule="evenodd" clip-rule="evenodd" d="M15.153 3.54299C11.8944 3.1807 8.60564 3.1807 5.34701 3.54299C4.89614 3.59325 4.47551 3.79448 4.15346 4.11399C3.8314 4.43351 3.62684 4.85253 3.57301 5.30299C3.18855 8.58978 3.18855 11.9102 3.57301 15.197C3.62667 15.6475 3.83117 16.0666 4.15326 16.3862C4.47535 16.7057 4.89608 16.9069 5.34701 16.957C8.58801 17.319 11.912 17.319 15.153 16.957C15.6039 16.9069 16.0247 16.7057 16.3468 16.3862C16.6689 16.0666 16.8734 15.6475 16.927 15.197C17.3115 11.9102 17.3115 8.58978 16.927 5.30299C16.8732 4.85253 16.6686 4.43351 16.3466 4.11399C16.0245 3.79448 15.6039 3.59325 15.153 3.54299ZM5.51401 5.03399C8.64401 4.68399 11.856 4.68399 14.986 5.03399C15.1 5.04661 15.2064 5.09729 15.2881 5.17786C15.3698 5.25842 15.4219 5.36416 15.436 5.47799C15.808 8.64845 15.808 11.8515 15.436 15.022C15.4219 15.1358 15.3698 15.2416 15.2881 15.3221C15.2064 15.4027 15.1 15.4534 14.986 15.466C11.856 15.816 8.64401 15.816 5.51401 15.466C5.40007 15.4532 5.29373 15.4025 5.21211 15.3219C5.13049 15.2414 5.07833 15.1358 5.06401 15.022C4.69202 11.8515 4.69202 8.64845 5.06401 5.47799C5.07833 5.36422 5.13049 5.25858 5.21211 5.17805C5.29373 5.09752 5.40007 5.04678 5.51401 5.03399Z" fill="#1E1E1E"/>
</svg>
