<svg width="44" height="44" viewBox="0 0 44 44" fill="none" xmlns="http://www.w3.org/2000/svg">
<g filter="url(#filter0_d_2_537)">
<rect x="1" y="1" width="40" height="40" rx="10" fill="#FF8580"/>
<rect x="0.5" y="0.5" width="41" height="41" rx="10.5" stroke="#1E1E1E"/>
</g>
<path d="M26.6801 16.8138C26.7801 16.7173 26.8599 16.6018 26.9148 16.4741C26.9697 16.3465 26.9987 16.2092 27 16.0702C27.0012 15.9312 26.9748 15.7934 26.9222 15.6647C26.8697 15.5361 26.792 15.4192 26.6938 15.3209C26.5956 15.2225 26.4787 15.1448 26.3501 15.0921C26.2215 15.0394 26.0837 15.0128 25.9448 15.014C25.8058 15.0151 25.6684 15.0439 25.5407 15.0987C25.413 15.1535 25.2975 15.2332 25.2009 15.3331L21.0059 19.5267L16.8124 15.3331C16.7166 15.2303 16.601 15.1478 16.4726 15.0906C16.3442 15.0334 16.2056 15.0026 16.0651 15.0002C15.9246 14.9977 15.785 15.0235 15.6547 15.0762C15.5243 15.1288 15.4059 15.2072 15.3066 15.3066C15.2072 15.4059 15.1288 15.5243 15.0762 15.6547C15.0235 15.785 14.9977 15.9246 15.0002 16.0651C15.0026 16.2056 15.0334 16.3442 15.0906 16.4726C15.1478 16.601 15.2303 16.7166 15.3331 16.8124L19.5239 21.0073L15.3303 25.2009C15.1455 25.3993 15.0448 25.6617 15.0496 25.9329C15.0544 26.204 15.1642 26.4627 15.356 26.6545C15.5477 26.8462 15.8065 26.9561 16.0776 26.9609C16.3488 26.9657 16.6112 26.865 16.8096 26.6801L21.0059 22.4866L25.1995 26.6815C25.3979 26.8664 25.6603 26.967 25.9315 26.9623C26.2026 26.9575 26.4613 26.8476 26.6531 26.6559C26.8448 26.4641 26.9547 26.2054 26.9595 25.9342C26.9643 25.6631 26.8636 25.4007 26.6787 25.2023L22.488 21.0073L26.6801 16.8138Z" fill="#1E1E1E"/>
<defs>
<filter id="filter0_d_2_537" x="0" y="0" width="44" height="44" filterUnits="userSpaceOnUse" color-interpolation-filters="sRGB">
<feFlood flood-opacity="0" result="BackgroundImageFix"/>
<feColorMatrix in="SourceAlpha" type="matrix" values="0 0 0 0 0 0 0 0 0 0 0 0 0 0 0 0 0 0 127 0" result="hardAlpha"/>
<feOffset dx="2" dy="2"/>
<feComposite in2="hardAlpha" operator="out"/>
<feColorMatrix type="matrix" values="0 0 0 0 0.117647 0 0 0 0 0.117647 0 0 0 0 0.117647 0 0 0 1 0"/>
<feBlend mode="normal" in2="BackgroundImageFix" result="effect1_dropShadow_2_537"/>
<feBlend mode="normal" in="SourceGraphic" in2="effect1_dropShadow_2_537" result="shape"/>
</filter>
</defs>
</svg>
