<svg width="44" height="44" viewBox="0 0 44 44" fill="none" xmlns="http://www.w3.org/2000/svg">
<g filter="url(#filter0_d_237_6106)">
<rect x="1" y="1" width="40" height="40" rx="10" fill="#FFF9CD"/>
<rect x="0.5" y="0.5" width="41" height="41" rx="10.5" stroke="#1E1E1E"/>
</g>
<path d="M14.2932 17.0991C14.2003 17.1875 14.1265 17.2926 14.0762 17.4083C14.0259 17.5239 14 17.648 14 17.7732C14 17.8984 14.0259 18.0225 14.0762 18.1381C14.1265 18.2538 14.2003 18.3589 14.2932 18.4473L20.9282 24.7772C21.0021 24.8479 21.0898 24.9039 21.1864 24.9421C21.283 24.9803 21.3865 25 21.4911 25C21.5957 25 21.6992 24.9803 21.7958 24.9421C21.8924 24.9039 21.9801 24.8479 22.054 24.7772L28.689 18.4473C29.0802 18.0741 29.0802 17.4723 28.689 17.0991C28.2978 16.7258 27.667 16.7258 27.2758 17.0991L21.4871 22.6139L15.6985 17.0915C15.3152 16.7258 14.6765 16.7258 14.2932 17.0991Z" fill="#1E1E1E" stroke="#1E1E1E"/>
<defs>
<filter id="filter0_d_237_6106" x="0" y="0" width="44" height="44" filterUnits="userSpaceOnUse" color-interpolation-filters="sRGB">
<feFlood flood-opacity="0" result="BackgroundImageFix"/>
<feColorMatrix in="SourceAlpha" type="matrix" values="0 0 0 0 0 0 0 0 0 0 0 0 0 0 0 0 0 0 127 0" result="hardAlpha"/>
<feOffset dx="2" dy="2"/>
<feComposite in2="hardAlpha" operator="out"/>
<feColorMatrix type="matrix" values="0 0 0 0 0.117647 0 0 0 0 0.117647 0 0 0 0 0.117647 0 0 0 1 0"/>
<feBlend mode="normal" in2="BackgroundImageFix" result="effect1_dropShadow_237_6106"/>
<feBlend mode="normal" in="SourceGraphic" in2="effect1_dropShadow_237_6106" result="shape"/>
</filter>
</defs>
</svg>
