<svg width="21" height="22" viewBox="0 0 21 22" fill="none" xmlns="http://www.w3.org/2000/svg">
<path d="M13 15.5L17 13.5L18.5 17L15 20H12L13 15.5Z" fill="#FFA86B"/>
<path d="M1 20.2L1.0004 16.5996C1.00063 14.6115 2.61234 13 4.6004 13H11.7999M13 4.6C13 6.58822 11.3882 8.2 9.4 8.2C7.41177 8.2 5.8 6.58822 5.8 4.6C5.8 2.61177 7.41177 1 9.4 1C11.3882 1 13 2.61177 13 4.6Z" stroke="black" stroke-width="2" stroke-linecap="round" stroke-linejoin="round"/>
<path d="M12 17.32L16.32 13L19.2 15.88L14.88 20.2H12V17.32Z" stroke="black" stroke-width="2" stroke-linejoin="round"/>
</svg>
