<svg width="19" height="11" viewBox="0 0 19 11" fill="none" xmlns="http://www.w3.org/2000/svg">
<path d="M1.6348 6.40875C4.89045 -0.82603 14.6574 -0.82603 17.9131 6.40875" stroke="#1E1E1E" stroke-width="1.35652" stroke-linecap="round" stroke-linejoin="round"/>
<path d="M9.77391 10.0261C9.41763 10.0261 9.06484 9.95589 8.73568 9.81954C8.40652 9.6832 8.10743 9.48336 7.8555 9.23143C7.60357 8.9795 7.40373 8.68042 7.26739 8.35126C7.13105 8.02209 7.06087 7.6693 7.06087 7.31302C7.06087 6.95674 7.13105 6.60394 7.26739 6.27478C7.40373 5.94562 7.60357 5.64654 7.8555 5.39461C8.10743 5.14268 8.40652 4.94284 8.73568 4.80649C9.06484 4.67015 9.41763 4.59998 9.77391 4.59998C10.4935 4.59998 11.1835 4.88581 11.6923 5.39461C12.2011 5.9034 12.487 6.59348 12.487 7.31302C12.487 8.03256 12.2011 8.72264 11.6923 9.23143C11.1835 9.74023 10.4935 10.0261 9.77391 10.0261Z" fill="#1E1E1E" stroke="#1E1E1E" stroke-width="1.35652" stroke-linecap="round" stroke-linejoin="round"/>
</svg>
