<svg width="109" height="31" viewBox="0 0 109 31" fill="none" xmlns="http://www.w3.org/2000/svg">
<path d="M0.639664 27.3634C0.248758 24.2362 0 18.6213 0 13.4329C0 9.02637 0.213221 4.69087 0.56859 2.77188C3.12724 1.77685 7.39167 1.27933 11.8693 1.27933C13.7172 1.27933 15.9205 1.27933 17.8395 1.49255C18.0527 1.84792 18.1949 2.77188 18.1949 3.83798C18.1949 5.33053 17.9817 7.0363 17.6974 8.03134C16.2759 7.81811 14.428 7.67597 12.2958 7.67597C10.5189 7.67597 8.45778 7.74704 6.04127 8.10241C5.89912 9.23959 5.89912 9.95033 5.89912 10.8032C5.89912 11.7272 5.89912 12.5801 6.25449 13.7883C8.81315 13.1486 11.0164 12.7222 12.4379 12.9354C12.6511 13.7883 12.7222 14.9255 12.7222 16.1337C12.7222 16.9866 12.7222 17.6263 12.6511 18.0527C11.0875 18.1949 8.95529 18.6924 6.11234 19.261C6.18342 20.5403 6.46771 23.8808 6.89415 27.008C5.47268 27.2923 3.69583 27.4345 2.41651 27.4345C1.67023 27.4345 1.03057 27.3989 0.639664 27.3634ZM33.2677 27.8609L33.1256 27.008V26.937C32.7702 25.3733 32.1306 22.6015 31.633 20.7535C29.2165 21.5353 26.4447 22.175 22.7488 22.5304C22.6778 23.7031 22.6422 25.1246 22.6067 26.2262C21.8604 26.4039 20.8298 26.5105 19.7637 26.5105C18.4133 26.5105 16.9919 26.3684 16.139 26.013C16.5654 19.7585 19.4084 5.22392 21.6117 1.13718C22.6778 0.568592 24.6678 0 26.9422 0C27.6529 0 28.5769 0.142149 29.3587 0.284297C33.4099 4.19335 38.5272 18.4081 40.233 25.3733C38.8826 26.5816 36.1818 27.7188 33.2677 27.8609ZM23.2463 17.8395L24.2414 17.5552C25.8761 17.0577 27.5818 16.5602 30.1405 15.6362C29.0744 12.3668 27.5818 8.95529 25.8761 6.11234C24.3835 9.87925 23.8149 13.1486 23.3174 16.7734L23.2463 17.8395ZM57.9274 30.0642C56.4348 30.0642 55.0844 29.922 53.8762 29.7088C54.5869 26.1551 55.0844 20.256 54.9423 16.4891C54.2315 16.4891 52.739 16.418 51.9572 16.418C50.82 16.418 48.8299 16.5602 47.7638 16.6313C47.9771 20.4692 48.4035 24.1651 48.901 26.8659C47.1242 27.2212 45.3472 27.3634 43.8548 27.3634C43.3217 27.3634 42.8242 27.3279 42.3267 27.2923C41.7936 24.3783 41.3672 18.6213 41.3672 13.0065C41.3672 8.95529 41.5804 5.04624 42.149 2.34544C43.2151 1.99007 44.7077 1.77685 46.2713 1.77685C46.982 1.77685 47.906 1.84792 48.5456 1.91899L48.1903 4.26443C47.906 6.25449 47.6928 8.31563 47.6928 11.585C49.5406 11.4429 53.3787 11.3007 55.2976 11.3007C55.2976 7.81811 54.9423 4.83302 54.658 2.27436L54.5158 0.781813C55.5819 0.426444 57.2166 0.284297 58.8513 0.284297C59.6331 0.284297 60.415 0.284297 61.0546 0.426444C61.552 4.40657 61.9075 9.80818 61.9075 14.9966C61.9075 20.5403 61.552 26.013 60.9125 29.7799C59.8464 29.9931 58.9223 30.0642 57.9274 30.0642ZM70.4422 22.0329C75.8438 22.3882 78.2603 18.4792 77.9049 13.504C77.6917 9.59496 76.1281 7.3206 73.0008 7.3206C72.219 7.3206 71.2951 7.53382 69.9447 8.03134C69.5893 10.3057 69.3761 13.0776 69.3761 15.6362C69.3761 17.7684 69.5893 20.3271 69.8736 21.9618L70.4422 22.0329ZM63.3348 14.428C63.3348 10.1635 63.6191 5.89912 64.2588 2.7008C67.2439 1.70577 69.8736 1.27933 72.3612 1.27933C79.8239 1.27933 84.0173 5.9702 84.1594 13.1486C84.3726 22.1039 79.5396 27.7898 69.9447 27.7898C68.2389 27.7898 66.3199 27.6122 64.2232 27.2212C63.6546 23.9874 63.3348 19.2255 63.3348 14.428ZM96.9518 27.2923C90.8395 27.2923 85.7221 23.3833 85.58 14.9255C85.5089 10.2346 86.9304 4.26443 89.2758 0.710739C91.1238 0.781813 93.4692 1.13718 94.7485 1.91899C93.4692 4.54872 91.7634 9.02637 91.7634 13.5751C91.7634 14.6412 91.9056 15.9205 92.1188 16.8445C92.6874 19.4031 94.7485 21.3932 97.165 21.1089C99.6523 20.8957 101.216 19.1188 101.642 16.347C102.282 11.585 100.221 5.82805 98.6573 2.34544C100.008 1.77685 102.851 1.27933 104.699 1.42148C107.186 5.9702 108.608 10.9454 108.608 15.2098C108.608 21.8907 105.196 27.2923 96.9518 27.2923Z" fill="#1E1E1E"/>
</svg>
