<svg fill="none" xmlns="http://www.w3.org/2000/svg" viewBox="0.7 0.93 110.05 30.48"><path d="M1.36821 28.6721C0.972215 25.5041 0.720215 19.8161 0.720215 14.5601C0.720215 10.0961 0.936215 5.70415 1.29621 3.76015C3.88821 2.75215 8.20822 2.24815 12.7442 2.24815C14.6162 2.24815 16.8482 2.24815 18.7922 2.46415C19.0082 2.82415 19.1522 3.76015 19.1522 4.84015C19.1522 6.35215 18.9362 8.08015 18.6482 9.08815C17.2082 8.87215 15.3362 8.72815 13.1762 8.72815C11.3762 8.72815 9.28822 8.80015 6.84022 9.16015C6.69621 10.3121 6.69622 11.0321 6.69622 11.8961C6.69622 12.8321 6.69622 13.6961 7.05622 14.9201C9.64822 14.2721 11.8802 13.8402 13.3202 14.0561C13.5362 14.9202 13.6082 16.0722 13.6082 17.2962C13.6082 18.1602 13.6082 18.8082 13.5362 19.2402C11.9522 19.3842 9.79222 19.8881 6.91221 20.4641C6.98421 21.7601 7.27222 25.1442 7.70422 28.3122C6.26422 28.6002 4.46422 28.7442 3.16822 28.7442C2.41221 28.7442 1.76421 28.7081 1.36821 28.6721Z" fill="#FFA07A"></path><path d="M34.4216 29.1761L34.2776 28.3122V28.2402C33.9176 26.6562 33.2696 23.8482 32.7656 21.9762C30.3176 22.7682 27.5096 23.4161 23.7656 23.7761C23.6936 24.9641 23.6576 26.4041 23.6216 27.5201C22.8656 27.7001 21.8216 27.8081 20.7416 27.8081C19.3736 27.8081 17.9336 27.6641 17.0696 27.3041C17.5016 20.9681 20.3816 6.24415 22.6136 2.10415C23.6936 1.52815 25.7096 0.952148 28.0136 0.952148C28.7336 0.952148 29.6696 1.09615 30.4616 1.24015C34.5656 5.20015 39.7496 19.6002 41.4776 26.6562C40.1096 27.8802 37.3736 29.0321 34.4216 29.1761ZM24.2696 19.0241L25.2776 18.7361C26.9336 18.2321 28.6616 17.7281 31.2536 16.7921C30.1736 13.4801 28.6616 10.0241 26.9336 7.14415C25.4216 10.9601 24.8456 14.2721 24.3416 17.9441L24.2696 19.0241Z" fill="#FFA07A"></path><path d="M59.4025 31.4081C57.8905 31.4081 56.5225 31.2642 55.2985 31.0482C56.0185 27.4482 56.5225 21.4721 56.3785 17.6561C55.6585 17.6561 54.1465 17.5842 53.3545 17.5842C52.2025 17.5842 50.1865 17.7281 49.1065 17.8001C49.3225 21.6881 49.7545 25.4321 50.2585 28.1681C48.4585 28.5281 46.6585 28.6721 45.1465 28.6721C44.6065 28.6721 44.1025 28.6361 43.5985 28.6001C43.0585 25.6481 42.6265 19.8161 42.6265 14.1281C42.6265 10.0241 42.8425 6.06415 43.4185 3.32815C44.4985 2.96815 46.0105 2.75215 47.5945 2.75215C48.3145 2.75215 49.2505 2.82415 49.8985 2.89615L49.5385 5.27215C49.2505 7.28815 49.0345 9.37615 49.0345 12.6881C50.9065 12.5441 54.7945 12.4001 56.7385 12.4001C56.7385 8.87215 56.3785 5.84815 56.0905 3.25615L55.9465 1.74415C57.0265 1.38415 58.6825 1.24015 60.3385 1.24015C61.1305 1.24015 61.9225 1.24015 62.5705 1.38415C63.0745 5.41615 63.4345 10.8881 63.4345 16.1441C63.4345 21.7601 63.0745 27.3041 62.4265 31.1201C61.3465 31.3362 60.4105 31.4081 59.4025 31.4081Z" fill="#FFA07A"></path><path d="M72.0804 23.2722C77.5524 23.6321 80.0004 19.6722 79.6404 14.6321C79.4244 10.6721 77.8404 8.36815 74.6724 8.36815C73.8804 8.36815 72.9444 8.58415 71.5764 9.08815C71.2164 11.3921 71.0004 14.2001 71.0004 16.7921C71.0004 18.9521 71.2164 21.5441 71.5044 23.2001L72.0804 23.2722ZM64.8804 15.5681C64.8804 11.2481 65.1684 6.92815 65.8164 3.68815C68.8404 2.68015 71.5044 2.24815 74.0244 2.24815C81.5844 2.24815 85.8324 7.00015 85.9764 14.2722C86.1924 23.3442 81.2964 29.1042 71.5764 29.1042C69.8484 29.1042 67.9044 28.9242 65.7804 28.5282C65.2044 25.2522 64.8804 20.4282 64.8804 15.5681Z" fill="#FFA07A"></path><path d="M98.9355 28.6001C92.7435 28.6001 87.5595 24.6402 87.4155 16.0721C87.3435 11.3201 88.7835 5.27215 91.1595 1.67215C93.0315 1.74415 95.4075 2.10415 96.7035 2.89615C95.4075 5.56015 93.6795 10.0961 93.6795 14.7041C93.6795 15.7841 93.8235 17.0801 94.0395 18.0161C94.6155 20.6081 96.7035 22.6241 99.1515 22.3361C101.672 22.1201 103.256 20.3201 103.688 17.5121C104.336 12.6881 102.248 6.85615 100.664 3.32815C102.032 2.75215 104.912 2.24815 106.784 2.39215C109.304 7.00015 110.744 12.0401 110.744 16.3601C110.744 23.1281 107.288 28.6001 98.9355 28.6001Z" fill="#FFA07A"></path></svg>