<svg width="572" height="647" viewBox="0 0 572 647" fill="none" xmlns="http://www.w3.org/2000/svg">
<g clip-path="url(#clip0_7019_5959)">
<path d="M560 302.302C576.5 311.702 576.5 335.502 560 344.902L484.5 388.002L409.4 430.902L333.9 474.002L185.2 558.902L110.6 601.502L36.5 643.802L36.2 644.002C19.8 653.302 -0.5 641.502 -0.5 622.702V24.6021C-0.5 5.80206 19.9 -6.09795 36.2 3.30205L36.5 3.50205L110.6 45.802L185.2 88.402L488.1 261.302L526.3 283.102L560.1 302.402L560 302.302Z" fill="#020202"/>
<path d="M185.1 217.105L367.7 321.305C372.3 323.905 378 323.905 382.6 321.305L427.9 295.505C438 289.705 438 275.205 427.9 269.405L185.2 130.805L110.6 88.2047L58.9996 58.7047C48.9996 53.0047 36.5996 60.2047 36.5996 71.7047V575.205C36.5996 586.705 48.9996 593.905 58.9996 588.205L103.1 563.105C107.8 560.405 110.7 555.505 110.7 550.105V372.305C110.7 360.805 123.1 353.605 133.1 359.305L185.2 389.105L217.1 407.305C221.7 409.905 227.4 409.905 232 407.305L277.3 381.505C287.4 375.705 287.4 361.205 277.3 355.405L185.2 302.805L118.2 264.505C113.5 261.805 110.6 256.905 110.6 251.505V200.305C110.6 188.805 123 181.605 133 187.305L185.1 217.105Z" fill="#FFA86B"/>
<path d="M515.099 319.302C518.499 321.202 518.499 326.102 515.099 328.002L447.199 366.802L372.099 409.702L296.599 452.802L192.699 512.102C189.399 514.002 185.199 511.602 185.199 507.802V480.702C185.199 478.902 186.199 477.202 187.699 476.402L262.699 433.602L338.199 390.502L413.299 347.602L486.299 305.902C487.799 305.002 489.699 305.002 491.299 305.902L514.999 319.502L515.099 319.302Z" fill="white"/>
</g>
<defs>
<clipPath id="clip0_7019_5959">
<rect width="572" height="647" fill="white"/>
</clipPath>
</defs>
</svg>
