<svg width="22" height="22" viewBox="0 0 22 22" fill="none" xmlns="http://www.w3.org/2000/svg">
<path d="M4.99999 5.00009V9.20009M17 5.00009V9.20009M16.4 13.4001H18.8C19.7941 13.4001 20.6 12.5942 20.6 11.6001V3.20009C20.6 2.20597 19.7941 1.40009 18.8 1.40009H3.19999C2.20588 1.40009 1.39999 2.20597 1.39999 3.20009V11.6001C1.39999 12.5942 2.20588 13.4001 3.19999 13.4001H5.59999M7.60493 17.2058L10.999 20.5999M10.999 20.5999L14.1645 17.4344M10.999 20.5999L10.9992 13.6575M13.4 7.40009C13.4 8.72557 12.3255 9.80009 11 9.80009C9.67451 9.80009 8.59999 8.72557 8.59999 7.40009C8.59999 6.0746 9.67451 5.00009 11 5.00009C12.3255 5.00009 13.4 6.0746 13.4 7.40009Z" stroke="black" stroke-width="2" stroke-linecap="round" stroke-linejoin="round"/>
</svg>
