<svg width="19" height="22" viewBox="0 0 19 22" fill="none" xmlns="http://www.w3.org/2000/svg">
<path d="M12 16H18L17 19.5L14 20.5L12.5 18.5L12 16Z" fill="#FFA86B"/>
<path d="M1 20.2L1.0004 16.5996C1.00063 14.6115 2.61234 13 4.6004 13H11.7999M13 4.6C13 6.58822 11.3882 8.2 9.4 8.2C7.41177 8.2 5.8 6.58822 5.8 4.6C5.8 2.61177 7.41177 1 9.4 1C11.3882 1 13 2.61177 13 4.6Z" stroke="black" stroke-width="2" stroke-linecap="round" stroke-linejoin="round"/>
<path fill-rule="evenodd" clip-rule="evenodd" d="M12.4379 16.4566C12.7183 16.1762 13.0986 16.0187 13.4952 16.0187C13.8917 16.0187 14.272 16.1762 14.5525 16.4566L14.9907 16.8944L15.4288 16.4566C15.5668 16.3137 15.7318 16.1998 15.9143 16.1214C16.0967 16.043 16.2929 16.0018 16.4915 16.0001C16.6901 15.9983 16.887 16.0362 17.0708 16.1114C17.2546 16.1866 17.4216 16.2976 17.562 16.438C17.7024 16.5784 17.8134 16.7454 17.8886 16.9292C17.9638 17.113 18.0017 17.3099 17.9999 17.5085C17.9982 17.7071 17.957 17.9033 17.8786 18.0857C17.8002 18.2682 17.6863 18.4332 17.5434 18.5712L14.9907 21.1243L12.4379 18.5712C12.1575 18.2907 12 17.9104 12 17.5139C12 17.1173 12.1575 16.737 12.4379 16.4566V16.4566Z" stroke="black" stroke-width="1.4641" stroke-linejoin="round"/>
</svg>
