<svg width="14" height="16" viewBox="0 0 14 16" fill="none" xmlns="http://www.w3.org/2000/svg">
<path d="M8.76466 11.8132H13L12.2941 14.2838L10.1764 14.9897L9.1176 13.5779L8.76466 11.8132Z" fill="#FFA86B"/>
<path d="M1 14.7779L1.00029 12.2365C1.00044 10.8331 2.13812 9.69556 3.54146 9.69556H8.62343M9.47059 3.76615C9.47059 5.1696 8.33286 6.30733 6.92941 6.30733C5.52596 6.30733 4.38823 5.1696 4.38823 3.76615C4.38823 2.3627 5.52596 1.22498 6.92941 1.22498C8.33286 1.22498 9.47059 2.3627 9.47059 3.76615Z" stroke="#1E1E1E" stroke-width="2" stroke-linecap="round" stroke-linejoin="round"/>
<path fill-rule="evenodd" clip-rule="evenodd" d="M9.07373 12.1355C9.27169 11.9376 9.54015 11.8264 9.82007 11.8264C10.1 11.8264 10.3684 11.9376 10.5664 12.1355L10.8757 12.4445L11.185 12.1355C11.2824 12.0347 11.3989 11.9543 11.5277 11.8989C11.6565 11.8436 11.795 11.8145 11.9351 11.8133C12.0753 11.8121 12.2143 11.8388 12.344 11.8918C12.4738 11.9449 12.5916 12.0233 12.6908 12.1224C12.7899 12.2215 12.8683 12.3394 12.9213 12.4691C12.9744 12.5989 13.0011 12.7379 12.9999 12.878C12.9987 13.0182 12.9696 13.1567 12.9142 13.2855C12.8589 13.4143 12.7785 13.5308 12.6777 13.6282L10.8757 15.4304L9.07373 13.6282C8.87583 13.4302 8.76466 13.1618 8.76466 12.8818C8.76466 12.6019 8.87583 12.3335 9.07373 12.1355V12.1355Z" stroke="#1E1E1E" stroke-linejoin="round"/>
</svg>
