<svg width="10" height="17" viewBox="0 0 10 17" fill="none" xmlns="http://www.w3.org/2000/svg">
<path d="M8.90093 1.19708C8.81248 1.10414 8.70741 1.0304 8.59173 0.980083C8.47605 0.929768 8.35204 0.90387 8.2268 0.90387C8.10156 0.90387 7.97755 0.929768 7.86187 0.980083C7.74619 1.0304 7.64112 1.10414 7.55268 1.19708L1.22276 7.83207C1.15215 7.90594 1.09612 7.99368 1.0579 8.09027C1.01968 8.18686 1 8.2904 1 8.39497C1 8.49954 1.01968 8.60308 1.0579 8.69967C1.09612 8.79626 1.15215 8.884 1.22276 8.95787L7.55268 15.5929C7.92592 15.9841 8.52768 15.9841 8.90093 15.5929C9.27417 15.2016 9.27417 14.5709 8.90093 14.1796L3.38605 8.39098L8.90854 2.60233C9.27417 2.21908 9.27417 1.58033 8.90093 1.19708Z" fill="#1E1E1E" stroke="#1E1E1E"/>
</svg>
