<svg width="23" height="19" viewBox="0 0 23 19" fill="none" xmlns="http://www.w3.org/2000/svg">
<path d="M10.9075 2.14758L11.0197 2.27424L11.132 2.14758C12.2493 0.886959 13.9012 0.149964 15.7695 0.149939C17.392 0.151925 18.9475 0.79734 20.0948 1.94462C21.2421 3.09193 21.8875 4.64744 21.8895 6.26997C21.8894 9.63636 19.4225 12.6883 16.861 14.9446C14.3071 17.1942 11.6988 18.6184 11.489 18.7317C11.3448 18.8093 11.1835 18.8499 11.0197 18.8499C10.8559 18.8499 10.6947 18.8093 10.5505 18.7317C10.3407 18.6184 7.73233 17.1942 5.17844 14.9446C2.61694 12.6883 0.150047 9.63631 0.15 6.26988C0.151986 4.64739 0.797401 3.09191 1.94468 1.94462C3.09197 0.79734 4.64745 0.151925 6.26994 0.149939C8.13831 0.149964 9.79022 0.886959 10.9075 2.14758ZM15.3451 13.6382L15.3458 13.6377C16.3803 12.7502 17.5183 11.6261 18.3987 10.3686C19.2781 9.11253 19.9095 7.71036 19.9095 6.26979C19.9095 5.17182 19.4734 4.11882 18.697 3.34243C17.9206 2.56605 16.8676 2.12988 15.7696 2.12988C14.0247 2.12988 12.5499 3.0535 11.9363 4.55436L11.9363 4.55444C11.862 4.73652 11.7351 4.89233 11.5718 5.00201C11.4086 5.11169 11.2164 5.17027 11.0197 5.17027C10.8231 5.17027 10.6309 5.11169 10.4676 5.00201C10.3044 4.89233 10.1775 4.73652 10.1032 4.55444L10.1032 4.55436C9.48953 3.0535 8.01473 2.12988 6.26985 2.12988C5.17188 2.12988 4.11888 2.56605 3.3425 3.34243C2.56611 4.11882 2.12995 5.17182 2.12995 6.26979C2.12995 7.71036 2.76138 9.11253 3.64081 10.3686C4.52121 11.6261 5.65919 12.7502 6.69372 13.6377L6.69433 13.6382C8.02375 14.7663 9.44489 15.7816 10.943 16.6736L11.0197 16.7193L11.0965 16.6736C12.5946 15.7816 14.0157 14.7663 15.3451 13.6382Z" fill="#1E1E1E" stroke="white" stroke-width="0.3"/>
</svg>
