<svg width="12" height="12" viewBox="0 0 12 12" fill="none" xmlns="http://www.w3.org/2000/svg">
<path d="M11.6801 1.81377C11.7801 1.71727 11.8599 1.60182 11.9148 1.47415C11.9697 1.34648 11.9987 1.20915 12 1.07018C12.0012 0.931211 11.9748 0.793378 11.9222 0.664725C11.8697 0.536072 11.792 0.419176 11.6938 0.320858C11.5956 0.22254 11.4787 0.144769 11.3501 0.0920824C11.2215 0.0393957 11.0837 0.012849 10.9448 0.0139907C10.8058 0.0151323 10.6684 0.0439397 10.5407 0.0987321C10.413 0.153525 10.2975 0.233205 10.2009 0.333123L6.00593 4.52667L1.81238 0.333123C1.71656 0.230291 1.60101 0.147813 1.47262 0.0906078C1.34423 0.0334026 1.20564 0.00264243 1.06511 0.000162885C0.924573 -0.00231666 0.78498 0.0235352 0.654655 0.0761758C0.52433 0.128816 0.405942 0.207167 0.306555 0.306555C0.207167 0.405942 0.128816 0.524329 0.0761758 0.654654C0.0235352 0.78498 -0.00231666 0.924574 0.000162885 1.06511C0.00264243 1.20564 0.0334026 1.34423 0.0906078 1.47262C0.147813 1.60101 0.230291 1.71656 0.333123 1.81238L4.52388 6.00732L0.330332 10.2009C0.145453 10.3993 0.0448034 10.6617 0.0495876 10.9329C0.0543717 11.204 0.164216 11.4627 0.35598 11.6545C0.547743 11.8462 0.806451 11.9561 1.0776 11.9609C1.34875 11.9657 1.61118 11.865 1.80959 11.6801L6.00593 7.48658L10.1995 11.6815C10.3979 11.8664 10.6603 11.967 10.9315 11.9623C11.2026 11.9575 11.4613 11.8476 11.6531 11.6559C11.8448 11.4641 11.9547 11.2054 11.9595 10.9342C11.9643 10.6631 11.8636 10.4007 11.6787 10.2023L7.48797 6.00732L11.6801 1.81377Z" fill="#1E1E1E"/>
</svg>
