<svg width="17" height="15" viewBox="0 0 17 15" fill="none" xmlns="http://www.w3.org/2000/svg">
<path d="M1.54283 1.71271L8.48492 2.09838L15.427 1.71271L15.8127 7.11211L13.113 10.9688L10.4133 12.8972L7.3279 13.2829L3.08551 9.42614L0.771484 5.9551L1.54283 1.71271Z" fill="#F16565"/>
<path d="M12.1638 0.169983C10.6917 0.169983 9.38517 0.751061 8.5 1.74981C7.61483 0.751061 6.30832 0.169983 4.83621 0.169983C3.55404 0.171534 2.32483 0.68156 1.41821 1.58819C0.511577 2.49482 0.00155132 3.72402 0 5.00619C0 10.307 7.75332 14.5423 8.08306 14.7204C8.2112 14.7894 8.35446 14.8255 8.5 14.8255C8.64554 14.8255 8.7888 14.7894 8.91694 14.7204C9.24668 14.5423 17 10.307 17 5.00619C16.9984 3.72402 16.4884 2.49482 15.5818 1.58819C14.6752 0.68156 13.446 0.171534 12.1638 0.169983ZM11.7615 10.6015C10.741 11.4675 9.65003 12.247 8.5 12.9317C7.34997 12.247 6.25903 11.4675 5.23849 10.6015C3.6506 9.23934 1.75862 7.16197 1.75862 5.00619C1.75862 4.18996 2.08287 3.40717 2.66002 2.83001C3.23718 2.25285 4.01998 1.9286 4.83621 1.9286C6.14052 1.9286 7.23233 2.6174 7.68591 3.72679C7.75192 3.88852 7.86461 4.02692 8.00961 4.12434C8.1546 4.22176 8.32532 4.27378 8.5 4.27378C8.67468 4.27378 8.8454 4.22176 8.99039 4.12434C9.13539 4.02692 9.24808 3.88852 9.3141 3.72679C9.76767 2.6174 10.8595 1.9286 12.1638 1.9286C12.98 1.9286 13.7628 2.25285 14.34 2.83001C14.9171 3.40717 15.2414 4.18996 15.2414 5.00619C15.2414 7.16197 13.3494 9.23934 11.7615 10.6015Z" fill="#1E1E1E"/>
</svg>
