<svg width="23" height="21" viewBox="0 0 23 21" fill="none" xmlns="http://www.w3.org/2000/svg">
<path d="M4.35294 7.70588C6.20471 7.70588 7.70588 6.20471 7.70588 4.35294C7.70588 2.50116 6.20471 1 4.35294 1C2.50116 1 1 2.50116 1 4.35294C1 6.20471 2.50116 7.70588 4.35294 7.70588Z" fill="#FFA86B" stroke="#1E1E1E" stroke-width="2" stroke-linejoin="round"/>
<path d="M7.14704 15.4119C7.14704 14.8596 6.69933 14.4119 6.14704 14.4119H2.55881C2.00652 14.4119 1.55881 14.8596 1.55881 15.4119V19.0001C1.55881 19.5524 2.00652 20.0001 2.55881 20.0001H6.14704C6.69933 20.0001 7.14704 19.5524 7.14704 19.0001V15.4119Z" fill="white" stroke="#1E1E1E" stroke-width="2" stroke-linejoin="round"/>
<path d="M11.9976 4.35278H19.1176C20.2222 4.35278 21.1176 5.24821 21.1176 6.35278V15.2057C21.1176 16.3103 20.2222 17.2057 19.1176 17.2057H11.6176" stroke="#1E1E1E" stroke-width="2" stroke-linecap="round" stroke-linejoin="round"/>
</svg>
