<svg width="344" height="275" viewBox="0 0 344 275" fill="none" xmlns="http://www.w3.org/2000/svg">
<path opacity="0.75" d="M293.118 142.501C289.551 210.9 244.424 209.938 191.992 225.226C167.701 232.304 142.618 246.176 121.215 246.176C53.6646 246.176 37.3009 186.61 44.5485 119.456C51.966 50.2076 93.0734 8.70378 164.021 15.7815C231.231 22.4629 297.025 67.7038 293.118 142.501Z" fill="white"/>
<path d="M1 262.199L343 262.199" stroke="#1E1E1E" stroke-width="2" stroke-linecap="round" stroke-linejoin="round"/>
<path d="M35.5305 77.1576H126.417C129.967 77.1576 132.871 74.2428 132.871 70.6547V18.5305C132.871 14.9914 130.016 12.0766 126.417 12.0766H35.5305C31.9914 12.0766 29.0766 14.9318 29.0766 18.5305V70.7037C29.0766 74.2428 31.9318 77.1576 35.5305 77.1576Z" fill="#FFA86B" stroke="#1E1E1E" stroke-width="1.84689"/>
<path d="M115.895 73.1021H121.866" stroke="#1E1E1E" stroke-width="1.84689" stroke-miterlimit="10" stroke-linecap="round" stroke-linejoin="round"/>
<path d="M32.8386 29.0531V68.7948C32.8386 71.193 34.7963 73.1507 37.1945 73.1507H110.217" stroke="#1E1E1E" stroke-width="1.84689" stroke-miterlimit="10" stroke-linecap="round" stroke-linejoin="round"/>
<path d="M32.8386 18.4813V24.4524" stroke="#1E1E1E" stroke-width="1.84689" stroke-miterlimit="10" stroke-linecap="round" stroke-linejoin="round"/>
<path d="M62.1516 49.1628C62.039 49.1628 61.9469 49.127 61.8753 49.0554C61.8037 48.9837 61.7679 48.8916 61.7679 48.7791V38.8019C61.7679 38.6893 61.8037 38.5972 61.8753 38.5256C61.9469 38.454 62.039 38.4182 62.1516 38.4182H63.8554C63.968 38.4182 64.0601 38.454 64.1317 38.5256C64.2033 38.5972 64.2391 38.6893 64.2391 38.8019V47.106H68.9975C69.11 47.106 69.2021 47.1418 69.2738 47.2134C69.3454 47.2851 69.3812 47.3772 69.3812 47.4897V48.7791C69.3812 48.8916 69.3454 48.9837 69.2738 49.0554C69.2021 49.127 69.11 49.1628 68.9975 49.1628H62.1516ZM74.1861 49.3163C73.3367 49.3163 72.6255 49.1782 72.0525 48.9019C71.4795 48.6153 71.0394 48.2111 70.7324 47.6893C70.4357 47.1674 70.272 46.5585 70.2413 45.8627C70.231 45.658 70.2259 45.4278 70.2259 45.1719C70.2259 44.9059 70.231 44.6756 70.2413 44.4812C70.272 43.7751 70.4459 43.1663 70.7631 42.6546C71.0804 42.1327 71.5255 41.7337 72.0985 41.4574C72.6716 41.1708 73.3674 41.0276 74.1861 41.0276C74.9945 41.0276 75.6852 41.1708 76.2583 41.4574C76.8313 41.7337 77.2764 42.1327 77.5937 42.6546C77.9109 43.1663 78.0848 43.7751 78.1155 44.4812C78.136 44.6756 78.1462 44.9059 78.1462 45.1719C78.1462 45.4278 78.136 45.658 78.1155 45.8627C78.0848 46.5585 77.916 47.1674 77.609 47.6893C77.3123 48.2111 76.8774 48.6153 76.3043 48.9019C75.7313 49.1782 75.0252 49.3163 74.1861 49.3163ZM74.1861 47.6279C74.6875 47.6279 75.0661 47.4744 75.3219 47.1674C75.5778 46.8502 75.7159 46.3897 75.7364 45.7859C75.7466 45.6324 75.7517 45.4278 75.7517 45.1719C75.7517 44.9161 75.7466 44.7115 75.7364 44.558C75.7159 43.9645 75.5778 43.5091 75.3219 43.1919C75.0661 42.8746 74.6875 42.716 74.1861 42.716C73.6847 42.716 73.3009 42.8746 73.0349 43.1919C72.779 43.5091 72.6409 43.9645 72.6204 44.558C72.6102 44.7115 72.6051 44.9161 72.6051 45.1719C72.6051 45.4278 72.6102 45.6324 72.6204 45.7859C72.6409 46.3897 72.779 46.8502 73.0349 47.1674C73.3009 47.4744 73.6847 47.6279 74.1861 47.6279ZM83.4969 52.5397C82.7396 52.5397 82.1103 52.4374 81.6089 52.2327C81.1075 52.0383 80.7084 51.7978 80.4116 51.5113C80.1251 51.235 79.9204 50.9587 79.7976 50.6824C79.6748 50.4061 79.6083 50.1912 79.5981 50.0377C79.5879 49.9252 79.6237 49.8331 79.7055 49.7614C79.7874 49.6898 79.8795 49.654 79.9818 49.654H81.6242C81.7163 49.654 81.7931 49.6745 81.8545 49.7154C81.9261 49.7666 81.9824 49.8484 82.0233 49.961C82.0745 50.0838 82.1461 50.2117 82.2382 50.3447C82.3303 50.488 82.4684 50.6057 82.6526 50.6978C82.8471 50.7899 83.1029 50.8359 83.4201 50.8359C83.7783 50.8359 84.075 50.7847 84.3104 50.6824C84.5457 50.5801 84.7197 50.4061 84.8323 50.1605C84.9551 49.9149 85.0165 49.5824 85.0165 49.1628V48.1344C84.7709 48.4005 84.4588 48.6205 84.0801 48.7944C83.7118 48.9684 83.2564 49.0554 82.714 49.0554C82.1819 49.0554 81.7112 48.9735 81.3019 48.8098C80.9028 48.6358 80.5702 48.3953 80.3042 48.0883C80.0381 47.7711 79.8335 47.3925 79.6902 46.9525C79.5469 46.5125 79.4651 46.0162 79.4446 45.4636C79.4344 45.1873 79.4344 44.9161 79.4446 44.6501C79.4651 44.1179 79.5469 43.6319 79.6902 43.1919C79.8335 42.7518 80.0381 42.3732 80.3042 42.056C80.5702 41.7285 80.9028 41.4778 81.3019 41.3039C81.7112 41.1197 82.1819 41.0276 82.714 41.0276C83.2769 41.0276 83.7578 41.135 84.1569 41.3499C84.556 41.5648 84.8834 41.8309 85.1393 42.1481V41.5648C85.1393 41.4625 85.1751 41.3755 85.2467 41.3039C85.3183 41.222 85.4053 41.1811 85.5076 41.1811H87.0119C87.1142 41.1811 87.2012 41.222 87.2728 41.3039C87.3547 41.3755 87.3956 41.4625 87.3956 41.5648L87.411 48.9479C87.411 49.7154 87.2626 50.3652 86.9658 50.8973C86.6691 51.4294 86.2291 51.8336 85.6458 52.1099C85.0727 52.3964 84.3564 52.5397 83.4969 52.5397ZM83.4201 47.2595C83.7885 47.2595 84.0853 47.1776 84.3104 47.0139C84.5457 46.8399 84.7197 46.625 84.8323 46.3692C84.9448 46.1031 85.0062 45.8269 85.0165 45.5403C85.0267 45.4278 85.0318 45.2692 85.0318 45.0645C85.0318 44.8496 85.0267 44.6859 85.0165 44.5733C85.0062 44.2868 84.9448 44.0156 84.8323 43.7598C84.7197 43.4937 84.5457 43.2788 84.3104 43.1151C84.0853 42.9514 83.7885 42.8695 83.4201 42.8695C83.0313 42.8695 82.7243 42.9565 82.4991 43.1305C82.274 43.2942 82.1103 43.5142 82.008 43.7905C81.9056 44.0668 81.8442 44.3687 81.8238 44.6961C81.8135 44.9417 81.8135 45.1822 81.8238 45.4175C81.8442 45.7552 81.9056 46.0622 82.008 46.3385C82.1103 46.6148 82.274 46.8399 82.4991 47.0139C82.7243 47.1776 83.0313 47.2595 83.4201 47.2595ZM89.7134 49.1628C89.6111 49.1628 89.5241 49.127 89.4525 49.0554C89.3808 48.9837 89.345 48.8916 89.345 48.7791V41.5648C89.345 41.4523 89.3808 41.3602 89.4525 41.2885C89.5241 41.2169 89.6111 41.1811 89.7134 41.1811H91.2484C91.3609 41.1811 91.453 41.2169 91.5246 41.2885C91.5963 41.3602 91.6321 41.4523 91.6321 41.5648V48.7791C91.6321 48.8916 91.5963 48.9837 91.5246 49.0554C91.453 49.127 91.3609 49.1628 91.2484 49.1628H89.7134ZM89.6674 39.9531C89.565 39.9531 89.478 39.9173 89.4064 39.8457C89.3348 39.774 89.299 39.6819 89.299 39.5694V38.3414C89.299 38.2289 89.3348 38.1368 89.4064 38.0651C89.478 37.9833 89.565 37.9423 89.6674 37.9423H91.2791C91.3916 37.9423 91.4837 37.9833 91.5553 38.0651C91.6372 38.1368 91.6781 38.2289 91.6781 38.3414V39.5694C91.6781 39.6819 91.6372 39.774 91.5553 39.8457C91.4837 39.9173 91.3916 39.9531 91.2791 39.9531H89.6674ZM94.3152 49.1628C94.2129 49.1628 94.1259 49.127 94.0543 49.0554C93.9827 48.9837 93.9469 48.8916 93.9469 48.7791V41.5648C93.9469 41.4523 93.9827 41.3602 94.0543 41.2885C94.1259 41.2169 94.2129 41.1811 94.3152 41.1811H95.8195C95.9321 41.1811 96.0242 41.2169 96.0958 41.2885C96.1674 41.3602 96.2032 41.4523 96.2032 41.5648V42.1634C96.4693 41.836 96.8121 41.5648 97.2317 41.3499C97.6512 41.135 98.1629 41.0276 98.7666 41.0276C99.3703 41.0276 99.8973 41.1657 100.348 41.442C100.808 41.7081 101.166 42.102 101.422 42.6239C101.688 43.1356 101.821 43.7598 101.821 44.4966V48.7791C101.821 48.8916 101.78 48.9837 101.698 49.0554C101.627 49.127 101.54 49.1628 101.437 49.1628H99.8104C99.6978 49.1628 99.6057 49.127 99.5341 49.0554C99.4624 48.9837 99.4266 48.8916 99.4266 48.7791V44.5887C99.4266 44.0463 99.2936 43.6268 99.0275 43.33C98.7717 43.023 98.3931 42.8695 97.8917 42.8695C97.4107 42.8695 97.027 43.023 96.7405 43.33C96.4539 43.6268 96.3107 44.0463 96.3107 44.5887V48.7791C96.3107 48.8916 96.2749 48.9837 96.2032 49.0554C96.1316 49.127 96.0446 49.1628 95.9423 49.1628H94.3152Z" fill="#1E1E1E"/>
<circle cx="136.959" cy="90.0506" r="9.85006" transform="rotate(-6.02423 136.959 90.0506)" fill="#FFA86B" stroke="#1E1E1E" stroke-width="1.84689"/>
<circle cx="149.369" cy="104.991" r="4.46331" transform="rotate(-6.02423 149.369 104.991)" fill="#FFA86B" stroke="#1E1E1E" stroke-width="1.84689"/>
<g filter="url(#filter0_d_37_134)">
<circle cx="132.054" cy="204.032" r="54.032" fill="#FFE175"/>
<circle cx="132.054" cy="204.032" r="55.2694" stroke="black" stroke-width="2.47475"/>
</g>
<path d="M131.6 244.842C122.815 244.992 114.119 242.157 107.467 237.386C82.6466 219.926 85.0927 182.057 113.492 168.146C133.748 158.443 156.748 166.798 166.876 183.509C170.933 190.078 172.902 197.465 172.887 204.806C172.887 205.486 172.231 206.039 171.411 206.039C170.605 206.039 169.949 205.486 169.949 204.818C169.904 197.845 167.98 190.873 164.117 184.73C154.302 168.872 132.704 161.266 113.731 171.108C88.1654 184.799 86.4799 219.454 108.898 236.003C113.567 239.46 119.265 241.996 125.38 243.045C127.424 243.39 129.512 243.586 131.6 243.632C132.54 243.655 132.54 244.842 131.6 244.865V244.842Z" fill="#FFBA5F"/>
<path d="M146.49 186.592C146.71 186.592 146.888 186.771 146.888 186.991V182.517C146.888 181.94 146.42 181.472 145.843 181.472H120.234C119.657 181.472 119.189 181.94 119.189 182.517V186.372C119.189 186.95 119.657 187.417 120.234 187.417H128.643C128.665 187.417 128.682 187.42 128.695 187.425C130.075 187.855 131.258 189.06 131.896 190.716C131.916 190.769 131.908 190.817 131.877 190.859C131.844 190.904 131.786 190.938 131.712 190.938H120.248C119.671 190.938 119.203 191.406 119.203 191.983V194.916C119.203 195.493 119.671 195.961 120.248 195.961H131.714C131.788 195.961 131.845 195.995 131.878 196.039C131.909 196.081 131.918 196.129 131.898 196.182C131.095 198.282 129.427 199.653 127.566 199.653H120.248C119.671 199.653 119.203 200.121 119.203 200.698V204.849C119.203 205.028 119.249 205.204 119.337 205.36L131.907 227.765C132.092 228.095 132.441 228.299 132.818 228.299H137.143C137.942 228.299 138.445 227.439 138.055 226.743L126.279 205.754C126.197 205.608 126.303 205.427 126.471 205.427H128.675C133.282 205.427 137.029 201.395 138.006 196.163C138.029 196.04 138.131 195.961 138.237 195.961H145.858C146.435 195.961 146.903 195.493 146.903 194.916V191.983C146.903 191.406 146.435 190.938 145.858 190.938H138.238C138.132 190.938 138.03 190.858 138.008 190.736C137.818 189.699 137.524 188.712 137.133 187.798C137.049 187.603 137.199 187.417 137.354 187.417H146.49V187.005V186.991V186.592Z" fill="#1E1E1E" stroke="black" stroke-width="0.824916"/>
<path d="M144.508 186.468C144.5 186.468 144.493 186.462 144.493 186.454V181.979C144.493 181.63 144.21 181.347 143.861 181.347H118.251C117.902 181.347 117.619 181.63 117.619 181.979V185.836C117.619 186.185 117.902 186.468 118.251 186.468H126.66C126.719 186.468 126.779 186.476 126.836 186.494C128.361 186.97 129.626 188.285 130.298 190.031C130.448 190.419 130.145 190.813 129.729 190.813H118.266C117.916 190.813 117.633 191.097 117.633 191.446V194.379C117.633 194.728 117.916 195.011 118.266 195.011H129.731C130.146 195.011 130.449 195.405 130.301 195.792C129.456 198.001 127.664 199.529 125.583 199.529H118.266C117.916 199.529 117.633 199.812 117.633 200.161V204.312C117.633 204.42 117.661 204.527 117.714 204.622L130.284 227.026C130.396 227.226 130.607 227.349 130.836 227.349H135.161C135.644 227.349 135.949 226.829 135.712 226.407L123.937 205.419C123.7 204.998 124.005 204.477 124.488 204.477H126.692C131.034 204.477 134.664 200.661 135.618 195.55C135.675 195.242 135.94 195.011 136.254 195.011H143.875C144.224 195.011 144.508 194.728 144.508 194.379V191.446C144.508 191.097 144.224 190.813 143.875 190.813H136.255C135.941 190.813 135.676 190.582 135.619 190.273C135.435 189.265 135.149 188.307 134.771 187.423C134.583 186.982 134.892 186.468 135.371 186.468H144.508Z" fill="#FFA86B" stroke="#1E1E1E" stroke-width="0.824916" stroke-miterlimit="10"/>
<g style="mix-blend-mode:color-burn" opacity="0.2">
<path d="M178.662 227.05C170.162 246.914 151.474 260.664 129.845 260.538C108.138 260.412 89.5434 246.355 81.322 226.268C81.6781 226.994 85.7346 235.035 96.139 234.574C98.3066 234.476 100.335 235.537 101.481 237.338C105.398 243.494 113.557 248.966 123.249 251.534C168.211 261.864 163.706 213.161 155.655 182.172L164.387 194.595L168.552 234.239L167.979 236.277C168.908 235.035 169.806 233.722 170.658 232.327L178.647 227.05H178.662Z" fill="#3E2670"/>
</g>
<g filter="url(#filter1_d_37_134)">
<circle cx="75.4464" cy="225.47" r="35.4464" fill="#FFE175"/>
<circle cx="75.4464" cy="225.47" r="36.2582" stroke="black" stroke-width="1.6235"/>
</g>
<path d="M75.1482 252.243C69.3847 252.341 63.68 250.481 59.3158 247.351C43.0333 235.897 44.638 211.054 63.269 201.928C76.5572 195.562 91.646 201.044 98.2901 212.006C100.952 216.316 102.243 221.162 102.234 225.978C102.234 226.424 101.803 226.787 101.265 226.787C100.736 226.787 100.306 226.424 100.306 225.985C100.277 221.411 99.0142 216.837 96.4799 212.808C90.0412 202.404 75.8723 197.415 63.4256 203.871C46.6538 212.853 45.548 235.587 60.2551 246.444C63.3179 248.712 67.0559 250.375 71.0678 251.063C72.4084 251.29 73.7783 251.419 75.1482 251.449C75.7647 251.464 75.7647 252.243 75.1482 252.258V252.243Z" fill="#FFBA5F"/>
<path d="M84.9162 214.029C85.0604 214.029 85.1773 214.146 85.1773 214.29V211.355C85.1773 210.977 84.8704 210.67 84.4918 210.67H67.6913C67.3127 210.67 67.0058 210.977 67.0058 211.355V213.885C67.0058 214.263 67.3127 214.57 67.6913 214.57H73.2077C73.2222 214.57 73.2337 214.572 73.2423 214.575C74.1477 214.858 74.9234 215.648 75.3421 216.735C75.3554 216.769 75.3497 216.801 75.3294 216.828C75.3078 216.857 75.2698 216.88 75.2212 216.88H67.7007C67.3221 216.88 67.0152 217.187 67.0152 217.565V219.489C67.0152 219.868 67.3221 220.175 67.7007 220.175H75.2224C75.2709 220.175 75.3088 220.197 75.3305 220.227C75.3508 220.254 75.3566 220.286 75.3433 220.32C74.8163 221.698 73.7225 222.598 72.5012 222.598H67.7007C67.3221 222.598 67.0152 222.904 67.0152 223.283V226.006C67.0152 226.123 67.0454 226.239 67.1029 226.341L75.3493 241.04C75.4706 241.256 75.6992 241.39 75.9471 241.39H78.7844C79.3083 241.39 79.6386 240.826 79.3822 240.369L71.6572 226.6C71.6032 226.504 71.6727 226.385 71.7831 226.385H73.2287C76.2515 226.385 78.7095 223.74 79.3503 220.308C79.3654 220.227 79.4325 220.175 79.5016 220.175H84.5013C84.8798 220.175 85.1868 219.868 85.1868 219.489V217.565C85.1868 217.187 84.8798 216.88 84.5013 216.88H79.5024C79.433 216.88 79.3661 216.828 79.3514 216.747C79.2268 216.067 79.034 215.42 78.7774 214.82C78.7227 214.692 78.8211 214.57 78.9224 214.57H84.9162V214.3V214.29V214.029Z" fill="#1E1E1E" stroke="black" stroke-width="0.541166"/>
<path d="M83.6157 213.948C83.6105 213.948 83.6062 213.943 83.6062 213.938V211.003C83.6062 210.774 83.4205 210.588 83.1913 210.588H66.3907C66.1616 210.588 65.9758 210.774 65.9758 211.003V213.533C65.9758 213.762 66.1616 213.948 66.3907 213.948H71.9072C71.9462 213.948 71.9851 213.953 72.0224 213.965C73.0233 214.277 73.8526 215.139 74.2941 216.285C74.392 216.539 74.1932 216.798 73.9207 216.798H66.4002C66.1711 216.798 65.9853 216.984 65.9853 217.213V219.137C65.9853 219.366 66.1711 219.552 66.4002 219.552H73.9219C74.194 219.552 74.3928 219.811 74.2956 220.065C73.7412 221.514 72.5661 222.516 71.2007 222.516H66.4002C66.171 222.516 65.9853 222.702 65.9853 222.931V225.654C65.9853 225.725 66.0036 225.795 66.0383 225.857L74.2848 240.555C74.3582 240.686 74.4966 240.767 74.6466 240.767H77.4838C77.801 240.767 78.0008 240.425 77.8457 240.149L70.1207 226.38C69.9655 226.104 70.1654 225.762 70.4826 225.762H71.9283C74.7768 225.762 77.1578 223.259 77.7838 219.906C77.8216 219.703 77.9953 219.552 78.2011 219.552H83.2008C83.4299 219.552 83.6157 219.366 83.6157 219.137V217.213C83.6157 216.984 83.4299 216.798 83.2008 216.798H78.2018C77.9957 216.798 77.8218 216.647 77.7847 216.444C77.6635 215.783 77.4763 215.154 77.2282 214.574C77.1046 214.285 77.3078 213.948 77.6219 213.948H83.6157Z" fill="#FFA86B" stroke="#1E1E1E" stroke-width="0.541166" stroke-miterlimit="10"/>
<g style="mix-blend-mode:color-burn" opacity="0.2">
<path d="M106.022 240.57C100.446 253.602 88.1861 262.622 73.9966 262.539C59.7564 262.457 47.5577 253.235 42.1643 240.058C42.3979 240.534 45.0591 245.809 51.8847 245.506C53.3066 245.442 54.6372 246.138 55.3888 247.32C57.9585 251.358 63.3113 254.948 69.6697 256.633C99.1659 263.409 96.2102 231.459 90.9285 211.129L96.6571 219.279L99.3893 245.287L99.0135 246.624C99.623 245.809 100.212 244.948 100.771 244.032L106.012 240.57H106.022Z" fill="#3E2670"/>
</g>
<path d="M289.734 125.74C282.277 140.255 266.629 148.644 249.971 153.067L244.657 139.736C265.955 137.084 280.022 131.728 289.734 125.74Z" fill="#C97043"/>
<path d="M260.071 148.117C237.615 158.182 208.592 158.536 195.113 155.841C196.712 150.916 197.8 146.311 198.008 142.087C199.209 116.652 251.82 127.184 258.983 140.005L260.071 148.117Z" fill="#5E5E6D"/>
<path d="M289.734 125.74C282.277 140.255 266.629 148.644 249.971 153.067L244.657 139.736C265.955 137.084 280.022 131.728 289.734 125.74Z" fill="#5E5E6D"/>
<path d="M291.004 135.443C300.508 153.456 309.753 193.914 259.173 190.13C230.651 187.996 214.416 160.186 233.64 154.968C240.959 153.326 261.445 156.722 266.362 154.795C278.838 149.897 287.608 129.024 290.995 135.443H291.004Z" fill="#F99D29"/>
<path d="M259.172 190.131C286.596 192.178 296.438 181.223 298.175 167.901C299.643 156.644 295.349 143.694 291.003 135.443C287.616 129.024 278.846 149.888 266.369 154.795C266.343 154.804 266.326 154.812 266.3 154.821C261.272 156.705 240.932 153.344 233.648 154.977C214.423 160.186 230.659 188.005 259.181 190.139L259.172 190.131Z" fill="#FFEDE0"/>
<path d="M259.173 190.13C286.597 192.178 296.439 181.223 298.175 167.901C292.767 178.89 276.151 182.562 271.062 175.616C265.809 168.454 269.135 167.633 266.31 154.812C261.281 156.696 240.942 153.335 233.658 154.968C214.433 160.177 230.668 187.996 259.19 190.13H259.173Z" fill="#F79247"/>
<path d="M259.173 190.13C286.597 192.178 296.439 181.232 298.175 167.892C292.767 178.882 276.151 182.553 271.053 175.607C265.8 168.445 269.127 167.625 266.301 154.804C265.999 154.916 265.644 155.011 265.247 155.089C261.48 155.814 253.479 155.089 246.16 154.709C241.14 154.449 236.44 154.346 233.649 154.968C214.416 160.177 230.66 187.996 259.181 190.13H259.173Z" fill="#FFEDE0"/>
<path d="M255.837 170.769C266.232 172.946 264.763 162.355 265.065 154.855C261.013 155.227 252.632 153.637 244.942 152.462C242.92 155.322 239.853 158.951 236.112 161.499C231.886 164.368 252.001 169.975 255.837 170.778V170.769Z" fill="#C97043"/>
<path d="M265.558 191.789C263.484 191.789 261.324 191.703 259.069 191.539C239.671 190.087 224.991 176.765 223.946 165.715C223.384 159.78 226.789 155.374 233.278 153.611C233.295 153.611 233.321 153.603 233.338 153.594C237.131 152.748 244 153.162 250.653 153.56C256.745 153.931 263.648 154.346 265.86 153.473C271.71 151.175 276.808 145.033 280.912 140.099C284.679 135.564 287.185 132.574 289.708 132.825C290.442 132.903 291.479 133.3 292.257 134.778C298.944 147.46 303.835 166.752 295.592 179.383C290.209 187.625 280.126 191.781 265.567 191.781L265.558 191.789ZM233.986 156.333C228.819 157.741 226.313 160.895 226.745 165.439C227.195 170.147 230.755 175.573 236.276 179.953C242.601 184.973 250.774 188.083 259.285 188.722C276.272 189.992 287.686 186.338 293.233 177.845C301.338 165.439 294.866 145.767 289.768 136.099C289.561 135.702 289.414 135.633 289.414 135.633C288.429 135.425 285.206 139.33 283.072 141.905C278.769 147.089 273.412 153.542 266.889 156.1C264.098 157.197 257.79 156.817 250.489 156.367C244.052 155.979 237.399 155.573 233.986 156.324V156.333Z" fill="#1E1E1E"/>
<path d="M309.917 257.449C305.856 257.933 291.401 255.168 287.677 254.987C282.173 254.719 271.528 255.617 260.037 257.561C260.037 257.561 273.006 212.774 272.971 207.599C294.477 202.424 315.318 216.532 315.318 216.532C315.318 216.532 315.499 256.784 309.917 257.449Z" fill="#777883"/>
<path d="M314.575 238.736C313.875 248.179 312.535 257.129 309.917 257.44C305.856 257.924 291.401 255.159 287.677 254.978C282.165 254.702 271.528 255.609 260.037 257.553C260.037 257.553 273.014 212.766 272.971 207.591C276.747 206.684 280.506 206.364 284.126 206.468C301.156 206.925 315.318 216.524 315.318 216.524C315.318 216.524 315.37 227.954 314.566 238.736H314.575Z" fill="#FFEDE0"/>
<path d="M314.575 238.736C313.875 248.179 312.535 257.129 309.917 257.44C305.856 257.924 291.401 255.159 287.677 254.978C282.165 254.702 271.528 255.609 260.037 257.553C260.037 257.553 273.014 212.766 272.971 207.591C276.747 206.684 280.506 206.364 284.126 206.468C284.964 211.34 286.269 219.962 287.202 230.969C288.092 241.552 298.711 236.334 300.102 229.405C301.545 222.235 305.113 220.152 305.113 220.152C305.113 220.152 309.995 229.535 314.566 238.727L314.575 238.736Z" fill="#FFEDE0"/>
<path d="M260.045 259.229C259.579 259.229 259.121 259.03 258.801 258.667C258.421 258.235 258.283 257.648 258.447 257.095C263.631 239.185 271.338 211.228 271.321 207.608C271.321 206.83 271.84 206.157 272.591 205.975C294.555 200.688 315.378 214.554 316.251 215.15C316.709 215.461 316.977 215.971 316.985 216.524C316.985 216.628 317.02 226.762 316.372 236.844C315.145 255.894 312.639 258.797 310.116 259.099C307.326 259.427 300.69 258.451 294.832 257.587C291.773 257.138 288.887 256.706 287.6 256.645C281.862 256.36 271.157 257.363 260.313 259.203C260.218 259.22 260.132 259.229 260.037 259.229H260.045ZM285.543 253.276C286.347 253.276 287.09 253.293 287.772 253.328C289.215 253.397 292.049 253.82 295.324 254.304C300.344 255.047 307.187 256.058 309.633 255.816C310.021 255.496 312.086 253.026 313.123 235.626C313.598 227.755 313.659 220.049 313.668 217.466C309.926 215.159 292.455 205.258 274.527 208.982C273.412 216.8 265.091 246.071 262.378 255.514C271.269 254.114 279.866 253.293 285.543 253.293V253.276Z" fill="#1E1E1E"/>
<path d="M299.618 248.291C301.666 253.397 305.105 258.235 313.815 257.337C326.49 256.032 337.688 235.168 334.75 219.038C332.573 207.064 318.93 204.411 309.987 211.461C305.77 214.787 301.77 222.52 299.618 232.749V248.3V248.291Z" fill="#777883"/>
<path d="M331.06 241.95C327.069 250.226 320.657 256.628 313.823 257.328C305.105 258.226 301.666 253.38 299.627 248.282V232.731C299.739 232.204 299.86 231.677 299.972 231.168C302.184 221.716 305.995 214.597 309.987 211.453C318.929 204.403 332.572 207.064 334.75 219.029C336.098 226.459 334.456 234.883 331.06 241.95Z" fill="#FFEDE0"/>
<g opacity="0.3">
<path d="M335.173 226.347C335.113 225.129 334.974 223.919 334.758 222.736C332.581 210.77 318.929 208.109 309.995 215.159C306.003 218.312 301.839 223.289 299.627 232.74C299.739 232.213 299.86 231.686 299.972 231.176C302.184 221.725 305.995 214.606 309.987 211.461C318.929 204.411 332.572 207.072 334.75 219.038C335.182 221.397 335.303 223.867 335.165 226.356L335.173 226.347Z" fill="white"/>
</g>
<path d="M331.06 241.95C327.069 250.226 320.657 256.628 313.823 257.328C305.105 258.227 301.666 253.38 299.627 248.283V232.732C299.739 232.205 299.86 231.677 299.972 231.168L300.923 228.593C300.171 232.516 304.768 251.151 316.536 251.738C322.126 252.015 327.146 247.436 331.069 241.95H331.06Z" fill="#FFEDE0"/>
<path d="M299.618 248.291C301.286 250.347 302.807 252.291 304.638 253.561C308.224 256.179 313.253 256.205 317.253 254.468C327.708 249.345 333.566 235.6 333.506 224.299C333.48 219.824 332.486 214.882 328.78 212.066C324.338 208.55 317.763 208.791 312.95 211.547C306.021 215.435 302.435 225.457 299.627 232.74C300.249 224.256 303.412 213.137 311.205 208.541C317.167 204.843 325.462 204.601 331.087 209.172C339.632 216.014 337.377 230.762 333.869 239.729C330.879 247.09 326.283 254.442 318.783 257.907C314.877 259.617 310.298 259.73 306.315 258.14C302.357 256.524 299.904 252.421 299.627 248.274L299.618 248.291Z" fill="#1E1E1E"/>
<path d="M223.842 266.754C219.142 267.307 215.945 267.86 212.895 267.35C202.984 265.708 195.45 262.175 190.067 256.222C184.961 250.572 181.79 242.745 180.364 232.282C180.338 232.075 180.303 231.859 180.286 231.652C181.47 235.142 182.991 237.967 184.9 238.909C187.069 239.972 189.367 240.542 192.478 239.972C197.705 239.021 215.763 257.95 223.834 266.754H223.842Z" fill="#B35D37"/>
<path d="M284.947 219.038C286.528 202.2 273.516 184.497 264.253 155.028L262.154 139.996C254.706 127.175 199.952 116.634 198.708 142.078C197.61 164.411 170.687 197.171 176.122 232.273C179.44 253.725 189.877 264.153 209.966 267.35C214.226 268.023 218.745 266.805 226.962 266.226C237.866 265.449 271.166 262.943 278.666 246.986C278.666 246.986 280.558 242.736 282.441 234.381C284.213 226.537 284.947 219.038 284.947 219.038Z" fill="#FFEDE0"/>
<path d="M268.789 257.077C269.325 256.775 269.843 256.464 270.353 256.144C269.852 256.464 269.325 256.775 268.789 257.077Z" fill="white"/>
<path d="M284.817 211.885C281.767 233.915 254.922 237.587 238.038 227.643C235.178 225.958 232.388 224.913 229.674 224.386L216.489 191.642L231.653 174.286C246.203 175.547 261.497 172.342 268.185 164.566C275.27 184.705 283.262 198.96 284.809 211.885H284.817Z" fill="#FFEDE0"/>
<path d="M201.273 212.429C206.734 209.56 197.748 190.778 200.6 175.711C202.258 166.951 234.807 221.898 234.807 221.898" fill="#1E1E1E"/>
<path d="M229.683 224.386L232.958 232.524C232.958 232.524 231.593 252.119 231.126 266.089C230.435 266.14 229.796 266.192 229.226 266.235C221.328 266.814 216.991 268.032 212.904 267.359C195.917 264.542 186.11 256.136 181.824 239.54C184.659 240.749 188.046 241.121 192.487 239.972C197.956 238.555 212.092 220.878 229.683 224.386Z" fill="#FFEDE0"/>
<path d="M262.154 139.996C260.011 137.758 257.307 136.419 254.516 135.14C243.456 130.302 231.074 127.684 218.917 128.609C210.407 129.265 200.954 132.747 200.583 142.164C200.202 148.471 198.215 154.423 196.02 160.264C191.648 171.651 186.3 182.579 182.446 194.079C178.627 205.353 176.26 217.284 177.53 229.111C178.584 237.777 180.848 246.606 186.481 253.509C192.098 260.421 200.712 263.92 209.646 265.363C212.575 265.933 215.453 265.492 218.442 265.164C227.731 264.093 237.235 263.894 246.42 262.175C255.458 260.49 264.495 258.157 272.177 253.259C274.665 251.6 276.92 249.561 278.648 246.986C276.808 253.034 271.079 257.337 265.411 260.058C259.631 262.831 253.367 264.378 247.085 265.604C237.745 267.505 228.327 267.764 218.917 268.957C215.695 269.337 212.221 269.76 208.955 269.112C199.295 267.566 189.514 263.514 183.449 255.816C179.37 250.805 176.951 244.766 175.482 238.649C171.637 223.504 174.126 207.625 179.129 193.05C183.794 178.605 191.234 165.119 195.364 150.57C196.115 147.719 196.668 144.834 196.807 141.991C196.928 138.622 198.094 135.158 200.341 132.505C206.933 124.954 218.805 124.16 228.292 124.825C238.557 125.663 258.024 129.792 262.145 139.987L262.154 139.996Z" fill="#1E1E1E"/>
<path d="M284.956 219.038C284.481 207.668 279.426 197.629 275.305 187.253C271.036 176.852 267.027 166.165 265.074 155.02C266.25 157.603 267.321 160.203 268.444 162.778C271.658 170.303 275.279 178.45 278.381 185.983C282.45 196.316 287.194 207.694 284.965 219.029L284.956 219.038Z" fill="#1E1E1E"/>
<path d="M253.348 237.432C269.218 234.083 278.637 215.04 274.385 194.9C270.133 174.76 253.821 161.149 237.95 164.499C222.08 167.848 212.662 186.891 216.914 207.031C221.166 227.171 237.478 240.782 253.348 237.432Z" fill="white"/>
<path d="M237.952 164.506C229.26 166.337 222.494 173.301 219.263 181.353C212.852 197.379 217.457 217.301 230.089 228.878C244.32 241.958 263.415 237.932 271.148 220.204C278.017 204.506 274.19 184.437 261.843 172.359C255.639 166.294 246.627 162.657 237.943 164.497L237.952 164.506ZM237.952 164.506C246.653 162.614 255.708 166.182 262.11 172.091C275.175 184.117 279.884 204.489 273.257 221.103C265.29 240.662 243.75 245.215 228.551 230.537C215.781 218.01 211.849 197.482 218.935 181.206C222.391 173.214 229.234 166.285 237.961 164.506H237.952Z" fill="#1E1E1E"/>
<path d="M230.02 167.357C232.422 179.452 237.027 191.504 246.316 202.346C252.494 209.56 263.173 218.433 264.141 231.651C265.065 244.265 253.937 247.997 246.99 247.142C236.794 245.881 235.999 237.63 229.294 232.74C203.46 213.543 200.6 190.053 200.6 168.445L230.029 167.357H230.02Z" fill="#FFEDE0"/>
<path d="M230.02 167.357C233.726 179.003 238.703 190.269 246.514 199.712C253.081 207.582 261.566 214.943 264.624 225.241C265.86 229.492 266.43 234.14 265.056 238.451C262.957 245.285 255.656 249.077 248.847 249.017C240.699 248.93 236.923 244.879 232.569 238.762C231.359 237.172 230.115 235.738 228.663 234.598L226.218 232.723C213.638 223.099 204.271 209.059 201.472 193.344C199.908 185.12 199.83 176.722 200.582 168.437L201.169 174.605C201.377 176.653 201.619 178.7 201.887 180.731C204.47 201.163 212.151 217.016 228.508 229.785L230.961 231.677C232.759 233.094 234.219 234.814 235.498 236.498C239.274 241.717 241.987 245.345 248.864 245.475C254.351 245.552 260.123 242.788 261.851 237.38C263.527 231.833 261.747 225.82 259.086 220.852C256.243 215.599 251.932 211.133 247.819 206.735C243.464 202.2 239.593 197.016 236.759 191.383C232.949 183.927 230.659 175.668 230.002 167.34L230.02 167.357Z" fill="#1E1E1E"/>
<path d="M234.444 273.155C232.794 273.371 214.528 272.646 203.805 260.36C203.805 260.36 194.629 251.825 192.486 239.971C188.996 220.662 200.6 212.662 200.6 212.662C220.308 205.586 231.489 226.122 231.489 226.122C231.489 226.122 231.817 229.466 232.267 234.373C233.502 247.816 235.654 273 234.444 273.155Z" fill="#FFEDE0"/>
<path d="M203.805 260.36C211.84 266.321 221.137 269.967 230.961 271.324C232.059 271.445 233.139 271.54 234.227 271.505C233.847 271.522 233.294 271.868 233.104 272.239C232.983 272.473 233.026 272.429 233.026 272.404C233.026 272.369 233.044 272.3 233.052 272.231C233.217 270.494 233.113 268.645 233.052 266.788C232.404 253.302 231.091 239.746 229.829 226.286L230.028 226.917C229.665 226.39 229.216 225.759 228.784 225.189C224.058 218.917 217.586 213.439 209.559 212.428C206.596 211.997 203.597 212.212 200.599 212.653C206.077 209.292 213.396 209.12 219.219 211.901C225.129 214.666 229.968 219.521 232.949 225.31C233.994 232.213 234.279 239.289 234.988 246.252C235.61 254.796 236.552 263.263 236.422 271.902C236.336 272.637 236.396 273.069 235.999 273.872C235.817 274.183 235.558 274.468 235.204 274.632C234.945 274.753 234.634 274.814 234.392 274.823C222.926 274.797 209.87 270.797 203.805 260.351V260.36Z" fill="#1E1E1E"/>
<path d="M237.511 272.447C254.282 267.436 247.992 237.293 243.879 229.509C238.427 217.993 225.768 216.118 217.966 220.818C214.795 222.727 205.757 230.399 208.375 245.872C211.14 262.175 223.349 276.585 237.511 272.447Z" fill="#FFEDE0"/>
<g opacity="0.3">
<path d="M246.99 238.866C246.298 236.524 245.547 234.58 244.855 233.267C239.403 221.751 226.745 219.876 218.934 224.567C215.763 226.477 206.725 234.148 209.344 249.622C209.439 250.183 209.542 250.745 209.663 251.306C209.119 249.535 208.687 247.712 208.367 245.864C205.74 230.39 214.787 222.718 217.958 220.809C225.76 216.109 238.427 217.984 243.87 229.5C244.907 231.453 246.074 234.822 246.981 238.857L246.99 238.866Z" fill="white"/>
</g>
<path d="M232.604 274.832C228.984 274.832 225.407 273.769 222.045 271.661C214.451 266.892 208.584 257.121 206.726 246.157C203.659 228.058 215.712 220.23 217.095 219.392C221.596 216.679 227.454 216.023 232.751 217.63C238.255 219.297 242.731 223.254 245.349 228.766C248.787 235.315 252.719 253.354 248.001 264.646C245.971 269.501 242.601 272.663 237.978 274.045C237.978 274.045 237.978 274.045 237.97 274.045C236.181 274.564 234.384 274.823 232.604 274.823V274.832ZM226.884 220.092C224.007 220.092 221.181 220.826 218.814 222.243C217.63 222.96 207.314 229.673 210.009 245.587C211.712 255.643 217 264.551 223.817 268.827C228.059 271.488 232.509 272.171 237.045 270.849C240.665 269.769 243.327 267.246 244.951 263.358C249.219 253.147 245.513 236.161 242.411 230.295C242.402 230.269 242.385 230.252 242.376 230.226C239.542 224.239 235.067 221.803 231.8 220.818C230.193 220.334 228.534 220.092 226.884 220.092Z" fill="#1E1E1E"/>
<path d="M270.283 170.415C268.875 166.579 269.281 161.793 266.611 155.858L270.283 170.415Z" fill="#1E1E1E"/>
<path d="M270.284 170.415C269.212 168.143 268.737 165.577 268.037 163.184C267.363 160.791 266.447 158.536 265.255 156.471L267.977 155.244C268.832 157.767 269.307 160.367 269.506 162.916C269.731 165.447 269.679 167.944 270.292 170.415H270.284Z" fill="#1E1E1E"/>
<mask id="path-59-outside-1_37_134" maskUnits="userSpaceOnUse" x="163" y="0" width="142" height="166" fill="black">
<rect fill="white" x="163" width="142" height="166"/>
<path fill-rule="evenodd" clip-rule="evenodd" d="M240.337 163.072C204.013 166.977 170.186 146.657 166.436 112.851C160.465 59.0182 217.95 49.9035 209.836 3C209.836 3 253.349 10.7409 256.702 54.3097C256.702 54.3097 262.707 43.8387 261.229 30.4648C261.653 30.6721 262.076 30.8968 262.491 31.1214C284.23 42.7414 302.09 71.4244 302.427 100.945C302.833 136.186 273.11 159.538 240.328 163.063"/>
</mask>
<path fill-rule="evenodd" clip-rule="evenodd" d="M240.337 163.072C204.013 166.977 170.186 146.657 166.436 112.851C160.465 59.0182 217.95 49.9035 209.836 3C209.836 3 253.349 10.7409 256.702 54.3097C256.702 54.3097 262.707 43.8387 261.229 30.4648C261.653 30.6721 262.076 30.8968 262.491 31.1214C284.23 42.7414 302.09 71.4244 302.427 100.945C302.833 136.186 273.11 159.538 240.328 163.063" fill="#FFEDE0"/>
<path d="M166.436 112.851L164.436 113.072L164.436 113.072L166.436 112.851ZM209.836 3L210.189 1.01934L207.365 0.517036L207.854 3.3429L209.836 3ZM256.702 54.3097L254.696 54.464L255.197 60.9772L258.447 55.3105L256.702 54.3097ZM261.229 30.4648L262.114 28.6581L258.828 27.0487L259.23 30.6857L261.229 30.4648ZM262.491 31.1214L261.533 32.8904L261.542 32.8956L262.491 31.1214ZM302.427 100.945L300.415 100.968V100.969L302.427 100.945ZM240.122 161.071C204.518 164.899 172.025 144.987 168.435 112.629L164.436 113.072C168.347 148.326 203.508 169.054 240.552 165.072L240.122 161.071ZM168.435 112.629C165.552 86.6272 177.881 71.478 190.474 56.6281C203.012 41.8431 216.055 27.149 211.819 2.6571L207.854 3.3429C211.731 25.7545 200.089 39.0695 187.405 54.0258C174.777 68.9172 161.35 85.2415 164.436 113.072L168.435 112.629ZM209.836 3C209.484 4.98066 209.483 4.98053 209.483 4.98042C209.483 4.98043 209.482 4.98035 209.482 4.98036C209.482 4.98037 209.483 4.9805 209.485 4.98075C209.487 4.98126 209.493 4.98224 209.501 4.98371C209.516 4.98666 209.543 4.99157 209.579 4.99855C209.651 5.01251 209.762 5.03474 209.911 5.0661C210.209 5.12882 210.655 5.22797 211.228 5.3703C212.376 5.65507 214.034 6.11202 216.039 6.79473C220.056 8.16192 225.438 10.4244 230.912 14.0007C241.822 21.1295 253.079 33.4487 254.696 54.464L258.708 54.1553C256.972 31.6019 244.796 18.2663 233.112 10.6324C227.289 6.82737 221.583 4.4316 217.336 2.98584C215.21 2.26207 213.442 1.77388 212.197 1.46513C211.574 1.3107 211.082 1.20099 210.741 1.12904C210.57 1.09307 210.437 1.06652 210.344 1.04852C210.298 1.03953 210.261 1.03267 210.235 1.02784C210.222 1.02543 210.212 1.02352 210.204 1.02211C210.2 1.0214 210.197 1.02082 210.194 1.02036C210.193 1.02013 210.192 1.01987 210.191 1.01976C210.19 1.01953 210.189 1.01934 209.836 3ZM256.702 54.3097C258.447 55.3105 258.447 55.3099 258.448 55.3092C258.448 55.309 258.448 55.3083 258.448 55.3078C258.449 55.3067 258.45 55.3055 258.451 55.3041C258.452 55.3013 258.454 55.2979 258.456 55.2938C258.461 55.2857 258.467 55.275 258.474 55.2618C258.489 55.2353 258.51 55.1987 258.535 55.1523C258.586 55.0594 258.657 54.9268 258.744 54.7566C258.92 54.416 259.164 53.924 259.449 53.2954C260.019 52.0391 260.756 50.2316 261.443 47.9927C262.814 43.5238 264.006 37.2784 263.229 30.2439L259.23 30.6857C259.93 37.0251 258.858 42.702 257.596 46.8121C256.967 48.8628 256.295 50.5089 255.785 51.6338C255.53 52.1958 255.316 52.6263 255.169 52.9107C255.096 53.0528 255.039 53.1583 255.003 53.2253C254.985 53.2588 254.971 53.2827 254.963 53.2967C254.96 53.3037 254.957 53.3082 254.956 53.3102C254.955 53.3113 254.955 53.3117 254.955 53.3114C254.955 53.3113 254.955 53.311 254.956 53.3106C254.956 53.3104 254.956 53.3099 254.956 53.3098C254.956 53.3094 254.957 53.3088 256.702 54.3097ZM260.344 32.2715C260.731 32.4607 261.126 32.67 261.533 32.8904L263.449 29.3524C263.026 29.1235 262.575 28.8835 262.114 28.6581L260.344 32.2715ZM261.542 32.8956C282.593 44.1478 300.086 72.1338 300.415 100.968L304.438 100.922C304.093 70.715 285.867 41.3351 263.439 29.3472L261.542 32.8956ZM300.415 100.969C300.805 134.846 272.224 157.61 240.113 161.063L240.543 165.063C273.995 161.466 304.86 137.525 304.438 100.922L300.415 100.969Z" fill="#1E1E1E" mask="url(#path-59-outside-1_37_134)"/>
<path d="M240.337 163.072C204.013 166.977 170.186 146.657 166.436 112.851C160.465 59.0182 217.95 49.9035 209.836 3C209.836 3 253.349 10.7409 256.702 54.3097C256.702 54.3097 262.707 43.8387 261.229 30.4648C261.653 30.6721 262.076 30.8968 262.491 31.1214C284.23 42.7414 302.09 71.4244 302.427 100.945C302.833 136.186 273.11 159.538 240.328 163.063" stroke="#1E1E1E" stroke-width="1.99981" stroke-miterlimit="10"/>
<path fill-rule="evenodd" clip-rule="evenodd" d="M294.4 104.6C294.987 109.905 294.486 114.838 293.095 119.356C291.592 108.004 284.334 98.63 273.836 93.2822C265.385 88.9798 243.223 86.4052 244.363 101.153C245.297 113.231 260.633 110.717 270.829 113.602C285.258 117.689 289.311 132.047 275.987 141.205C255.319 155.426 221.89 158.761 199.019 148.713C184.935 142.527 187.458 127.684 199.459 121.274C208.782 116.289 224.309 115.486 222.572 103.494C220.447 88.8502 199.373 96.0814 192.072 102.069C182.991 109.516 177.962 120.22 178.982 131.615C176.632 127.494 175.059 122.795 174.471 117.481C172.7 101.516 180.969 86.3275 195.105 76.0292C200.479 72.1156 212.074 66.4135 218.105 70.7765C222.261 73.7916 231.982 90.915 237.512 93.0489C237.512 93.0489 232.777 80.7118 239.905 72.392C255.224 54.517 291.609 79.269 294.417 104.583L294.4 104.6Z" fill="white" stroke="#1E1E1E" stroke-width="0.48403" stroke-miterlimit="10"/>
<path d="M255.052 90.9754C259.329 90.483 263.519 94.4312 264.418 99.7877C265.317 105.144 262.586 109.887 258.309 110.38C254.032 110.872 249.842 106.924 248.943 101.567C248.045 96.2109 250.784 91.4679 255.052 90.9754Z" fill="#1E1E1E"/>
<path d="M209.621 96.8589C205.206 97.6451 202.138 102.665 202.76 108.073C203.382 113.481 207.469 117.222 211.885 116.436C216.3 115.65 219.367 110.63 218.745 105.222C218.123 99.8136 214.036 96.0727 209.621 96.8589Z" fill="#1E1E1E"/>
<path d="M260.469 101.051C262.094 100.707 263.059 98.7637 262.624 96.7098C262.189 94.6559 260.52 93.2695 258.895 93.6133C257.27 93.9572 256.306 95.9009 256.741 97.9549C257.175 100.009 258.845 101.395 260.469 101.051Z" fill="white"/>
<path d="M214.693 107.329C216.261 106.997 217.193 105.123 216.775 103.144C216.356 101.165 214.744 99.8294 213.176 100.161C211.607 100.493 210.675 102.367 211.094 104.346C211.513 106.325 213.124 107.661 214.693 107.329Z" fill="white"/>
<path d="M245.486 113.524C244.752 118.63 237.995 122.777 237.995 122.777C237.995 122.777 230.141 121.559 227.463 117.136C225.553 113.973 234.029 111.693 235.662 111.364C237.295 111.036 246.005 109.87 245.478 113.524H245.486Z" fill="#1E1E1E"/>
<path opacity="0.5" d="M239.758 112.358C239.3 113.706 236.268 114.285 236.268 114.285C236.268 114.285 233.244 114.915 232.293 113.853C231.611 113.093 235.144 112.237 235.827 112.108C236.51 111.978 240.095 111.399 239.767 112.358H239.758Z" fill="white"/>
<path d="M264.391 85.6274C264.391 85.6274 257.073 73.6099 250.722 78.7763C246.817 82.8023 262.456 87.1998 264.391 85.6274Z" fill="#1E1E1E"/>
<path d="M275.028 159.625C286.157 158.329 295.557 144.151 295.082 136.048C295.03 135.201 294.909 134.337 294.719 133.464C292.983 125.387 285.526 116.307 275.685 112.168C268.556 109.17 265.791 112.773 265.42 114.613C264.469 119.434 271.261 122.346 272.557 123.823C272.557 123.823 266.595 128.54 263.778 134.406C262.378 137.326 261.558 141.914 263.519 145.491C263.519 145.491 263.519 145.508 263.528 145.508C263.951 146.277 264.504 146.994 265.204 147.642C265.411 147.841 265.636 148.022 265.869 148.203C265.869 148.255 265.861 148.298 265.861 148.35C265.515 153.404 268.288 160.42 275.028 159.633V159.625Z" fill="#FFEDE0"/>
<path d="M263.527 145.499C263.951 146.268 264.504 146.985 265.204 147.633C264.685 147.045 264.132 146.346 263.527 145.499Z" fill="#EEBDD8"/>
<path d="M289.527 150.242C291.54 146.268 293.337 142.259 293.717 137.905C293.899 135.123 293.086 132.428 291.989 129.888C289.544 124.73 285.612 120.298 280.938 117.041C277.871 114.898 269.291 109.81 267.053 114.907C266.379 118.501 271.477 120.644 273.62 122.89C274.173 123.486 274.086 124.445 273.43 124.929C272.574 125.629 271.693 126.441 270.872 127.253C268.461 129.68 266.223 132.393 264.824 135.529C263.199 139.339 263.191 144.419 266.725 147.089C267.122 147.4 267.295 147.858 267.278 148.324C267.537 151.901 268.211 156.022 271.287 158.268C272.401 159.055 273.654 159.452 275.028 159.633C274.354 159.901 273.628 160.048 272.868 160.083C268.738 160.255 265.549 156.506 264.668 152.756C264.297 151.236 264.184 149.655 264.469 148.1L265.022 149.335C260.434 145.948 260.097 139.287 262.232 134.432C263.787 130.907 266.206 127.953 268.885 125.257C269.775 124.376 270.673 123.555 271.684 122.726L271.494 124.765C271.252 124.514 270.293 123.918 269.939 123.676C267.856 122.285 265.886 121.006 264.504 118.605C262.914 115.849 263.735 112.177 266.491 110.518C271.822 107.347 278.389 111.296 282.873 114.276C286.701 117.032 290.028 120.479 292.525 124.505C294.979 128.557 296.94 133.395 296.301 138.225C295.523 142.907 292.931 147.098 289.509 150.268L289.527 150.242Z" fill="#1E1E1E"/>
<path d="M277.887 125.464C276.125 124.764 273.515 124.246 272.219 125.948L270.509 123.71C273.057 122.268 276.038 123.555 277.887 125.464Z" fill="#1E1E1E"/>
<path d="M197.386 93.213C198.846 87.632 204.6 81.8954 209.966 85.7918C212.204 87.416 212.29 91.0013 210.45 91.5716C207.642 92.4441 204.497 89.6363 197.394 93.213H197.386Z" fill="#1E1E1E"/>
<path d="M243.505 135.277C244.05 135.986 244.569 136.759 244.968 137.557C245.051 137.724 245.26 137.796 245.445 137.709C245.595 137.639 245.668 137.479 245.637 137.33C245.428 136.376 245.115 135.483 244.734 134.584C244.293 133.679 242.916 134.451 243.505 135.277Z" fill="white"/>
<path d="M231.753 136.319C235.446 141.164 242.793 141.218 247.282 137.926C249.985 135.948 251.649 132.752 250.835 128.671C245.084 132.41 235.563 134.728 229.595 130.668C229.87 133.003 230.648 134.874 231.753 136.319Z" fill="#1E1E1E"/>
<path d="M231.752 136.319C235.445 141.165 242.791 141.219 247.28 137.927C244.207 134.288 239.864 136.658 239.864 136.658C236.311 134.011 231.9 136.24 231.761 136.317L231.752 136.319Z" fill="#F37E80"/>
<path d="M238.106 140.744C232.894 140.022 229.397 136.346 228.751 130.893C228.715 130.629 228.932 130.322 229.274 130.154C229.614 129.976 230.01 129.971 230.247 130.135C235.708 133.856 244.702 131.928 250.391 128.221C250.639 128.063 250.934 127.991 251.194 128.034C251.455 128.076 251.631 128.224 251.673 128.428C252.451 132.333 251.117 135.817 247.926 138.237C247.083 138.878 246.148 139.403 245.159 139.813C242.96 140.728 240.477 141.072 238.106 140.744ZM230.78 132.222C231.831 136.235 234.738 138.891 238.804 139.456C241.683 139.852 244.718 139.092 246.914 137.422C249.354 135.576 250.479 132.9 250.138 129.833C244.47 133.09 236.485 134.749 230.78 132.222Z" fill="#1E1E1E"/>
<path d="M251.473 129.041C252.308 128.178 253.068 127.274 253.741 126.281C253.836 126.135 253.798 125.949 253.652 125.854C253.519 125.775 253.341 125.803 253.238 125.911C252.84 126.324 252.416 126.703 251.981 127.075C251.553 127.435 251.088 127.804 250.641 128.12C250.355 128.325 250.281 128.708 250.493 128.984C250.722 129.294 251.209 129.309 251.48 129.029L251.473 129.041Z" fill="#1E1E1E"/>
<path d="M247.487 138.397C247.533 138.387 247.576 138.359 247.628 138.329C247.971 138.121 248.102 137.774 247.911 137.553C245.209 134.35 241.479 135.439 240.105 135.997C236.254 133.451 231.523 135.863 231.48 135.891C231.124 136.082 230.963 136.426 231.117 136.655C231.274 136.893 231.688 136.933 232.045 136.742C232.212 136.659 236.109 134.701 239.318 137.091C239.524 137.242 239.871 137.237 240.176 137.077C240.324 136.997 243.973 135.102 246.672 138.296C246.838 138.484 247.183 138.518 247.496 138.395L247.487 138.397Z" fill="#1E1E1E"/>
<defs>
<filter id="filter0_d_37_134" x="75.5476" y="147.525" width="115.015" height="115.015" filterUnits="userSpaceOnUse" color-interpolation-filters="sRGB">
<feFlood flood-opacity="0" result="BackgroundImageFix"/>
<feColorMatrix in="SourceAlpha" type="matrix" values="0 0 0 0 0 0 0 0 0 0 0 0 0 0 0 0 0 0 127 0" result="hardAlpha"/>
<feOffset dx="2.00119" dy="2.00119"/>
<feComposite in2="hardAlpha" operator="out"/>
<feColorMatrix type="matrix" values="0 0 0 0 0.117647 0 0 0 0 0.117647 0 0 0 0 0.117647 0 0 0 1 0"/>
<feBlend mode="normal" in2="BackgroundImageFix" result="effect1_dropShadow_37_134"/>
<feBlend mode="normal" in="SourceGraphic" in2="effect1_dropShadow_37_134" result="shape"/>
</filter>
<filter id="filter1_d_37_134" x="38.3765" y="188.4" width="75.4527" height="75.4526" filterUnits="userSpaceOnUse" color-interpolation-filters="sRGB">
<feFlood flood-opacity="0" result="BackgroundImageFix"/>
<feColorMatrix in="SourceAlpha" type="matrix" values="0 0 0 0 0 0 0 0 0 0 0 0 0 0 0 0 0 0 127 0" result="hardAlpha"/>
<feOffset dx="1.31283" dy="1.31283"/>
<feComposite in2="hardAlpha" operator="out"/>
<feColorMatrix type="matrix" values="0 0 0 0 0.117647 0 0 0 0 0.117647 0 0 0 0 0.117647 0 0 0 1 0"/>
<feBlend mode="normal" in2="BackgroundImageFix" result="effect1_dropShadow_37_134"/>
<feBlend mode="normal" in="SourceGraphic" in2="effect1_dropShadow_37_134" result="shape"/>
</filter>
</defs>
</svg>
