<svg width="26" height="23" viewBox="0 0 26 23" fill="none" xmlns="http://www.w3.org/2000/svg">
<path d="M9.96496 0C8.64353 0 7.37621 0.524938 6.44181 1.45933C5.50742 2.39373 4.98248 3.66104 4.98248 4.98248C4.98248 6.30392 5.50742 7.57123 6.44181 8.50563C7.37621 9.44002 8.64353 9.96496 9.96496 9.96496C11.2864 9.96496 12.5537 9.44002 13.4881 8.50563C14.4225 7.57123 14.9474 6.30392 14.9474 4.98248C14.9474 3.66104 14.4225 2.39373 13.4881 1.45933C12.5537 0.524938 11.2864 0 9.96496 0ZM9.96496 2.49124C10.6257 2.49124 11.2593 2.75371 11.7265 3.22091C12.1937 3.68811 12.4562 4.32176 12.4562 4.98248C12.4562 5.6432 12.1937 6.27685 11.7265 6.74405C11.2593 7.21125 10.6257 7.47372 9.96496 7.47372C9.30424 7.47372 8.67059 7.21125 8.20339 6.74405C7.73619 6.27685 7.47372 5.6432 7.47372 4.98248C7.47372 4.32176 7.73619 3.68811 8.20339 3.22091C8.67059 2.75371 9.30424 2.49124 9.96496 2.49124ZM18.6843 9.96496C18.485 9.96496 18.3854 10.0646 18.3854 10.2639L18.0615 11.8334C17.7875 12.0576 17.3889 12.2569 17.0899 12.4562L15.4955 11.8334C15.3959 11.8334 15.1966 11.8334 15.0969 11.958L13.9011 14.1502C13.8015 14.2499 13.8015 14.4492 14.0008 14.5488L15.2962 15.5703V16.8159L14.0008 17.8373C13.9011 17.9369 13.8015 18.1362 13.9011 18.2359L15.0969 20.4282C15.1966 20.5527 15.3959 20.5527 15.4955 20.5527L17.0899 19.9299C17.3889 20.1292 17.7875 20.3285 18.0615 20.5527L18.3854 22.1222C18.3854 22.3215 18.485 22.4212 18.6843 22.4212H21.1755C21.2752 22.4212 21.4745 22.3215 21.4745 22.1222L21.6738 20.5527C22.0724 20.3285 22.471 20.1292 22.7699 19.9299L24.2896 20.5527C24.464 20.5527 24.6633 20.5527 24.6633 20.4282L25.9587 18.2359C26.0584 18.1362 25.9587 17.9369 25.8591 17.8373L24.5636 16.8159V15.5703L25.8591 14.5488C25.9587 14.4492 26.0584 14.2499 25.9587 14.1502L24.6633 11.958C24.6633 11.8334 24.464 11.8334 24.2896 11.8334L22.7699 12.4562C22.471 12.2569 22.0724 12.0576 21.6738 11.8334L21.4745 10.2639C21.4745 10.0646 21.2752 9.96496 21.1755 9.96496H18.6843ZM9.96496 11.2106C6.63916 11.2106 0 12.8673 0 16.1931V19.9299H12.0451C11.6964 19.195 11.4472 18.3978 11.3227 17.5632H2.36668V16.1931C2.36668 15.3959 6.26547 13.5773 9.96496 13.5773C10.5006 13.5773 11.0487 13.6271 11.5843 13.7018C11.8334 12.9046 12.1697 12.1573 12.6057 11.4722C11.6341 11.3102 10.7123 11.2106 9.96496 11.2106ZM19.9797 14.3246C20.9762 14.3246 21.7984 15.1467 21.7984 16.2429C21.7984 17.2394 23.1512 14.1502 22.1547 14.1502C21.0586 14.1502 20.2365 13.3281 20.2365 12.3316C20.2365 11.2355 18.8836 14.3246 19.9797 14.3246Z" fill="#C86EF3"/>
<path d="M9.96496 0C8.64353 0 7.37621 0.524938 6.44181 1.45933C5.50742 2.39373 4.98248 3.66104 4.98248 4.98248C4.98248 6.30392 5.50742 7.57123 6.44181 8.50563C7.37621 9.44002 8.64353 9.96496 9.96496 9.96496C11.2864 9.96496 12.5537 9.44002 13.4881 8.50563C14.4225 7.57123 14.9474 6.30392 14.9474 4.98248C14.9474 3.66104 14.4225 2.39373 13.4881 1.45933C12.5537 0.524938 11.2864 0 9.96496 0ZM9.96496 2.49124C10.6257 2.49124 11.2593 2.75371 11.7265 3.22091C12.1937 3.68811 12.4562 4.32176 12.4562 4.98248C12.4562 5.6432 12.1937 6.27685 11.7265 6.74405C11.2593 7.21125 10.6257 7.47372 9.96496 7.47372C9.30424 7.47372 8.67059 7.21125 8.20339 6.74405C7.73619 6.27685 7.47372 5.6432 7.47372 4.98248C7.47372 4.32176 7.73619 3.68811 8.20339 3.22091C8.67059 2.75371 9.30424 2.49124 9.96496 2.49124ZM18.6843 9.96496C18.485 9.96496 18.3854 10.0646 18.3854 10.2639L18.0615 11.8334C17.7875 12.0576 17.3889 12.2569 17.0899 12.4562L15.4955 11.8334C15.3959 11.8334 15.1966 11.8334 15.0969 11.958L13.9011 14.1502C13.8015 14.2499 13.8015 14.4492 14.0008 14.5488L15.2962 15.5703V16.8159L14.0008 17.8373C13.9011 17.9369 13.8015 18.1362 13.9011 18.2359L15.0969 20.4282C15.1966 20.5527 15.3959 20.5527 15.4955 20.5527L17.0899 19.9299C17.3889 20.1292 17.7875 20.3285 18.0615 20.5527L18.3854 22.1222C18.3854 22.3215 18.485 22.4212 18.6843 22.4212H21.1755C21.2752 22.4212 21.4745 22.3215 21.4745 22.1222L21.6738 20.5527C22.0724 20.3285 22.471 20.1292 22.7699 19.9299L24.2896 20.5527C24.464 20.5527 24.6633 20.5527 24.6633 20.4282L25.9587 18.2359C26.0584 18.1362 25.9587 17.9369 25.8591 17.8373L24.5636 16.8159V15.5703L25.8591 14.5488C25.9587 14.4492 26.0584 14.2499 25.9587 14.1502L24.6633 11.958C24.6633 11.8334 24.464 11.8334 24.2896 11.8334L22.7699 12.4562C22.471 12.2569 22.0724 12.0576 21.6738 11.8334L21.4745 10.2639C21.4745 10.0646 21.2752 9.96496 21.1755 9.96496H18.6843ZM9.96496 11.2106C6.63916 11.2106 0 12.8673 0 16.1931V19.9299H12.0451C11.6964 19.195 11.4472 18.3978 11.3227 17.5632H2.36668V16.1931C2.36668 15.3959 6.26547 13.5773 9.96496 13.5773C10.5006 13.5773 11.0487 13.6271 11.5843 13.7018C11.8334 12.9046 12.1697 12.1573 12.6057 11.4722C11.6341 11.3102 10.7123 11.2106 9.96496 11.2106ZM19.9797 14.3246C20.9762 14.3246 21.7984 15.1467 21.7984 16.2429C21.7984 17.2394 20.9762 18.0615 19.9797 18.0615C18.8836 18.0615 18.0615 17.2394 18.0615 16.2429C18.0615 15.1467 18.8836 14.3246 19.9797 14.3246Z" fill="#1E1E1E"/>
</svg>
