<svg width="42" height="42" viewBox="0 0 42 42" fill="none" xmlns="http://www.w3.org/2000/svg">
<rect x="0.5" y="0.5" width="41" height="41" rx="10.5" fill="#1E1E1E" stroke="#1E1E1E"/>
<path d="M20.5455 23.4545C21.4134 23.4545 22.2459 23.1097 22.8596 22.496C23.4734 21.8822 23.8182 21.0498 23.8182 20.1818V15.2727C23.8182 14.4047 23.4734 13.5723 22.8596 12.9586C22.2459 12.3448 21.4134 12 20.5455 12C19.6775 12 18.845 12.3448 18.2313 12.9586C17.6175 13.5723 17.2727 14.4047 17.2727 15.2727V20.1818C17.2727 21.0498 17.6175 21.8822 18.2313 22.496C18.845 23.1097 19.6775 23.4545 20.5455 23.4545ZM18.9091 15.2727C18.9091 14.8387 19.0815 14.4225 19.3884 14.1156C19.6952 13.8088 20.1115 13.6364 20.5455 13.6364C20.9794 13.6364 21.3957 13.8088 21.7025 14.1156C22.0094 14.4225 22.1818 14.8387 22.1818 15.2727V20.1818C22.1818 20.6158 22.0094 21.032 21.7025 21.3389C21.3957 21.6458 20.9794 21.8182 20.5455 21.8182C20.1115 21.8182 19.6952 21.6458 19.3884 21.3389C19.0815 21.032 18.9091 20.6158 18.9091 20.1818V15.2727ZM27.0909 20.1818C27.0909 19.9648 27.0047 19.7567 26.8513 19.6033C26.6978 19.4498 26.4897 19.3636 26.2727 19.3636C26.0557 19.3636 25.8476 19.4498 25.6942 19.6033C25.5407 19.7567 25.4545 19.9648 25.4545 20.1818C25.4545 21.4838 24.9373 22.7324 24.0167 23.6531C23.0961 24.5737 21.8474 25.0909 20.5455 25.0909C19.2435 25.0909 17.9948 24.5737 17.0742 23.6531C16.1536 22.7324 15.6364 21.4838 15.6364 20.1818C15.6364 19.9648 15.5502 19.7567 15.3967 19.6033C15.2433 19.4498 15.0352 19.3636 14.8182 19.3636C14.6012 19.3636 14.3931 19.4498 14.2396 19.6033C14.0862 19.7567 14 19.9648 14 20.1818C14.0014 21.7751 14.584 23.3131 15.6383 24.5075C16.6927 25.702 18.1465 26.4708 19.7273 26.67V28.3636H18.0909C17.8739 28.3636 17.6658 28.4498 17.5124 28.6033C17.3589 28.7567 17.2727 28.9648 17.2727 29.1818C17.2727 29.3988 17.3589 29.6069 17.5124 29.7604C17.6658 29.9138 17.8739 30 18.0909 30H23C23.217 30 23.4251 29.9138 23.5785 29.7604C23.732 29.6069 23.8182 29.3988 23.8182 29.1818C23.8182 28.9648 23.732 28.7567 23.5785 28.6033C23.4251 28.4498 23.217 28.3636 23 28.3636H21.3636V26.67C22.9444 26.4708 24.3982 25.702 25.4526 24.5075C26.507 23.3131 27.0895 21.7751 27.0909 20.1818Z" fill="white"/>
</svg>
