<svg width="42" height="42" viewBox="0 0 42 42" fill="none" xmlns="http://www.w3.org/2000/svg">
<rect x="0.5" y="0.5" width="41" height="41" rx="10.5" fill="#1E1E1E" stroke="#1E1E1E"/>
<path d="M19.9578 14.2091C20.1033 14.0339 20.2836 13.8909 20.4873 13.7893C20.6911 13.6876 20.9138 13.6296 21.1412 13.6188C21.3687 13.608 21.5959 13.6447 21.8083 13.7266C22.0208 13.8085 22.2139 13.9337 22.3752 14.0944C22.671 14.4056 22.8328 14.8205 22.8259 15.2498V18.0441C22.8259 18.2615 22.9123 18.4699 23.0659 18.6236C23.2196 18.7773 23.428 18.8636 23.6454 18.8636C23.8627 18.8636 24.0711 18.7773 24.2248 18.6236C24.3785 18.4699 24.4648 18.2615 24.4648 18.0441V15.2498C24.4461 14.5921 24.2298 13.9552 23.8442 13.422C23.4585 12.8889 22.9213 12.4841 22.3025 12.2605C21.6837 12.0368 21.0119 12.0046 20.3744 12.168C19.737 12.3314 19.1636 12.6828 18.7286 13.1766C18.6333 13.252 18.5559 13.3478 18.5021 13.4568C18.4483 13.5659 18.4195 13.6856 18.4177 13.8072C18.4159 13.9288 18.4412 14.0493 18.4917 14.1599C18.5423 14.2705 18.6168 14.3685 18.71 14.4467C18.8031 14.5249 18.9125 14.5815 19.0301 14.6122C19.1478 14.6429 19.2709 14.647 19.3903 14.6242C19.5098 14.6015 19.6227 14.5524 19.7209 14.4806C19.819 14.4088 19.9 14.3161 19.9578 14.2091ZM26.6938 22.0267H26.8576C27.0505 22.0302 27.2384 21.9656 27.3883 21.8441C27.5382 21.7227 27.6405 21.5523 27.6771 21.3629C27.7358 20.967 27.7578 20.5665 27.7427 20.1665C27.7427 19.9492 27.6563 19.7408 27.5026 19.5871C27.349 19.4334 27.1405 19.3471 26.9232 19.3471C26.7059 19.3471 26.4974 19.4334 26.3438 19.5871C26.1901 19.7408 26.1037 19.9492 26.1037 20.1665C26.1038 20.4693 26.0736 20.7712 26.0136 21.0679C25.9937 21.1757 25.9956 21.2864 26.0192 21.3934C26.0428 21.5005 26.0876 21.6017 26.151 21.6911C26.2145 21.7805 26.2952 21.8562 26.3884 21.9139C26.4816 21.9715 26.5854 22.0099 26.6938 22.0267ZM29.1521 26.9926L14.4019 12.2424C14.3257 12.1656 14.2351 12.1046 14.1352 12.063C14.0354 12.0214 13.9283 12 13.8201 12C13.7119 12 13.6048 12.0214 13.505 12.063C13.4051 12.1046 13.3145 12.1656 13.2383 12.2424C13.0857 12.3959 13 12.6036 13 12.8201C13 13.0366 13.0857 13.2443 13.2383 13.3978L17.9092 18.1015V20.1665C17.9098 20.7416 18.0617 21.3064 18.3496 21.8043C18.6375 22.3021 19.0514 22.7154 19.5496 23.0027C20.0477 23.29 20.6128 23.4411 21.1879 23.441C21.7629 23.4408 22.3279 23.2894 22.8259 23.0018L24.0223 24.1983C23.2852 24.7186 22.419 25.026 21.5188 25.0869C20.6185 25.1478 19.7189 24.9598 18.9184 24.5435C18.1178 24.1271 17.4473 23.4985 16.9802 22.7265C16.5132 21.9545 16.2675 21.0688 16.2703 20.1665C16.2703 19.9492 16.1839 19.7408 16.0303 19.5871C15.8766 19.4334 15.6682 19.3471 15.4508 19.3471C15.2335 19.3471 15.0251 19.4334 14.8714 19.5871C14.7177 19.7408 14.6314 19.9492 14.6314 20.1665C14.6328 21.7623 15.2162 23.3027 16.2722 24.499C17.3283 25.6953 18.7844 26.4654 20.3676 26.6648V28.3611H18.7286C18.5113 28.3611 18.3029 28.4474 18.1492 28.6011C17.9955 28.7548 17.9092 28.9632 17.9092 29.1805C17.9092 29.3979 17.9955 29.6063 18.1492 29.76C18.3029 29.9137 18.5113 30 18.7286 30H23.6454C23.8627 30 24.0711 29.9137 24.2248 29.76C24.3785 29.6063 24.4648 29.3979 24.4648 29.1805C24.4648 28.9632 24.3785 28.7548 24.2248 28.6011C24.0711 28.4474 23.8627 28.3611 23.6454 28.3611H22.0065V26.6648C23.156 26.5217 24.2458 26.0717 25.1614 25.3619L27.9475 28.148C28.1007 28.3023 28.309 28.3895 28.5264 28.3902C28.7439 28.391 28.9527 28.3053 29.1071 28.1521C29.2614 27.9989 29.3485 27.7907 29.3492 27.5732C29.35 27.3558 29.2644 27.1469 29.1112 26.9926H29.1521ZM21.187 21.8054C20.7523 21.8054 20.3355 21.6328 20.0281 21.3254C19.7208 21.0181 19.5481 20.6012 19.5481 20.1665V19.7404L21.5558 21.7563C21.4355 21.7887 21.3116 21.8052 21.187 21.8054Z" fill="white"/>
</svg>
