<svg width="55" height="55" viewBox="0 0 55 55" fill="none" xmlns="http://www.w3.org/2000/svg">
<circle cx="27.1815" cy="27.2879" r="26.4049" fill="#FFA86B" stroke="#1E1E1E" stroke-width="1.55323"/>
<path d="M34.7143 28.2857H28.2857V34.7143C28.2857 35.4214 27.7071 36 27 36C26.2929 36 25.7143 35.4214 25.7143 34.7143V28.2857H19.2857C18.5786 28.2857 18 27.7071 18 27C18 26.2929 18.5786 25.7143 19.2857 25.7143H25.7143V19.2857C25.7143 18.5786 26.2929 18 27 18C27.7071 18 28.2857 18.5786 28.2857 19.2857V25.7143H34.7143C35.4214 25.7143 36 26.2929 36 27C36 27.7071 35.4214 28.2857 34.7143 28.2857Z" fill="#1E1E1E"/>
</svg>
