<svg width="38" height="42" viewBox="0 0 38 42" fill="none" xmlns="http://www.w3.org/2000/svg">
<path d="M35.8015 19.3178L33.7548 18.1491L33.7547 18.149L31.3939 16.8018L31.3939 16.8018L12.6742 6.11631L12.6742 6.11627L8.06382 3.48355L8.06377 3.48352L3.49626 0.876163L3.48922 0.871468L3.47845 0.864289L3.46724 0.857824C2.19157 0.122159 0.601416 1.05386 0.601416 2.51948V39.4831C0.601416 40.9519 2.18673 41.8709 3.46474 41.1462L3.47725 41.1391L3.48922 41.1311L3.49626 41.1264L8.06377 38.519L8.06382 38.519L12.6742 35.8863L21.8641 30.6393L21.8641 30.6393L26.5301 27.9757L26.5302 27.9756L31.1714 25.3244L31.1715 25.3243L35.8372 22.6609L35.8015 19.3178ZM35.2958 19.488C35.2988 19.4831 35.3019 19.4782 35.305 19.4734C35.302 19.4782 35.2991 19.4832 35.2963 19.4883L35.2958 19.488Z" fill="#1E1E1E" stroke="#1E1E1E" stroke-width="0.797168"/>
<path d="M12.4708 14.4172L23.7558 20.8569C24.04 21.0176 24.3923 21.0176 24.6766 20.8569L27.4762 19.2624C28.1004 18.904 28.1004 18.0079 27.4762 17.6494L12.4769 9.0837L7.86654 6.45095L4.67757 4.6278C4.05955 4.27553 3.29321 4.7205 3.29321 5.43122V36.5484C3.29321 37.2591 4.05955 37.7041 4.67757 37.3518L7.40303 35.8006C7.69349 35.6337 7.87272 35.3309 7.87272 34.9972V24.0088C7.87272 23.2981 8.63906 22.8531 9.25708 23.2054L12.4769 25.0471L14.4484 26.1719C14.7327 26.3326 15.085 26.3326 15.3693 26.1719L18.1689 24.5774C18.7931 24.2189 18.7931 23.3228 18.1689 22.9644L12.4769 19.7136L8.33623 17.3466C8.04576 17.1797 7.86654 16.8769 7.86654 16.5432V13.3789C7.86654 12.6682 8.63288 12.2232 9.2509 12.5755L12.4708 14.4172Z" fill="#FFA86B"/>
<path d="M32.8649 20.7316C33.075 20.849 33.075 21.1519 32.8649 21.2693L28.6685 23.6672L24.0272 26.3185L19.3612 28.9821L12.94 32.647C12.7361 32.7644 12.4765 32.6161 12.4765 32.3812V30.7064C12.4765 30.5952 12.5383 30.4901 12.631 30.4407L17.2661 27.7955L21.9322 25.1319L26.5735 22.4806L31.085 19.9035C31.1777 19.8478 31.2951 19.8478 31.394 19.9035L32.8587 20.744L32.8649 20.7316Z" fill="white"/>
</svg>
