<svg width="25" height="24" viewBox="0 0 25 24" fill="none" xmlns="http://www.w3.org/2000/svg">
<circle cx="13.3846" cy="12.5" r="10.6154" fill="white" stroke="black" style="fill:white;fill-opacity:1;stroke:black;stroke-opacity:1;" stroke-width="0.884615"/>
<circle cx="11.6154" cy="11.6154" r="10.6154" fill="#FFE72D" stroke="black" style="fill:#FFE72D;fill:color(display-p3 1.0000 0.9070 0.1758);fill-opacity:1;stroke:black;stroke-opacity:1;" stroke-width="0.884615"/>
<path d="M12.0971 16C11.9905 16 11.9067 15.9771 11.8457 15.9314C11.7924 15.8781 11.7429 15.8248 11.6971 15.7714L9.24 13.04C9.17143 12.9638 9.12571 12.8914 9.10286 12.8229C9.08762 12.7543 9.08 12.659 9.08 12.5371V12.1257C9.08 12.0495 9.10286 11.9848 9.14857 11.9314C9.2019 11.8781 9.27048 11.8514 9.35429 11.8514H9.89143C10.3714 11.8514 10.741 11.7905 11 11.6686C11.259 11.539 11.4343 11.3676 11.5257 11.1543C11.6248 10.941 11.6743 10.6933 11.6743 10.4114C11.6743 10.1448 11.6248 9.90476 11.5257 9.69143C11.4343 9.4781 11.2667 9.30667 11.0229 9.17714C10.779 9.04 10.4362 8.97143 9.99429 8.97143H9.27429C9.1981 8.97143 9.13333 8.94857 9.08 8.90286C9.02667 8.84952 9 8.78095 9 8.69714V8.27429C9 8.1981 9.02667 8.13333 9.08 8.08C9.13333 8.02667 9.1981 8 9.27429 8H13.9943C14.0705 8 14.1352 8.02667 14.1886 8.08C14.2419 8.13333 14.2686 8.1981 14.2686 8.27429V8.69714C14.2686 8.78095 14.2419 8.84952 14.1886 8.90286C14.1352 8.94857 14.0705 8.97143 13.9943 8.97143H12.1771L12.2 8.69714C12.619 8.82667 12.9086 9.05905 13.0686 9.39429C13.2286 9.7219 13.3086 10.0914 13.3086 10.5029C13.3086 10.9448 13.2133 11.3448 13.0229 11.7029C12.8324 12.061 12.5429 12.3467 12.1543 12.56C11.7733 12.7733 11.301 12.8952 10.7371 12.9257L10.3371 12.96L10.4629 12.3086L13.4 15.6229C13.461 15.6914 13.4914 15.7486 13.4914 15.7943C13.4914 15.8629 13.4686 15.9162 13.4229 15.9543C13.3771 15.9848 13.32 16 13.2514 16H12.0971ZM9.27429 10.8229C9.19048 10.8229 9.1219 10.7962 9.06857 10.7429C9.02286 10.6895 9 10.6248 9 10.5486V10.1257C9 10.0419 9.02667 9.97714 9.08 9.93143C9.13333 9.8781 9.1981 9.85143 9.27429 9.85143H13.9943C14.0705 9.85143 14.1352 9.8781 14.1886 9.93143C14.2419 9.97714 14.2686 10.0419 14.2686 10.1257L14.2571 10.5486C14.2571 10.6248 14.2305 10.6895 14.1771 10.7429C14.1314 10.7962 14.0667 10.8229 13.9829 10.8229H9.27429Z" fill="black" style="fill:black;fill-opacity:1;"/>
</svg>
