<svg width="60" height="58" viewBox="0 0 60 58" fill="none" xmlns="http://www.w3.org/2000/svg">
<g filter="url(#filter0_d_2_2469)">
<rect width="56" height="54" rx="12" fill="#FFA86B"/>
<rect x="0.75" y="0.75" width="54.5" height="52.5" rx="11.25" stroke="#1E1E1E" stroke-width="1.5"/>
</g>
<circle cx="29.3847" cy="27.4999" r="10.6154" fill="white" stroke="#1E1E1E" stroke-width="0.884615"/>
<circle cx="27.6154" cy="26.6154" r="10.6154" fill="#FFE72D" stroke="#1E1E1E" stroke-width="0.884615"/>
<path d="M28.0971 31C27.9905 31 27.9067 30.9771 27.8457 30.9314C27.7924 30.8781 27.7429 30.8248 27.6971 30.7714L25.24 28.04C25.1714 27.9638 25.1257 27.8914 25.1029 27.8229C25.0876 27.7543 25.08 27.659 25.08 27.5371V27.1257C25.08 27.0495 25.1029 26.9848 25.1486 26.9314C25.2019 26.8781 25.2705 26.8514 25.3543 26.8514H25.8914C26.3714 26.8514 26.741 26.7905 27 26.6686C27.259 26.539 27.4343 26.3676 27.5257 26.1543C27.6248 25.941 27.6743 25.6933 27.6743 25.4114C27.6743 25.1448 27.6248 24.9048 27.5257 24.6914C27.4343 24.4781 27.2667 24.3067 27.0229 24.1771C26.779 24.04 26.4362 23.9714 25.9943 23.9714H25.2743C25.1981 23.9714 25.1333 23.9486 25.08 23.9029C25.0267 23.8495 25 23.781 25 23.6971V23.2743C25 23.1981 25.0267 23.1333 25.08 23.08C25.1333 23.0267 25.1981 23 25.2743 23H29.9943C30.0705 23 30.1352 23.0267 30.1886 23.08C30.2419 23.1333 30.2686 23.1981 30.2686 23.2743V23.6971C30.2686 23.781 30.2419 23.8495 30.1886 23.9029C30.1352 23.9486 30.0705 23.9714 29.9943 23.9714H28.1771L28.2 23.6971C28.619 23.8267 28.9086 24.059 29.0686 24.3943C29.2286 24.7219 29.3086 25.0914 29.3086 25.5029C29.3086 25.9448 29.2133 26.3448 29.0229 26.7029C28.8324 27.061 28.5429 27.3467 28.1543 27.56C27.7733 27.7733 27.301 27.8952 26.7371 27.9257L26.3371 27.96L26.4629 27.3086L29.4 30.6229C29.461 30.6914 29.4914 30.7486 29.4914 30.7943C29.4914 30.8629 29.4686 30.9162 29.4229 30.9543C29.3771 30.9848 29.32 31 29.2514 31H28.0971ZM25.2743 25.8229C25.1905 25.8229 25.1219 25.7962 25.0686 25.7429C25.0229 25.6895 25 25.6248 25 25.5486V25.1257C25 25.0419 25.0267 24.9771 25.08 24.9314C25.1333 24.8781 25.1981 24.8514 25.2743 24.8514H29.9943C30.0705 24.8514 30.1352 24.8781 30.1886 24.9314C30.2419 24.9771 30.2686 25.0419 30.2686 25.1257L30.2571 25.5486C30.2571 25.6248 30.2305 25.6895 30.1771 25.7429C30.1314 25.7962 30.0667 25.8229 29.9829 25.8229H25.2743Z" fill="#1E1E1E"/>
<defs>
<filter id="filter0_d_2_2469" x="0" y="0" width="60" height="58" filterUnits="userSpaceOnUse" color-interpolation-filters="sRGB">
<feFlood flood-opacity="0" result="BackgroundImageFix"/>
<feColorMatrix in="SourceAlpha" type="matrix" values="0 0 0 0 0 0 0 0 0 0 0 0 0 0 0 0 0 0 127 0" result="hardAlpha"/>
<feOffset dx="4" dy="4"/>
<feComposite in2="hardAlpha" operator="out"/>
<feColorMatrix type="matrix" values="0 0 0 0 0.117647 0 0 0 0 0.117647 0 0 0 0 0.117647 0 0 0 1 0"/>
<feBlend mode="normal" in2="BackgroundImageFix" result="effect1_dropShadow_2_2469"/>
<feBlend mode="normal" in="SourceGraphic" in2="effect1_dropShadow_2_2469" result="shape"/>
</filter>
</defs>
</svg>
