<svg width="21" height="21" viewBox="0 0 21 21" fill="none" xmlns="http://www.w3.org/2000/svg">
<path d="M8.35429 8.35379L8.00029 7.99979M13.0043 13.0038L12.6503 12.6498M8.00029 12.9998L13.0003 7.99979M8.21329 2.13979C8.79429 1.64479 9.08529 1.39679 9.38929 1.25179C9.7362 1.08603 10.1158 1 10.5003 1C10.8848 1 11.2644 1.08603 11.6113 1.25179C11.9153 1.39679 12.2063 1.64479 12.7873 2.13979C13.3863 2.64979 13.9943 2.90779 14.7943 2.97079C15.5553 3.03179 15.9363 3.06279 16.2543 3.17479C16.9883 3.43479 17.5663 4.01179 17.8253 4.74679C17.9373 5.06379 17.9683 5.44479 18.0293 6.20679C18.0923 7.00679 18.3493 7.61379 18.8593 8.21279C19.3553 8.79379 19.6033 9.08479 19.7483 9.38879C20.0843 10.0918 20.0843 10.9088 19.7483 11.6108C19.6033 11.9148 19.3553 12.2058 18.8603 12.7868C18.3651 13.3431 18.0723 14.0503 18.0293 14.7938C17.9683 15.5548 17.9373 15.9358 17.8253 16.2538C17.6971 16.6163 17.4894 16.9456 17.2173 17.2175C16.9453 17.4893 16.6159 17.6968 16.2533 17.8248C15.9363 17.9368 15.5553 17.9678 14.7933 18.0288C13.9933 18.0918 13.3863 18.3488 12.7873 18.8588C12.2063 19.3548 11.9153 19.6028 11.6113 19.7478C11.2644 19.9135 10.8848 19.9996 10.5003 19.9996C10.1158 19.9996 9.7362 19.9135 9.38929 19.7478C9.08529 19.6028 8.79429 19.3548 8.21329 18.8598C7.65699 18.3646 6.94979 18.0718 6.20629 18.0288C5.44529 17.9678 5.06429 17.9368 4.74629 17.8248C4.38373 17.6966 4.05446 17.4889 3.78262 17.2168C3.51078 16.9448 3.30326 16.6154 3.17529 16.2528C3.06329 15.9358 3.03229 15.5548 2.97129 14.7928C2.92839 14.0497 2.63594 13.3429 2.14129 12.7868C1.64529 12.2058 1.39729 11.9148 1.25129 11.6108C1.08569 11.2638 0.999827 10.8842 1 10.4997C1.00017 10.1152 1.08638 9.73563 1.25229 9.38879C1.39729 9.08479 1.64529 8.79379 2.14029 8.21279C2.66029 7.60179 2.90929 6.98979 2.97129 6.20579C3.03229 5.44479 3.06329 5.06379 3.17529 4.74579C3.30349 4.38323 3.51122 4.05396 3.78323 3.78212C4.05524 3.51028 4.38465 3.30276 4.74729 3.17479C5.06429 3.06279 5.44529 3.03179 6.20729 2.97079C6.95034 2.92789 7.65716 2.63444 8.21329 2.13979Z" stroke="#1E1E1E" stroke-width="2" stroke-linecap="round" stroke-linejoin="round"/>
</svg>
