<svg width="21" height="22" viewBox="0 0 21 22" fill="none" xmlns="http://www.w3.org/2000/svg">
<path d="M5.75 14.5852V10.1782C5.75 9.69369 5.845 9.22914 6.02075 8.79784M15.25 12.2102V11.5595M7.8609 6.73349C8.66318 6.27098 9.57397 6.03001 10.5 6.03524C12.666 6.03524 14.4929 7.29874 15.0648 9.02774M8.6 15.5352V13.4671M12.4 15.5352V10.6456C12.4 9.67374 11.5497 8.88524 10.5 8.88524C9.45025 8.88524 8.6 9.67374 8.6 10.6456V11.3999" stroke="#1E1E1E" stroke-width="2" stroke-linecap="round" stroke-linejoin="round"/>
<path d="M12.4 20.0952C11.7857 20.2206 11.1523 20.2839 10.5 20.2852C5.25315 20.2852 1 16.032 1 10.7852C1 5.53831 5.25315 1.28516 10.5 1.28516C15.7468 1.28516 20 5.53831 20 10.7852C20 11.0265 19.9911 11.2655 19.9734 11.5024" stroke="#1E1E1E" stroke-width="2" stroke-linecap="round" stroke-linejoin="round"/>
<path d="M19.2086 16.9603H19.43C19.5812 16.9603 19.7262 17.0203 19.8331 17.1272C19.9399 17.2341 20 17.3791 20 17.5303V19.7153C20 19.8664 19.9399 20.0114 19.8331 20.1183C19.7262 20.2252 19.5812 20.2853 19.43 20.2853H15.82C15.6688 20.2853 15.5238 20.2252 15.4169 20.1183C15.3101 20.0114 15.25 19.8664 15.25 19.7153V17.5303C15.25 17.3791 15.3101 17.2341 15.4169 17.1272C15.5238 17.0203 15.6688 16.9603 15.82 16.9603H16.0414M19.2086 16.9603V15.2978C19.2086 14.7439 18.8913 13.6353 17.625 13.6353C16.3587 13.6353 16.0414 14.7439 16.0414 15.2978V16.9603M19.2086 16.9603H16.0414" stroke="#1E1E1E" stroke-width="1.5" stroke-linecap="round" stroke-linejoin="round"/>
</svg>
