<svg width="19" height="19" viewBox="0 0 19 19" fill="none" xmlns="http://www.w3.org/2000/svg">
<path d="M9.5 19C14.7467 19 19 14.7467 19 9.5C19 4.25329 14.7467 0 9.5 0C4.25329 0 0 4.25329 0 9.5C0 14.7467 4.25329 19 9.5 19Z" fill="#785AA0"/>
<path d="M14.8206 5.12996C13.8072 5.88996 12.8256 6.64996 11.8122 7.40996V5.54163C11.8122 5.1933 11.4006 4.9083 11.1156 5.12996C10.1022 5.88996 9.12057 6.64996 8.10723 7.40996V5.54163C8.10723 5.1933 7.69557 4.9083 7.41057 5.12996C6.17557 6.0483 4.94057 6.9983 3.70557 7.91663C3.23057 8.26496 3.6739 9.11996 4.18057 8.73996C5.1939 7.97996 6.17557 7.21996 7.1889 6.45996V8.3283C7.1889 8.67663 7.60057 8.96163 7.88557 8.73996C8.8989 7.97996 9.88057 7.21996 10.8939 6.45996V8.3283C10.8939 8.67663 11.3056 8.96163 11.5906 8.73996C12.6039 7.97996 13.5856 7.21996 14.5989 6.45996V8.3283C14.5989 8.96163 15.5172 8.96163 15.5172 8.3283V5.54163C15.5172 5.22496 15.1056 4.9083 14.8206 5.12996ZM14.8206 10.1966C13.8072 10.9566 12.8256 11.7166 11.8122 12.4766V10.6083C11.8122 10.26 11.4006 9.97497 11.1156 10.1966C10.1022 10.9566 9.12057 11.7166 8.10723 12.4766V10.6083C8.10723 10.26 7.69557 9.97497 7.41057 10.1966C6.17557 11.115 4.94057 12.065 3.70557 12.9833C3.23057 13.3316 3.6739 14.1866 4.18057 13.8066C5.1939 13.0466 6.17557 12.2866 7.1889 11.5266V13.395C7.1889 13.7433 7.60057 14.0283 7.88557 13.8066C8.8989 13.0466 9.88057 12.2866 10.8939 11.5266V13.395C10.8939 13.7433 11.3056 14.0283 11.5906 13.8066C12.6039 13.0466 13.5856 12.2866 14.5989 11.5266V13.395C14.5989 14.0283 15.5172 14.0283 15.5172 13.395V10.6083C15.5172 10.2916 15.1056 9.97497 14.8206 10.1966Z" fill="white" stroke="white" stroke-width="0.316667" stroke-miterlimit="10"/>
</svg>
