<svg width="22" height="22" viewBox="0 0 22 22" fill="none" xmlns="http://www.w3.org/2000/svg">
<path d="M5.35907 19.1388C6.84157 20.3046 8.71152 21 10.7438 21C12.7761 21 14.6461 20.3046 16.1286 19.1388" stroke="#1E1E1E" stroke-width="2"/>
<path d="M8.17971 3.94727C4.61618 5.04223 2.0257 8.35971 2.0257 12.2823C2.0257 13.2694 2.18975 14.2182 2.49207 15.1029" stroke="#1E1E1E" stroke-width="2"/>
<path d="M13.308 3.94727C16.8716 5.04223 19.4621 8.35971 19.4621 12.2823C19.4621 13.2694 19.298 14.2182 18.9957 15.1029" stroke="#1E1E1E" stroke-width="2"/>
<path d="M20.4877 17.4104C20.4877 18.0984 20.2167 18.7231 19.7758 19.1836C19.309 19.671 18.6517 19.9745 17.9235 19.9745C16.5074 19.9745 15.3594 18.8265 15.3594 17.4104C15.3594 16.3795 15.9676 15.4908 16.8449 15.0834C17.1728 14.9312 17.5383 14.8462 17.9235 14.8462C19.3397 14.8462 20.4877 15.9942 20.4877 17.4104Z" fill="#FFA86B" stroke="#1E1E1E" stroke-width="2" stroke-linecap="round" stroke-linejoin="round"/>
<path d="M13.308 3.56417C13.308 4.25219 13.0371 4.87688 12.5961 5.3374C12.1293 5.82485 11.472 6.12835 10.7439 6.12835C9.32772 6.12835 8.17969 4.98031 8.17969 3.56417C8.17969 2.53333 8.78796 1.64456 9.66522 1.23724C9.99307 1.08499 10.3586 1 10.7439 1C12.16 1 13.308 2.14802 13.308 3.56417Z" fill="#FFA86B" stroke="#1E1E1E" stroke-width="2" stroke-linecap="round" stroke-linejoin="round"/>
<path d="M6.12835 17.4104C6.12835 18.0984 5.85736 18.7231 5.41638 19.1836C4.9496 19.671 4.29235 19.9745 3.56417 19.9745C2.14802 19.9745 1 18.8265 1 17.4104C1 16.3795 1.60829 15.4908 2.48551 15.0834C2.8134 14.9312 3.17887 14.8462 3.56417 14.8462C4.98031 14.8462 6.12835 15.9942 6.12835 17.4104Z" fill="#FFA86B" stroke="#1E1E1E" stroke-width="2" stroke-linecap="round" stroke-linejoin="round"/>
</svg>
