<svg width="10" height="17" viewBox="0 0 10 17" fill="none" xmlns="http://www.w3.org/2000/svg">
<path d="M1.28096 1.29321C1.36941 1.20027 1.47448 1.12653 1.59015 1.07621C1.70583 1.0259 1.82984 1 1.95508 1C2.08032 1 2.20434 1.0259 2.32001 1.07621C2.43569 1.12653 2.54076 1.20027 2.62921 1.29321L8.95912 7.92821C9.02974 8.00207 9.08576 8.08981 9.12398 8.1864C9.16221 8.28299 9.18188 8.38653 9.18188 8.4911C9.18188 8.59567 9.16221 8.69921 9.12398 8.7958C9.08576 8.89239 9.02974 8.98013 8.95912 9.054L2.62921 15.689C2.25596 16.0802 1.6542 16.0802 1.28096 15.689C0.907715 15.2978 0.907715 14.667 1.28096 14.2758L6.79583 8.48711L1.27334 2.69846C0.907716 2.31521 0.907715 1.67646 1.28096 1.29321Z" fill="#1E1E1E" stroke="black" stroke-width="0.5"/>
</svg>
