<svg width="20" height="20" viewBox="0 0 20 20" fill="none" xmlns="http://www.w3.org/2000/svg">
<path d="M8.18076 3.93046L19.0521 1.00002L17.6926 8.59025L14.9121 16.192L13.0405 19.0494L12.0778 17.1624L9.18961 11.5015L5.85855 9.63371L2.05767 8.24346L2.04229 6.34878L8.18076 3.93046Z" fill="#29C610" fill-opacity="0.74"/>
<path d="M19.0057 2.16652C19.0858 1.91195 19.0165 1.63398 18.8263 1.44682C18.636 1.25965 18.357 1.19486 18.1038 1.27907L2.04132 6.62014C1.76369 6.71246 1.57103 6.96551 1.55593 7.2577C1.54083 7.54988 1.70637 7.82145 1.97301 7.94189L8.15377 10.7339C8.38637 10.839 8.65745 10.8112 8.86394 10.6612L12.008 8.37668L9.77481 11.5574C9.62815 11.7663 9.6048 12.0378 9.71363 12.2687L12.6056 18.4033C12.7304 18.6679 13.0046 18.8291 13.2965 18.8092C13.5884 18.7894 13.8383 18.5926 13.9261 18.3135L19.0057 2.16652Z" fill="#FEFFD2" stroke="#1E1E1E" stroke-width="1.42105" stroke-linecap="round" stroke-linejoin="round"/>
</svg>
