<svg width="344" height="310" viewBox="0 0 344 310" fill="none" xmlns="http://www.w3.org/2000/svg">
<path opacity="0.75" d="M293.118 173.501C289.551 241.9 244.424 240.938 191.992 256.226C167.701 263.303 142.618 277.176 121.215 277.176C53.6646 277.176 37.3009 217.61 44.5485 150.456C51.966 81.2076 93.0734 39.7037 164.021 46.7815C231.231 53.4629 297.025 98.7037 293.118 173.501Z" fill="white"/>
<path d="M1 293.199L343 293.199" stroke="#1E1E1E" stroke-width="2" stroke-linecap="round" stroke-linejoin="round"/>
<path d="M17.5305 100.158H108.417C111.967 100.158 114.871 97.2428 114.871 93.6547V41.5305C114.871 37.9914 112.016 35.0766 108.417 35.0766H17.5305C13.9914 35.0766 11.0766 37.9318 11.0766 41.5305V93.7037C11.0766 97.2428 13.9318 100.158 17.5305 100.158Z" fill="#FFA86B" stroke="#1E1E1E" stroke-width="1.84689"/>
<path d="M97.8947 96.1021H103.866" stroke="#1E1E1E" stroke-width="1.84689" stroke-miterlimit="10" stroke-linecap="round" stroke-linejoin="round"/>
<path d="M14.8386 52.0531V91.7948C14.8386 94.193 16.7963 96.1507 19.1945 96.1507H92.2173" stroke="#1E1E1E" stroke-width="1.84689" stroke-miterlimit="10" stroke-linecap="round" stroke-linejoin="round"/>
<path d="M14.8386 41.4813V47.4524" stroke="#1E1E1E" stroke-width="1.84689" stroke-miterlimit="10" stroke-linecap="round" stroke-linejoin="round"/>
<path d="M39.4161 72.3163C38.4337 72.3163 37.61 72.1731 36.9448 71.8865C36.2899 71.6 35.7936 71.2265 35.4559 70.766C35.1182 70.3055 34.9392 69.8144 34.9187 69.2925C34.9187 69.2106 34.9494 69.139 35.0108 69.0776C35.0722 69.0059 35.1489 68.9701 35.241 68.9701H36.8834C37.0165 68.9701 37.1188 69.0008 37.1904 69.0622C37.2621 69.1134 37.3286 69.1799 37.39 69.2618C37.4616 69.4357 37.5742 69.6046 37.7277 69.7683C37.8914 69.932 38.1114 70.0702 38.3877 70.1827C38.664 70.2851 39.0068 70.3362 39.4161 70.3362C40.0812 70.3362 40.5775 70.2288 40.905 70.0139C41.2427 69.799 41.4115 69.5074 41.4115 69.139C41.4115 68.8729 41.3194 68.658 41.1352 68.4943C40.9613 68.3306 40.6799 68.1822 40.291 68.0492C39.9124 67.9161 39.4059 67.7729 38.7714 67.6194C38.004 67.4557 37.349 67.2459 36.8067 66.99C36.2746 66.724 35.8704 66.3863 35.5941 65.977C35.328 65.5574 35.195 65.0407 35.195 64.4267C35.195 63.8127 35.3638 63.2704 35.7015 62.7996C36.0392 62.3187 36.515 61.9452 37.129 61.6791C37.743 61.4028 38.4747 61.2647 39.324 61.2647C40.0096 61.2647 40.6134 61.3568 41.1352 61.541C41.6674 61.7252 42.1074 61.9657 42.4553 62.2624C42.8135 62.5592 43.0846 62.8764 43.2688 63.2141C43.453 63.5518 43.5502 63.8792 43.5605 64.1964C43.5605 64.2783 43.5298 64.3551 43.4684 64.4267C43.407 64.4881 43.3302 64.5188 43.2381 64.5188H41.519C41.4167 64.5188 41.3246 64.4983 41.2427 64.4574C41.1608 64.4165 41.0943 64.3448 41.0431 64.2425C40.9818 63.9764 40.7976 63.7462 40.4906 63.5518C40.1938 63.3471 39.805 63.2448 39.324 63.2448C38.8226 63.2448 38.4235 63.3369 38.1267 63.5211C37.8402 63.7053 37.697 63.9867 37.697 64.3653C37.697 64.6109 37.7686 64.8207 37.9119 64.9946C38.0653 65.1583 38.3161 65.3067 38.664 65.4398C39.0221 65.5625 39.4929 65.7007 40.0761 65.8542C40.9766 66.0384 41.7083 66.2584 42.2711 66.5142C42.8339 66.77 43.2484 67.1026 43.5144 67.5119C43.7805 67.911 43.9135 68.4176 43.9135 69.0315C43.9135 69.7171 43.7191 70.3055 43.3302 70.7967C42.9516 71.2879 42.4246 71.6665 41.7492 71.9326C41.0841 72.1884 40.3064 72.3163 39.4161 72.3163ZM45.7607 72.1628C45.6584 72.1628 45.5714 72.127 45.4998 72.0554C45.4281 71.9837 45.3923 71.8917 45.3923 71.7791V64.5648C45.3923 64.4523 45.4281 64.3602 45.4998 64.2885C45.5714 64.2169 45.6584 64.1811 45.7607 64.1811H47.2957C47.4082 64.1811 47.5003 64.2169 47.572 64.2885C47.6436 64.3602 47.6794 64.4523 47.6794 64.5648V71.7791C47.6794 71.8917 47.6436 71.9837 47.572 72.0554C47.5003 72.127 47.4082 72.1628 47.2957 72.1628H45.7607ZM45.7147 62.9531C45.6123 62.9531 45.5254 62.9173 45.4537 62.8457C45.3821 62.7741 45.3463 62.682 45.3463 62.5694V61.3414C45.3463 61.2289 45.3821 61.1368 45.4537 61.0651C45.5254 60.9833 45.6123 60.9424 45.7147 60.9424H47.3264C47.4389 60.9424 47.531 60.9833 47.6027 61.0651C47.6845 61.1368 47.7255 61.2289 47.7255 61.3414V62.5694C47.7255 62.682 47.6845 62.7741 47.6027 62.8457C47.531 62.9173 47.4389 62.9531 47.3264 62.9531H45.7147ZM53.3497 75.5397C52.5925 75.5397 51.9631 75.4374 51.4617 75.2327C50.9603 75.0383 50.5612 74.7978 50.2645 74.5113C49.9779 74.235 49.7733 73.9587 49.6505 73.6824C49.5277 73.4061 49.4612 73.1912 49.4509 73.0377C49.4407 72.9252 49.4765 72.8331 49.5584 72.7615C49.6403 72.6898 49.7324 72.654 49.8347 72.654H51.4771C51.5692 72.654 51.6459 72.6745 51.7073 72.7154C51.779 72.7666 51.8352 72.8484 51.8762 72.961C51.9273 73.0838 51.999 73.2117 52.0911 73.3447C52.1832 73.488 52.3213 73.6057 52.5055 73.6978C52.6999 73.7899 52.9557 73.8359 53.273 73.8359C53.6311 73.8359 53.9279 73.7848 54.1632 73.6824C54.3986 73.5801 54.5726 73.4061 54.6851 73.1605C54.8079 72.915 54.8693 72.5824 54.8693 72.1628V71.1344C54.6237 71.4005 54.3116 71.6205 53.933 71.7944C53.5646 71.9684 53.1092 72.0554 52.5669 72.0554C52.0348 72.0554 51.5641 71.9735 51.1547 71.8098C50.7557 71.6358 50.4231 71.3954 50.157 71.0884C49.891 70.7711 49.6863 70.3925 49.543 69.9525C49.3998 69.5125 49.3179 69.0162 49.2975 68.4636C49.2872 68.1873 49.2872 67.9161 49.2975 67.6501C49.3179 67.118 49.3998 66.6319 49.543 66.1919C49.6863 65.7519 49.891 65.3732 50.157 65.056C50.4231 64.7286 50.7557 64.4779 51.1547 64.3039C51.5641 64.1197 52.0348 64.0276 52.5669 64.0276C53.1297 64.0276 53.6107 64.135 54.0097 64.3499C54.4088 64.5648 54.7363 64.8309 54.9921 65.1481V64.5648C54.9921 64.4625 55.0279 64.3755 55.0996 64.3039C55.1712 64.222 55.2582 64.1811 55.3605 64.1811H56.8648C56.9671 64.1811 57.0541 64.222 57.1257 64.3039C57.2076 64.3755 57.2485 64.4625 57.2485 64.5648L57.2638 71.9479C57.2638 72.7154 57.1155 73.3652 56.8187 73.8973C56.5219 74.4294 56.0819 74.8336 55.4986 75.1099C54.9256 75.3965 54.2093 75.5397 53.3497 75.5397ZM53.273 70.2595C53.6414 70.2595 53.9381 70.1776 54.1632 70.0139C54.3986 69.8399 54.5726 69.625 54.6851 69.3692C54.7977 69.1032 54.8591 68.8269 54.8693 68.5403C54.8796 68.4278 54.8847 68.2692 54.8847 68.0645C54.8847 67.8496 54.8796 67.6859 54.8693 67.5733C54.8591 67.2868 54.7977 67.0156 54.6851 66.7598C54.5726 66.4937 54.3986 66.2789 54.1632 66.1151C53.9381 65.9514 53.6414 65.8695 53.273 65.8695C52.8841 65.8695 52.5771 65.9565 52.352 66.1305C52.1269 66.2942 51.9631 66.5142 51.8608 66.7905C51.7585 67.0668 51.6971 67.3687 51.6766 67.6961C51.6664 67.9417 51.6664 68.1822 51.6766 68.4176C51.6971 68.7552 51.7585 69.0622 51.8608 69.3385C51.9631 69.6148 52.1269 69.8399 52.352 70.0139C52.5771 70.1776 52.8841 70.2595 53.273 70.2595ZM59.5663 72.1628C59.4639 72.1628 59.3769 72.127 59.3053 72.0554C59.2337 71.9837 59.1979 71.8917 59.1979 71.7791V64.5648C59.1979 64.4523 59.2337 64.3602 59.3053 64.2885C59.3769 64.2169 59.4639 64.1811 59.5663 64.1811H61.0705C61.1831 64.1811 61.2752 64.2169 61.3468 64.2885C61.4184 64.3602 61.4542 64.4523 61.4542 64.5648V65.1635C61.7203 64.836 62.0631 64.5648 62.4827 64.3499C62.9022 64.135 63.4139 64.0276 64.0176 64.0276C64.6214 64.0276 65.1484 64.1657 65.5986 64.442C66.0591 64.7081 66.4172 65.1021 66.6731 65.6239C66.9391 66.1356 67.0722 66.7598 67.0722 67.4966V71.7791C67.0722 71.8917 67.0312 71.9837 66.9494 72.0554C66.8777 72.127 66.7908 72.1628 66.6884 72.1628H65.0614C64.9488 72.1628 64.8567 72.127 64.7851 72.0554C64.7135 71.9837 64.6776 71.8917 64.6776 71.7791V67.5887C64.6776 67.0463 64.5446 66.6268 64.2786 66.33C64.0227 66.023 63.6441 65.8695 63.1427 65.8695C62.6617 65.8695 62.278 66.023 61.9915 66.33C61.705 66.6268 61.5617 67.0463 61.5617 67.5887V71.7791C61.5617 71.8917 61.5259 71.9837 61.4542 72.0554C61.3826 72.127 61.2956 72.1628 61.1933 72.1628H59.5663ZM76.8577 72.3163C75.9572 72.3163 75.1693 72.1679 74.4939 71.8712C73.8185 71.5642 73.2966 71.0986 72.9282 70.4744C72.5598 69.8399 72.3756 69.0366 72.3756 68.0645V61.8019C72.3756 61.6894 72.4115 61.5973 72.4831 61.5256C72.5547 61.454 72.6468 61.4182 72.7594 61.4182H74.4325C74.545 61.4182 74.6371 61.454 74.7088 61.5256C74.7804 61.5973 74.8162 61.6894 74.8162 61.8019V68.0492C74.8162 68.8064 74.9953 69.3692 75.3534 69.7376C75.7116 70.106 76.213 70.2902 76.8577 70.2902C77.4921 70.2902 77.9884 70.106 78.3466 69.7376C78.7047 69.3692 78.8838 68.8064 78.8838 68.0492V61.8019C78.8838 61.6894 78.9196 61.5973 78.9913 61.5256C79.0731 61.454 79.1652 61.4182 79.2676 61.4182H80.956C81.0583 61.4182 81.1453 61.454 81.2169 61.5256C81.2886 61.5973 81.3244 61.6894 81.3244 61.8019V68.0645C81.3244 69.0366 81.1402 69.8399 80.7718 70.4744C80.4034 71.0986 79.8867 71.5642 79.2215 71.8712C78.5564 72.1679 77.7684 72.3163 76.8577 72.3163ZM83.7151 75.0792C83.6025 75.0792 83.5104 75.0434 83.4388 74.9718C83.3672 74.9002 83.3313 74.8081 83.3313 74.6955V64.5648C83.3313 64.4523 83.3672 64.3602 83.4388 64.2885C83.5104 64.2169 83.6025 64.1811 83.7151 64.1811H85.1733C85.2858 64.1811 85.3779 64.2169 85.4496 64.2885C85.5212 64.3602 85.557 64.4523 85.557 64.5648V65.1481C85.8026 64.8207 86.1198 64.5546 86.5087 64.3499C86.8975 64.135 87.3836 64.0276 87.9669 64.0276C88.499 64.0276 88.9595 64.1146 89.3483 64.2885C89.7474 64.4523 90.08 64.6927 90.3461 65.01C90.6223 65.317 90.8321 65.6905 90.9754 66.1305C91.1289 66.5705 91.2159 67.0668 91.2363 67.6194C91.2466 67.8138 91.2517 67.998 91.2517 68.172C91.2517 68.3459 91.2466 68.5352 91.2363 68.7399C91.2261 69.2618 91.1442 69.7427 90.9907 70.1827C90.8475 70.6228 90.6377 71.0014 90.3614 71.3186C90.0851 71.6358 89.7474 71.8814 89.3483 72.0554C88.9595 72.2293 88.499 72.3163 87.9669 72.3163C87.445 72.3163 86.9896 72.2242 86.6008 72.04C86.2222 71.8456 85.9101 71.5847 85.6645 71.2572V74.6955C85.6645 74.8081 85.6286 74.9002 85.557 74.9718C85.4854 75.0434 85.3984 75.0792 85.2961 75.0792H83.7151ZM87.2762 70.4744C87.665 70.4744 87.972 70.3925 88.1971 70.2288C88.4223 70.0548 88.5809 69.8297 88.673 69.5534C88.7753 69.2771 88.8367 68.9752 88.8572 68.6478C88.8776 68.3306 88.8776 68.0133 88.8572 67.6961C88.8367 67.3687 88.7753 67.0668 88.673 66.7905C88.5809 66.5142 88.4223 66.2942 88.1971 66.1305C87.972 65.9565 87.665 65.8695 87.2762 65.8695C86.8975 65.8695 86.5905 65.9565 86.3552 66.1305C86.1198 66.3044 85.951 66.5244 85.8487 66.7905C85.7463 67.0566 85.6849 67.3431 85.6645 67.6501C85.6542 67.8343 85.6491 68.0236 85.6491 68.218C85.6491 68.4124 85.6542 68.6069 85.6645 68.8013C85.6747 69.0878 85.7361 69.359 85.8487 69.6148C85.9715 69.8604 86.1454 70.0651 86.3705 70.2288C86.6059 70.3925 86.9078 70.4744 87.2762 70.4744Z" fill="#1E1E1E"/>
<circle cx="118.959" cy="113.051" r="9.85006" transform="rotate(-6.02423 118.959 113.051)" fill="#FFA86B" stroke="#1E1E1E" stroke-width="1.84689"/>
<circle cx="131.369" cy="127.991" r="4.46331" transform="rotate(-6.02423 131.369 127.991)" fill="#FFA86B" stroke="#1E1E1E" stroke-width="1.84689"/>
<path d="M96.6969 285.477H86.3467C81.4141 285.477 77.2093 281.676 76.805 276.744L74.7835 256.043H108.341L106.319 276.744C105.753 281.676 101.629 285.477 96.6969 285.477Z" fill="white"/>
<mask id="mask0_2_332" style="mask-type:luminance" maskUnits="userSpaceOnUse" x="74" y="256" width="35" height="30">
<path d="M96.6971 285.476H86.3468C81.4143 285.476 77.2095 281.676 76.8052 276.743L74.7837 256.043H108.341L106.32 276.743C105.754 281.676 101.63 285.476 96.6971 285.476Z" fill="white"/>
</mask>
<g mask="url(#mask0_2_332)">
<path d="M111.737 265.1H73.1665V270.76H111.737V265.1Z" fill="#FFA86B"/>
</g>
<path d="M96.6969 285.477H86.3467C81.4141 285.477 77.2093 281.676 76.805 276.744L74.7835 256.043H108.341L106.319 276.744C105.753 281.676 101.629 285.477 96.6969 285.477Z" stroke="#1E1E1E" stroke-width="1.8338" stroke-linecap="round" stroke-linejoin="round"/>
<path d="M96.697 285.477H86.3468C84.5678 285.477 82.9506 284.992 81.4951 284.184L81.2525 287.499H101.872L101.63 284.184C100.093 284.992 98.4759 285.477 96.697 285.477Z" fill="white" stroke="#1E1E1E" stroke-width="1.8338" stroke-linecap="round" stroke-linejoin="round"/>
<path d="M111.899 259.036C110.443 258.713 109.069 259.279 107.775 260.492L107.371 264.697C108.503 262.837 109.877 261.462 111.333 261.866C114.406 262.594 115.457 266.476 114.486 270.519C113.516 274.562 110.282 277.23 107.209 276.502C106.885 276.421 106.562 276.341 106.239 276.26L106.158 276.826C106.077 277.392 105.996 278.039 105.834 278.605C105.996 278.605 106.077 278.686 106.239 278.686C111.009 279.818 115.861 276.341 117.155 271.004C118.529 265.424 116.67 260.168 111.899 259.036Z" fill="white" stroke="#1E1E1E" stroke-width="1.8338" stroke-linecap="round" stroke-linejoin="round"/>
<path d="M91.5215 282.81C88.1254 283.295 84.4058 286.125 84.8101 288.794C85.2144 291.462 89.5809 292.998 92.977 292.513C95.7263 292.109 96.2115 289.845 97.667 288.389C102.033 284.184 118.691 284.265 124.917 284.427C126.13 284.427 127.1 283.376 126.939 282.163C126.777 281.112 125.807 280.384 124.756 280.546C119.58 281.112 105.187 282.891 98.4756 284.589C96.5349 284.993 94.2708 282.406 91.5215 282.81Z" fill="white" stroke="#1E1E1E" stroke-width="1.8338" stroke-linecap="round" stroke-linejoin="round"/>
<path d="M102.761 293.322H78.9072C75.2684 293.322 71.7105 292.594 68.3144 291.3L60.5517 288.228C59.6622 287.904 59.9048 286.53 60.8751 286.53H120.793C121.764 286.53 122.006 287.823 121.117 288.228L113.354 291.3C109.958 292.594 106.4 293.322 102.761 293.322Z" fill="white" stroke="#1E1E1E" stroke-width="1.8338" stroke-linecap="round" stroke-linejoin="round"/>
<path d="M92.0878 213.835C90.8749 211.813 89.2576 210.924 89.2576 210.924" stroke="#1E1E1E" stroke-width="1.8338" stroke-linecap="round" stroke-linejoin="round"/>
<path d="M91.1172 228.794C93.7047 223.7 93.9473 219.819 93.3813 217.069" stroke="#1E1E1E" stroke-width="1.8338" stroke-linecap="round" stroke-linejoin="round"/>
<path d="M86.9934 243.996C86.3465 240.519 86.8317 236.152 89.9044 230.977" stroke="#1E1E1E" stroke-width="1.8338" stroke-linecap="round" stroke-linejoin="round"/>
<path d="M93.2197 253.7C93.2197 253.7 89.3384 251.112 87.6403 246.26" stroke="#1E1E1E" stroke-width="1.8338" stroke-linecap="round" stroke-linejoin="round"/>
<path d="M100.901 222.891C99.9311 220.951 98.3948 220.061 98.3948 220.061" stroke="#1E1E1E" stroke-width="1.8338" stroke-linecap="round" stroke-linejoin="round"/>
<path d="M100.255 233.485C101.872 229.927 102.114 227.258 101.71 225.237" stroke="#1E1E1E" stroke-width="1.8338" stroke-linecap="round" stroke-linejoin="round"/>
<path d="M101.548 253.7C101.548 253.7 92.1686 247.473 98.9609 235.829" stroke="#1E1E1E" stroke-width="1.8338" stroke-linecap="round" stroke-linejoin="round"/>
<path d="M84.0015 232.595C84.0015 231.786 83.8398 231.139 83.678 230.493" stroke="#1E1E1E" stroke-width="1.8338" stroke-linecap="round" stroke-linejoin="round"/>
<path d="M81.6566 239.63C82.7078 237.77 83.3547 236.153 83.6781 234.778" stroke="#1E1E1E" stroke-width="1.8338" stroke-linecap="round" stroke-linejoin="round"/>
<path d="M83.6782 253.7C83.6782 253.7 77.371 249.495 80.6863 241.651" stroke="#1E1E1E" stroke-width="1.8338" stroke-linecap="round" stroke-linejoin="round"/>
<path d="M287.672 138.46C279.102 155.143 261.116 164.785 241.968 169.87L235.861 154.547C260.341 151.499 276.509 145.342 287.672 138.46Z" fill="#C97043"/>
<path d="M253.577 164.18C227.766 175.749 194.407 176.156 178.914 173.058C180.751 167.398 182.002 162.105 182.241 157.249C183.621 128.014 244.093 140.119 252.326 154.856L253.577 164.18Z" fill="#5E5E6D"/>
<path d="M287.672 138.46C279.102 155.143 261.116 164.785 241.968 169.87L235.861 154.547C260.341 151.499 276.509 145.342 287.672 138.46Z" fill="#5E5E6D"/>
<path d="M252.544 212.47C284.066 214.823 295.378 202.232 297.374 186.919C291.157 199.551 272.059 203.771 266.21 195.787C260.172 187.555 263.995 186.612 260.748 171.875C254.968 174.04 231.589 170.177 223.217 172.054C201.12 178.042 219.781 210.017 252.564 212.47H252.544Z" fill="#F79247"/>
<path d="M252.545 212.47C284.067 214.823 295.379 202.242 297.375 186.909C291.158 199.541 272.06 203.761 266.2 195.777C260.162 187.545 263.986 186.601 260.738 171.865C260.391 171.994 259.983 172.103 259.527 172.193C255.196 173.027 246 172.193 237.588 171.756C231.818 171.458 226.415 171.339 223.208 172.054C201.101 178.041 219.771 210.017 252.555 212.47H252.545Z" fill="#FFEDE0"/>
<path d="M248.711 190.217C260.659 192.719 258.971 180.544 259.318 171.925C254.66 172.352 245.027 170.525 236.188 169.174C233.864 172.461 230.339 176.632 226.038 179.561C221.182 182.858 244.302 189.303 248.711 190.226V190.217Z" fill="#C97043"/>
<path d="M310.871 289.847C306.203 290.403 289.588 287.225 285.308 287.017C278.982 286.709 266.746 287.741 253.537 289.976C253.537 289.976 268.444 238.497 268.405 232.549C293.124 226.601 317.078 242.817 317.078 242.817C317.078 242.817 317.287 289.082 310.871 289.847Z" fill="#777883"/>
<path d="M316.224 268.337C315.42 279.191 313.88 289.479 310.871 289.836C306.203 290.392 289.588 287.215 285.308 287.006C278.972 286.688 266.746 287.731 253.537 289.965C253.537 289.965 268.454 238.487 268.405 232.539C272.745 231.496 277.065 231.129 281.226 231.248C300.801 231.774 317.078 242.807 317.078 242.807C317.078 242.807 317.138 255.944 316.214 268.337H316.224Z" fill="#FFEDE0"/>
<path d="M316.224 268.337C315.42 279.191 313.88 289.479 310.871 289.836C306.203 290.392 289.588 287.215 285.308 287.006C278.972 286.688 266.746 287.731 253.537 289.965C253.537 289.965 268.454 238.487 268.405 232.539C272.745 231.496 277.065 231.129 281.226 231.248C282.189 236.848 283.689 246.759 284.762 259.41C285.784 271.575 297.99 265.577 299.589 257.613C301.248 249.37 305.349 246.977 305.349 246.977C305.349 246.977 310.96 257.762 316.214 268.327L316.224 268.337Z" fill="#FFEDE0"/>
<path d="M253.548 291.892C253.011 291.892 252.485 291.663 252.118 291.246C251.681 290.75 251.522 290.075 251.71 289.439C257.669 268.854 266.528 236.719 266.508 232.559C266.508 231.665 267.104 230.89 267.968 230.682C293.213 224.604 317.148 240.543 318.151 241.228C318.677 241.585 318.985 242.171 318.995 242.807C318.995 242.926 319.035 254.574 318.29 266.163C316.88 288.059 314 291.395 311.1 291.743C307.892 292.12 300.265 290.998 293.531 290.005C290.016 289.489 286.699 288.992 285.219 288.923C278.624 288.595 266.319 289.747 253.856 291.862C253.746 291.882 253.647 291.892 253.538 291.892H253.548ZM282.855 285.05C283.779 285.05 284.633 285.07 285.417 285.109C287.076 285.189 290.333 285.676 294.097 286.232C299.867 287.086 307.733 288.247 310.544 287.969C310.991 287.602 313.364 284.762 314.556 264.762C315.102 255.716 315.172 246.858 315.182 243.889C310.881 241.238 290.8 229.858 270.193 234.138C268.912 243.124 259.348 276.768 256.229 287.622C266.449 286.013 276.33 285.07 282.855 285.07V285.05Z" fill="#1E1E1E"/>
<path d="M299.033 279.32C301.387 285.189 305.339 290.75 315.35 289.717C329.919 288.217 342.79 264.236 339.414 245.696C336.911 231.933 321.23 228.884 310.951 236.987C306.104 240.81 301.506 249.698 299.033 261.455V279.33V279.32Z" fill="#777883"/>
<path d="M335.173 272.032C330.585 281.546 323.216 288.904 315.36 289.708C305.34 290.741 301.387 285.17 299.043 279.311V261.437C299.172 260.831 299.311 260.225 299.441 259.64C301.983 248.776 306.363 240.593 310.951 236.979C321.23 228.876 336.911 231.934 339.414 245.688C340.963 254.228 339.076 263.91 335.173 272.032Z" fill="#FFEDE0"/>
<g opacity="0.3">
<path d="M339.901 254.098C339.831 252.698 339.672 251.307 339.424 249.947C336.921 236.194 321.23 233.135 310.961 241.238C306.373 244.863 301.586 250.583 299.043 261.446C299.172 260.841 299.311 260.235 299.441 259.649C301.983 248.785 306.363 240.603 310.951 236.988C321.23 228.885 336.911 231.943 339.414 245.697C339.911 248.408 340.05 251.248 339.891 254.108L339.901 254.098Z" fill="white"/>
</g>
<path d="M335.173 272.031C330.585 281.545 323.216 288.903 315.361 289.707C305.34 290.74 301.387 285.169 299.043 279.31V261.436C299.172 260.83 299.311 260.224 299.441 259.638L300.533 256.679C299.669 261.188 304.952 282.607 318.479 283.282C324.904 283.6 330.675 278.337 335.183 272.031H335.173Z" fill="#FFEDE0"/>
<path d="M299.033 279.321C300.95 281.684 302.698 283.918 304.803 285.378C308.925 288.387 314.705 288.417 319.303 286.421C331.32 280.532 338.053 264.733 337.984 251.744C337.954 246.6 336.812 240.92 332.551 237.683C327.447 233.641 319.889 233.919 314.357 237.087C306.392 241.556 302.271 253.075 299.043 261.446C299.758 251.695 303.393 238.914 312.351 233.631C319.204 229.381 328.738 229.103 335.203 234.356C345.025 242.221 342.433 259.172 338.401 269.48C334.965 277.94 329.681 286.391 321.061 290.373C316.572 292.339 311.308 292.468 306.73 290.641C302.181 288.784 299.361 284.067 299.043 279.301L299.033 279.321Z" fill="#1E1E1E"/>
<path d="M211.935 300.542C206.533 301.177 202.858 301.813 199.352 301.227C187.961 299.34 179.301 295.279 173.114 288.437C167.245 281.942 163.6 272.946 161.961 260.92C161.931 260.682 161.892 260.433 161.872 260.195C163.232 264.207 164.98 267.454 167.175 268.537C169.668 269.758 172.31 270.413 175.885 269.758C181.893 268.666 202.65 290.423 211.926 300.542H211.935Z" fill="#B35D37"/>
<path d="M282.169 245.696C283.987 226.342 269.03 205.995 258.384 172.123L255.971 154.844C247.41 140.108 184.475 127.993 183.045 157.237C181.784 182.907 150.838 220.563 157.084 260.909C160.898 285.566 172.895 297.552 195.985 301.226C200.882 302.001 206.076 300.601 215.52 299.935C228.054 299.042 266.329 296.162 274.949 277.821C274.949 277.821 277.124 272.935 279.289 263.332C281.325 254.316 282.169 245.696 282.169 245.696Z" fill="#FFEDE0"/>
<path d="M263.598 289.419C264.214 289.072 264.809 288.714 265.395 288.347C264.819 288.714 264.214 289.072 263.598 289.419Z" fill="white"/>
<path d="M282.021 237.474C278.515 262.797 247.658 267.017 228.253 255.587C224.965 253.651 221.758 252.449 218.639 251.843L203.484 214.208L220.913 194.258C237.638 195.708 255.216 192.024 262.903 183.086C271.047 206.234 280.233 222.619 282.011 237.474H282.021Z" fill="#FFEDE0"/>
<path d="M185.995 238.1C192.271 234.803 181.943 213.215 185.22 195.897C187.127 185.827 224.538 248.984 224.538 248.984" fill="#1E1E1E"/>
<path d="M218.649 251.844L222.413 261.198C222.413 261.198 220.844 283.72 220.308 299.777C219.513 299.837 218.778 299.896 218.123 299.946C209.046 300.611 204.06 302.012 199.362 301.237C179.838 298 168.565 288.338 163.64 269.262C166.897 270.652 170.79 271.079 175.895 269.758C182.181 268.13 198.429 247.812 218.649 251.844Z" fill="#FFEDE0"/>
<path d="M255.971 154.845C253.508 152.273 250.4 150.733 247.192 149.264C234.48 143.703 220.248 140.694 206.275 141.756C196.492 142.511 185.628 146.513 185.201 157.337C184.764 164.586 182.479 171.428 179.957 178.141C174.932 191.229 168.784 203.791 164.355 217.008C159.965 229.967 157.244 243.681 158.704 257.275C159.915 267.235 162.517 277.384 168.993 285.318C175.448 293.262 185.35 297.284 195.618 298.943C198.985 299.598 202.292 299.091 205.729 298.714C216.405 297.483 227.329 297.254 237.886 295.278C248.274 293.342 258.662 290.661 267.491 285.03C270.352 283.124 272.944 280.78 274.93 277.821C272.815 284.772 266.23 289.717 259.715 292.845C253.071 296.033 245.871 297.81 238.651 299.221C227.915 301.405 217.09 301.703 206.275 303.074C202.57 303.51 198.578 303.997 194.824 303.252C183.721 301.475 172.479 296.817 165.507 287.97C160.819 282.21 158.038 275.269 156.35 268.238C151.931 250.83 154.791 232.579 160.541 215.826C165.904 199.223 174.455 183.722 179.202 166.999C180.066 163.722 180.702 160.406 180.861 157.138C181 153.266 182.34 149.284 184.922 146.235C192.5 137.556 206.146 136.642 217.05 137.407C228.849 138.37 251.224 143.117 255.961 154.835L255.971 154.845Z" fill="#1E1E1E"/>
<path d="M282.18 245.696C281.634 232.628 275.824 221.089 271.086 209.163C266.18 197.207 261.572 184.923 259.328 172.113C260.678 175.082 261.91 178.071 263.201 181.03C266.895 189.679 271.057 199.044 274.622 207.703C279.3 219.58 284.752 232.658 282.19 245.686L282.18 245.696Z" fill="#1E1E1E"/>
<path d="M245.85 266.839C264.091 262.988 274.917 241.101 270.029 217.952C265.142 194.802 246.393 179.157 228.152 183.008C209.91 186.858 199.085 208.745 203.972 231.895C208.859 255.044 227.609 270.689 245.85 266.839Z" fill="white"/>
<path d="M228.154 183.017C218.163 185.122 210.387 193.126 206.672 202.381C199.303 220.802 204.597 243.701 219.116 257.008C235.473 272.042 257.421 267.414 266.31 247.038C274.205 228.994 269.806 205.926 255.614 192.044C248.483 185.073 238.125 180.892 228.144 183.007L228.154 183.017ZM228.154 183.017C238.155 180.842 248.563 184.944 255.922 191.736C270.938 205.559 276.351 228.974 268.733 248.07C259.577 270.552 234.818 275.786 217.349 258.914C202.67 244.515 198.151 220.921 206.295 202.212C210.268 193.027 218.133 185.063 228.164 183.017H228.154Z" fill="#1E1E1E"/>
<path d="M219.037 186.294C221.798 200.196 227.091 214.049 237.767 226.512C244.868 234.803 257.143 245.002 258.255 260.195C259.318 274.693 246.526 278.983 238.542 278C226.823 276.55 225.909 267.067 218.202 261.446C188.508 239.381 185.22 212.381 185.22 187.545L219.047 186.294H219.037Z" fill="#FFEDE0"/>
<path d="M219.036 186.294C223.297 199.68 229.017 212.629 237.995 223.483C245.543 232.529 255.296 240.99 258.811 252.827C260.232 257.712 260.887 263.055 259.308 268.01C256.895 275.865 248.503 280.224 240.677 280.155C231.312 280.055 226.972 275.398 221.966 268.367C220.576 266.54 219.146 264.892 217.477 263.581L214.667 261.426C200.207 250.364 189.441 234.227 186.223 216.164C184.426 206.71 184.336 197.058 185.2 187.535L185.876 194.625C186.114 196.979 186.392 199.332 186.7 201.666C189.67 225.151 198.498 243.373 217.298 258.05L220.119 260.225C222.185 261.853 223.863 263.829 225.333 265.766C229.673 271.764 232.791 275.934 240.697 276.083C247.003 276.173 253.637 272.995 255.623 266.779C257.55 260.403 255.504 253.492 252.445 247.782C249.178 241.744 244.222 236.61 239.495 231.556C234.49 226.343 230.04 220.384 226.783 213.91C222.403 205.34 219.771 195.847 219.017 186.274L219.036 186.294Z" fill="#1E1E1E"/>
<path d="M224.121 307.9C222.224 308.149 201.229 307.315 188.904 293.194C188.904 293.194 178.357 283.383 175.894 269.758C171.882 247.564 185.22 238.369 185.22 238.369C207.873 230.236 220.724 253.84 220.724 253.84C220.724 253.84 221.102 257.683 221.618 263.324C223.038 278.775 225.511 307.722 224.121 307.9Z" fill="#FFEDE0"/>
<path d="M188.904 293.193C198.14 300.045 208.826 304.236 220.118 305.795C221.38 305.934 222.621 306.043 223.872 306.003C223.435 306.023 222.8 306.42 222.581 306.847C222.442 307.115 222.492 307.066 222.492 307.036C222.492 306.996 222.512 306.917 222.522 306.837C222.71 304.841 222.591 302.716 222.522 300.581C221.777 285.08 220.267 269.5 218.817 254.028L219.046 254.753C218.629 254.148 218.112 253.423 217.616 252.767C212.183 245.558 204.745 239.262 195.518 238.1C192.112 237.604 188.666 237.852 185.22 238.358C191.516 234.496 199.928 234.297 206.622 237.494C213.415 240.672 218.976 246.253 222.402 252.906C223.604 260.84 223.932 268.973 224.746 276.977C225.461 286.798 226.544 296.53 226.395 306.46C226.296 307.304 226.365 307.801 225.908 308.724C225.7 309.082 225.402 309.409 224.995 309.598C224.697 309.737 224.339 309.807 224.061 309.817C210.882 309.787 195.876 305.189 188.904 293.183V293.193Z" fill="#1E1E1E"/>
<path d="M227.646 307.085C246.923 301.326 239.693 266.679 234.966 257.732C228.699 244.495 214.15 242.34 205.182 247.742C201.537 249.937 191.149 258.755 194.158 276.54C197.336 295.278 211.369 311.842 227.646 307.085Z" fill="#FFEDE0"/>
<g opacity="0.3">
<path d="M238.542 268.486C237.747 265.795 236.883 263.56 236.089 262.051C229.822 248.814 215.273 246.659 206.295 252.051C202.65 254.246 192.262 263.064 195.271 280.849C195.38 281.494 195.5 282.14 195.639 282.785C195.013 280.75 194.516 278.654 194.149 276.529C191.13 258.744 201.528 249.926 205.173 247.731C214.141 242.329 228.7 244.484 234.957 257.721C236.149 259.966 237.489 263.838 238.532 268.476L238.542 268.486Z" fill="white"/>
</g>
<path d="M222.006 309.825C217.845 309.825 213.733 308.604 209.87 306.181C201.14 300.699 194.397 289.468 192.262 276.867C188.736 256.063 202.59 247.066 204.179 246.103C209.353 242.985 216.087 242.23 222.175 244.077C228.501 245.994 233.645 250.542 236.655 256.877C240.607 264.404 245.126 285.139 239.703 298.118C237.37 303.698 233.496 307.333 228.183 308.922C228.183 308.922 228.183 308.922 228.173 308.922C226.117 309.518 224.052 309.815 222.006 309.815V309.825ZM215.431 246.907C212.124 246.907 208.877 247.751 206.155 249.38C204.795 250.204 192.937 257.92 196.035 276.211C197.992 287.77 204.07 298.008 211.906 302.924C216.782 305.982 221.897 306.767 227.111 305.248C231.272 304.006 234.331 301.107 236.198 296.638C241.104 284.9 236.843 265.378 233.278 258.635C233.268 258.605 233.248 258.585 233.238 258.555C229.981 251.674 224.836 248.873 221.082 247.741C219.235 247.185 217.328 246.907 215.431 246.907Z" fill="#1E1E1E"/>
<path d="M265.316 189.81C263.697 185.401 264.164 179.899 261.095 173.077L265.316 189.81Z" fill="#1E1E1E"/>
<path d="M265.316 189.809C264.085 187.198 263.538 184.248 262.734 181.498C261.959 178.747 260.907 176.155 259.536 173.782L262.664 172.372C263.648 175.271 264.194 178.26 264.422 181.19C264.681 184.099 264.621 186.969 265.326 189.809H265.316Z" fill="#1E1E1E"/>
<path d="M233.625 146.514C233.546 146.573 233.456 146.633 233.357 146.683C231.589 147.676 229.791 148.192 227.964 148.202C226.286 148.202 224.975 146.534 225.163 144.696C225.213 144.16 225.293 143.634 225.382 143.118C225.541 142.224 225.749 141.37 226.018 140.526C226.842 137.874 229.881 137.05 231.808 138.967C232.761 139.91 233.605 141.012 234.38 142.244C235.274 143.674 234.886 145.59 233.615 146.504L233.625 146.514Z" fill="#1E1E1E"/>
<path d="M233.625 146.514C233.546 146.573 233.456 146.633 233.357 146.683C231.589 147.676 229.791 148.192 227.964 148.202C226.286 148.202 224.975 146.534 225.163 144.697C225.213 144.16 225.293 143.634 225.382 143.118C225.799 142.999 226.246 142.899 226.703 142.86C229.672 142.542 232.384 144.081 233.625 146.514Z" fill="#F1646A"/>
<path d="M257.55 161.171C258.036 162.055 258.672 162.879 259.476 163.624C258.881 162.949 258.245 162.144 257.55 161.171Z" fill="#EEBDD8"/>
<path d="M274.056 138.143C272.03 137.339 269.03 136.743 267.541 138.699L265.574 136.127C268.504 134.469 271.93 135.948 274.056 138.143Z" fill="#1E1E1E"/>
<path fill-rule="evenodd" clip-rule="evenodd" d="M231.914 181.386C191.399 185.741 153.669 163.077 149.486 125.37C142.827 65.3257 206.944 55.1594 197.895 2.84381C197.895 2.84381 246.428 11.478 250.168 60.0739C250.168 60.0739 256.865 48.3947 255.217 33.4777C255.69 33.7089 256.162 33.9595 256.625 34.21C280.872 47.1709 300.792 79.1635 301.168 112.091C301.621 151.397 268.469 177.444 231.905 181.376" fill="#FFEDE0"/>
<path d="M231.914 181.386C191.399 185.741 153.669 163.077 149.486 125.37C142.827 65.3257 206.944 55.1594 197.895 2.84381C197.895 2.84381 246.428 11.478 250.168 60.0739C250.168 60.0739 256.865 48.3947 255.217 33.4777C255.69 33.7089 256.162 33.9595 256.625 34.21C280.872 47.1709 300.793 79.1635 301.168 112.091C301.621 151.397 268.469 177.444 231.905 181.376" stroke="#1E1E1E" stroke-width="4.24051" stroke-miterlimit="10"/>
<path fill-rule="evenodd" clip-rule="evenodd" d="M292.215 116.167C292.871 122.084 292.312 127.586 290.76 132.626C289.083 119.964 280.988 109.508 269.278 103.543C259.853 98.7444 235.133 95.8728 236.405 112.322C237.446 125.794 254.552 122.989 265.924 126.208C282.019 130.766 286.539 146.781 271.678 156.996C248.625 172.857 211.339 176.577 185.828 165.37C170.12 158.47 172.934 141.915 186.32 134.765C196.719 129.205 214.037 128.309 212.1 114.933C209.729 98.5999 186.224 106.665 178.08 113.343C167.951 121.65 162.342 133.589 163.479 146.3C160.858 141.703 159.104 136.461 158.449 130.535C156.473 112.727 165.696 95.7861 181.463 84.2996C187.457 79.9343 200.391 73.5743 207.117 78.4407C211.753 81.8038 222.595 100.903 228.763 103.283C228.763 103.283 223.482 89.5224 231.432 80.2427C248.519 60.3051 289.102 87.9132 292.234 116.148L292.215 116.167Z" fill="white" stroke="#1E1E1E" stroke-width="1.09247" stroke-miterlimit="10"/>
<path d="M248.327 100.97C253.097 100.42 257.771 104.824 258.774 110.799C259.776 116.773 256.731 122.063 251.96 122.613C247.19 123.162 242.515 118.758 241.513 112.784C240.511 106.809 243.566 101.519 248.327 100.97Z" fill="#1E1E1E"/>
<path d="M197.654 107.534C192.729 108.411 189.308 114.01 190.002 120.042C190.696 126.074 195.254 130.247 200.179 129.37C205.104 128.493 208.525 122.894 207.831 116.862C207.137 110.83 202.579 106.657 197.654 107.534Z" fill="#1E1E1E"/>
<path d="M254.37 112.209C256.182 111.825 257.258 109.657 256.773 107.367C256.288 105.076 254.426 103.529 252.614 103.913C250.802 104.296 249.726 106.464 250.211 108.755C250.696 111.046 252.558 112.592 254.37 112.209Z" fill="white"/>
<path d="M203.312 119.211C205.061 118.841 206.101 116.751 205.633 114.543C205.166 112.336 203.369 110.846 201.619 111.216C199.87 111.587 198.83 113.677 199.298 115.884C199.765 118.092 201.562 119.581 203.312 119.211Z" fill="white"/>
<path d="M237.658 126.121C236.839 131.816 229.303 136.441 229.303 136.441C229.303 136.441 220.542 135.082 217.555 130.149C215.425 126.622 224.879 124.078 226.701 123.711C228.522 123.345 238.237 122.044 237.649 126.121H237.658Z" fill="#1E1E1E"/>
<path opacity="0.5" d="M231.269 124.82C230.759 126.323 227.376 126.969 227.376 126.969C227.376 126.969 224.003 127.672 222.943 126.487C222.181 125.639 226.123 124.685 226.884 124.54C227.646 124.396 231.645 123.75 231.279 124.82H231.269Z" fill="white"/>
<path d="M258.745 95.0058C258.745 95.0058 250.582 81.6017 243.498 87.3643C239.142 91.8548 256.586 96.7597 258.745 95.0058Z" fill="#1E1E1E"/>
<path d="M184.007 103.466C185.636 97.2408 192.054 90.8423 198.039 95.1883C200.535 96.9999 200.632 100.999 198.579 101.635C195.447 102.608 191.939 99.4764 184.017 103.466H184.007Z" fill="#1E1E1E"/>
<g opacity="0.3">
<path d="M283.139 166.53L278.994 208.825C278.404 214.766 273.707 219.165 268.478 218.651L250.376 216.861C247.143 216.537 244.462 214.424 243.036 211.453C244.462 212.881 246.306 213.833 248.36 214.024L266.463 215.814C271.692 216.328 276.388 211.929 276.978 205.988L281.123 163.693C281.352 161.407 280.933 159.236 280.02 157.389C282.226 159.579 283.481 162.931 283.12 166.53H283.139Z" fill="#3E2670"/>
</g>
<path d="M282.852 161.998L277.87 212.71C277.718 214.157 277.186 215.471 276.368 216.499C275.208 217.985 273.497 218.861 271.671 218.689L246.476 216.214C243.415 215.909 241.209 212.748 241.551 209.149L246.533 158.437C246.762 156.132 247.979 154.228 249.614 153.219C250.546 152.647 251.61 152.362 252.732 152.476L277.927 154.951C280.989 155.256 283.195 158.417 282.852 162.017V161.998Z" fill="#1E1E1E"/>
<path d="M273.916 169.748C273.916 169.748 280.248 190.905 280.324 191.762C280.4 192.619 274.049 217.203 274.049 217.203L273.916 169.748Z" fill="#FFA86B"/>
<path d="M260.321 180.85L255.339 182.24L255.206 190.143L260.321 180.85Z" fill="#FFA86B"/>
<path d="M247.581 207.702L246.896 213.491L253.266 216.861L247.581 207.702Z" fill="#FFA86B"/>
<path d="M252.638 204.273L252.144 207.396L254.463 208.806L252.638 204.273Z" fill="#FFA86B"/>
<path d="M250.831 211.242L253.246 212.956L255.185 211.014L250.831 211.242Z" fill="#FFA86B"/>
<path d="M248.759 206.806L250.09 209.643L252.657 209.11L248.759 206.806Z" fill="#FFA86B"/>
<path d="M269.885 179.631L269.105 187.61L265.796 185.306L269.885 179.631Z" fill="#FFA86B"/>
<path d="M266.31 182.621L263.173 182.05L256.194 189.762L266.31 182.621Z" fill="#FFA86B"/>
<path d="M265.72 184.43L249.652 193.914L255.528 206.501L265.72 184.43Z" fill="#FFA86B"/>
<path d="M265.987 187.211L271.749 190.867L267.775 213.205L265.987 187.211Z" fill="#FFA86B"/>
<path d="M264.693 189.8L256.041 211.718L265.549 190.6L264.693 189.8Z" fill="#FFA86B"/>
<path d="M249.862 185.991L247.028 198.56L251.744 205.187L246.344 207.415L241.932 196.637L249.862 185.991Z" fill="#FFA86B"/>
<path d="M254.064 175.937L254.14 189.971L248.892 193.99L254.064 175.937Z" fill="#FFA86B"/>
<path d="M249.824 195.493L254.065 204.12L247.79 198.483L248.95 194.484L249.824 195.493Z" fill="#FFA86B"/>
<path d="M265.131 194.142L268.022 215.813L255.871 217.888L265.131 194.142Z" fill="#FFA86B"/>
<path d="M273.041 179.898L270.55 178.603L271.177 187.896L273.041 179.898Z" fill="#FFA86B"/>
<path d="M270.208 184.868L269.257 188.486L271.615 189.514L270.208 184.868Z" fill="#FFA86B"/>
<path d="M270.493 204.634L269.542 208.252L271.9 209.281L270.493 204.634Z" fill="#FFA86B"/>
<path d="M263.838 181.116L266.994 181.687L271.919 176.812L263.838 181.116Z" fill="#FFA86B"/>
<path d="M268.325 220.25L250.222 218.46C244.233 217.87 239.897 211.852 240.563 205.035L244.708 162.74C245.373 155.922 250.793 150.876 256.783 151.466L274.885 153.256C280.875 153.847 285.21 159.864 284.545 166.682L280.4 208.977C279.734 215.794 274.315 220.841 268.325 220.25ZM256.478 154.666C252.029 154.228 248.016 157.979 247.522 163.025L243.377 205.32C242.882 210.367 246.096 214.842 250.527 215.28L268.629 217.07C273.079 217.508 277.091 213.757 277.585 208.71L281.731 166.415C282.225 161.369 279.011 156.894 274.581 156.456L256.478 154.666Z" fill="white" stroke="#1E1E1E" stroke-width="1.09247" stroke-miterlimit="10"/>
<path opacity="0.67" d="M258.32 158.119L255.009 157.794C252.343 157.531 249.971 159.483 249.709 162.152L249.454 164.748C249.192 167.417 251.141 169.794 253.806 170.056L257.118 170.381C259.783 170.644 262.156 168.692 262.417 166.023L262.672 163.427C262.934 160.758 260.985 158.382 258.32 158.119Z" fill="white"/>
<path d="M253.968 163.52C255.469 163.52 256.687 162.301 256.687 160.797C256.687 159.293 255.469 158.074 253.968 158.074C252.466 158.074 251.249 159.293 251.249 160.797C251.249 162.301 252.466 163.52 253.968 163.52Z" fill="#FFA86B" stroke="#1E1E1E" stroke-width="0.0970324" stroke-miterlimit="10"/>
<path d="M253.967 162.605C254.964 162.605 255.773 161.795 255.773 160.796C255.773 159.797 254.964 158.987 253.967 158.987C252.969 158.987 252.16 159.797 252.16 160.796C252.16 161.795 252.969 162.605 253.967 162.605Z" fill="white" stroke="#1E1E1E" stroke-width="0.140158" stroke-miterlimit="10"/>
<path d="M253.416 169.29C254.918 169.29 256.135 168.071 256.135 166.567C256.135 165.063 254.918 163.844 253.416 163.844C251.915 163.844 250.697 165.063 250.697 166.567C250.697 168.071 251.915 169.29 253.416 169.29Z" fill="#FFA86B" stroke="#1E1E1E" stroke-width="0.0970324" stroke-miterlimit="10"/>
<path d="M253.416 168.376C254.413 168.376 255.222 167.566 255.222 166.567C255.222 165.568 254.413 164.757 253.416 164.757C252.418 164.757 251.609 165.568 251.609 166.567C251.609 167.566 252.418 168.376 253.416 168.376Z" fill="white" stroke="#1E1E1E" stroke-width="0.140158" stroke-miterlimit="10"/>
<path d="M258.512 164.414C258.911 164.414 259.234 164.091 259.234 163.691C259.234 163.291 258.911 162.967 258.512 162.967C258.113 162.967 257.789 163.291 257.789 163.691C257.789 164.091 258.113 164.414 258.512 164.414Z" fill="white" stroke="#1E1E1E" stroke-width="0.0539069" stroke-miterlimit="10"/>
<path d="M256.668 164.244C256.868 164.244 257.03 164.082 257.03 163.882C257.03 163.683 256.868 163.521 256.668 163.521C256.469 163.521 256.307 163.683 256.307 163.882C256.307 164.082 256.469 164.244 256.668 164.244Z" fill="white" stroke="#1E1E1E" stroke-width="0.0323441" stroke-miterlimit="10"/>
<path d="M285.02 219.088C280.589 220.916 276.425 221.278 272.926 220.459C268.001 219.335 264.388 215.869 263.247 210.975C261.479 203.986 264.692 194.255 269.256 189.685C272.698 186.276 275.835 184.943 280.836 183.496L282.129 179.021C282.129 179.021 291.276 178.906 294.964 186.105C295.307 186.79 295.611 187.552 295.877 188.409C298.596 197.264 296.391 214.346 285 219.069L285.02 219.088Z" fill="#FFF0E5"/>
<g opacity="0.2">
<path d="M272.926 220.459C268.001 219.335 264.388 215.869 263.247 210.975C261.479 203.986 264.692 194.255 269.256 189.685C272.698 186.276 275.835 184.943 280.836 183.496L282.129 179.021C282.129 179.021 291.276 178.906 294.964 186.105C295.307 186.79 295.611 187.552 295.877 188.409C290.99 187.533 277.033 186.2 271.538 198.388C267.792 206.709 268.819 215.279 272.907 220.459H272.926Z" fill="#242568"/>
</g>
<path d="M261.822 213.908C261.517 213.165 261.27 212.403 261.08 211.584C259.273 204.443 262.297 193.855 267.697 188.485C271.158 185.038 274.467 183.458 279.068 182.049L280.019 178.754C280.285 177.802 281.293 177.078 282.358 177.078C282.776 177.078 292.835 177.04 296.981 185.134C299.738 190.523 300.194 201.739 296.087 210.442C293.748 215.412 290.173 219.011 285.743 220.84C280.076 223.182 274.391 223.467 269.751 221.62C266.043 220.135 263.286 217.45 261.841 213.908H261.822ZM283.708 181.134L282.947 183.781C282.738 184.524 282.092 185.134 281.274 185.362C276.596 186.695 273.839 187.876 270.797 190.904C266.88 194.807 263.685 203.739 265.358 210.347C266.195 213.965 268.515 216.669 271.9 218.021C275.417 219.43 279.829 219.183 284.279 217.335C287.568 215.964 290.173 213.279 292.056 209.318C295.574 201.853 295.364 191.799 292.95 187.095C290.725 182.772 286.237 181.496 283.708 181.134Z" fill="#1E1E1E"/>
<path d="M289.393 185.057C288.138 185.419 286.826 185.21 285.571 185.248C282.034 185.134 278.384 185.762 275.227 187.533L273.915 183.972C277.984 182.867 282.206 183.134 285.876 184.277C287.055 184.581 288.138 185.096 289.412 185.057H289.393Z" fill="#1E1E1E"/>
<path d="M233.505 149.249C234.087 150.007 234.642 150.832 235.068 151.683C235.157 151.861 235.379 151.939 235.577 151.846C235.737 151.771 235.815 151.6 235.781 151.441C235.558 150.423 235.225 149.469 234.818 148.51C234.347 147.543 232.877 148.368 233.505 149.249Z" fill="white"/>
<path d="M220.961 150.361C224.903 155.534 232.745 155.591 237.538 152.078C240.422 149.965 242.199 146.554 241.33 142.197C235.192 146.189 225.028 148.664 218.658 144.329C218.951 146.822 219.782 148.819 220.961 150.361Z" fill="#1E1E1E"/>
<path d="M220.959 150.362C224.902 155.535 232.744 155.592 237.536 152.078C234.255 148.194 229.619 150.724 229.619 150.724C225.826 147.898 221.117 150.277 220.969 150.36L220.959 150.362Z" fill="#F37E80"/>
<path d="M227.742 155.086C222.179 154.315 218.446 150.391 217.756 144.569C217.718 144.288 217.949 143.96 218.315 143.781C218.678 143.591 219.1 143.585 219.354 143.76C225.183 147.732 234.783 145.674 240.857 141.717C241.121 141.548 241.436 141.472 241.714 141.517C241.992 141.563 242.18 141.72 242.225 141.938C243.055 146.107 241.632 149.826 238.226 152.409C237.325 153.094 236.327 153.654 235.272 154.091C232.924 155.068 230.274 155.435 227.742 155.086ZM219.922 145.988C221.045 150.271 224.147 153.107 228.488 153.71C231.561 154.133 234.801 153.321 237.145 151.539C239.75 149.568 240.95 146.712 240.586 143.438C234.536 146.915 226.013 148.686 219.922 145.988Z" fill="#1E1E1E"/>
<path d="M242.011 142.592C242.904 141.672 243.714 140.706 244.433 139.646C244.535 139.491 244.493 139.293 244.338 139.191C244.196 139.107 244.006 139.136 243.896 139.252C243.471 139.692 243.019 140.097 242.554 140.494C242.098 140.879 241.601 141.272 241.124 141.609C240.819 141.828 240.739 142.238 240.966 142.532C241.211 142.863 241.73 142.879 242.019 142.58L242.011 142.592Z" fill="#1E1E1E"/>
<path d="M237.756 152.58C237.806 152.569 237.851 152.539 237.906 152.507C238.273 152.286 238.413 151.915 238.209 151.679C235.325 148.26 231.343 149.423 229.877 150.018C225.766 147.3 220.715 149.875 220.67 149.905C220.289 150.109 220.118 150.476 220.282 150.72C220.449 150.975 220.892 151.017 221.273 150.813C221.451 150.724 225.611 148.635 229.036 151.187C229.256 151.347 229.627 151.342 229.952 151.171C230.11 151.086 234.005 149.063 236.887 152.472C237.063 152.673 237.432 152.71 237.766 152.578L237.756 152.58Z" fill="#1E1E1E"/>
</svg>
