<svg width="15" height="15" viewBox="0 0 15 15" fill="none" xmlns="http://www.w3.org/2000/svg">
<path d="M5.18182 14.3182L3.88636 12.1364L1.43182 11.5909L1.67045 9.06818L0 7.15909L1.67045 5.25L1.43182 2.72727L3.88636 2.18182L5.18182 0L7.5 0.988636L9.81818 0L11.1136 2.18182L13.5682 2.72727L13.3295 5.25L15 7.15909L13.3295 9.06818L13.5682 11.5909L11.1136 12.1364L9.81818 14.3182L7.5 13.3295L5.18182 14.3182ZM5.31818 7.15909L5.76136 8.55682L6.2642 8.05398H5.76136L6.78409 8.59091H7.15909L8.05398 7.63636L9.81818 5.69318L9.68182 6.20455L7.5 7.15909L7.15909 8.05398L5.31818 7.15909L5.76136 7.33977L6.48888 7.63636L5.31818 7.15909ZM6.78409 9.57955L10.6364 5.72727L9.68182 4.73864L6.78409 7.63636L5.31818 6.20455L4.36364 7.15909L6.78409 9.57955Z" fill="#FFA86B"/>
<path d="M5.18182 14.3182L3.88636 12.1364L1.43182 11.5909L1.67045 9.06818L0 7.15909L1.67045 5.25L1.43182 2.72727L3.88636 2.18182L5.18182 0L7.5 0.988636L9.81818 0L11.1136 2.18182L13.5682 2.72727L13.3295 5.25L15 7.15909L13.3295 9.06818L13.5682 11.5909L11.1136 12.1364L9.81818 14.3182L7.5 13.3295L5.18182 14.3182ZM5.76136 12.5795L7.5 11.8295L9.27273 12.5795L10.2273 10.9432L12.1023 10.5L11.9318 8.59091L13.1932 7.15909L11.9318 5.69318L12.1023 3.78409L10.2273 3.375L9.23864 1.73864L7.5 2.48864L5.72727 1.73864L4.77273 3.375L2.89773 3.78409L3.06818 5.69318L1.80682 7.15909L3.06818 8.59091L2.89773 10.5341L4.77273 10.9432L5.76136 12.5795ZM6.78409 9.57955L10.6364 5.72727L9.68182 4.73864L6.78409 7.63636L5.31818 6.20455L4.36364 7.15909L6.78409 9.57955Z" fill="#1E1E1E"/>
</svg>
