<svg width="20" height="19" viewBox="0 0 20 19" fill="none" xmlns="http://www.w3.org/2000/svg">
<path d="M13.359 7.58L13.379 7.331C13.389 7.184 13.4 7.027 13.41 6.851C13.442 6.293 13.461 5.677 13.461 5.006C13.461 4.134 13.167 3.519 12.547 2.942C11.887 2.328 14.49 2.942 13.359 2.942C12.222 2.942 14.462 2.947 13.91 3.5C13.214 4.195 14.5 3.618 14.5 4.5C14.5 5.021 14.965 7.375 15 8C15.0282 8.50927 15.3288 11.1101 15 11.5C15.054 11.6 16.993 13.637 17.04 13.75C17.34 14.521 14.603 15.772 14.253 16.5C13.861 17.318 12.68 15.739 12 16.5C11.7984 16.7264 10.726 17.798 10.5 18C10.6694 18.1624 4.37383 14.7463 4.477 14.957C5.0063 14.9103 5.53947 14.9356 6.062 15.032C6.872 15.178 7.386 15.466 8.256 16.093L8.272 16.104L8.485 16.256C9.105 16.696 9.362 16.802 9.958 16.802C10.567 16.802 10.868 16.681 11.481 16.25L11.688 16.104C12.565 15.472 13.095 15.177 13.919 15.028C14.4343 14.9423 14.9579 14.9174 15.479 14.954C15.5834 14.7418 15.7245 14.5498 15.896 14.387C15.6798 14.1921 15.4739 13.9862 15.279 13.77C14.6972 13.1222 14.2101 12.3953 13.832 11.611C13.469 10.862 13.362 10.071 13.695 9.29C13.735 9.192 13.78 9.1 13.827 9.014C13.4896 8.61515 13.3216 8.1011 13.359 7.58ZM3.043 7.477C3.463 7.477 3.644 7.782 4.263 7.782C4.37493 7.78487 4.48606 7.7623 4.588 7.716C4.58 7.56 4.49 5.73 4.49 4.987C4.49 3.299 5.209 2.297 6.032 1.473C6.855 0.65 8.138 0 9.958 0C11.778 0 13.024 0.653 13.91 1.478C14.796 2.303 15.461 3.408 15.461 5.006C15.461 6.561 15.362 7.6 15.354 7.722C15.4399 7.7661 15.5354 7.78842 15.632 7.787C16.262 7.787 16.262 7.477 16.962 7.477C17.648 7.477 17.945 8.047 17.945 8.3C17.945 8.921 17.113 9.267 16.615 9.426C16.246 9.543 15.684 9.717 15.54 10.061C15.467 10.235 15.497 10.461 15.632 10.739C15.636 10.747 16.892 13.622 19.562 14.065C19.797 14.1 19.954 14.306 19.954 14.548C19.954 14.881 19.584 15.165 19.227 15.33C18.784 15.53 18.137 15.7 17.275 15.835C17.232 15.913 17.141 16.32 17.04 16.722C16.905 17.264 16.24 17.088 16.05 17.048C15.4588 16.9235 14.85 16.9072 14.253 17C13.77 17.087 13.34 17.378 12.857 17.726C12.144 18.23 11.392 18.802 9.957 18.802C8.522 18.802 7.813 18.23 7.1 17.726C6.618 17.378 6.196 17.089 5.705 17C4.806 16.837 4.135 17.036 3.909 17.056C3.683 17.077 3.068 17.301 2.913 16.73C2.869 16.564 2.723 15.922 2.679 15.835C1.822 15.7 1.17 15.522 0.726 15.322C0.361 15.157 0 14.879 0 14.544C0 14.308 0.158 14.104 0.392 14.061C3.035 13.578 4.157 11.057 4.313 10.731C4.446 10.455 4.474 10.231 4.405 10.052C4.261 9.709 3.7 9.539 3.331 9.417C3.226 9.383 1.996 9.044 1.996 8.3C1.996 8.06 2.2 7.727 2.577 7.57C2.739 7.504 2.936 7.478 3.042 7.478" fill="#FDFFB6"/>
<path d="M13.359 7.58L13.379 7.331C13.389 7.184 13.4 7.027 13.41 6.851C13.442 6.293 13.461 5.677 13.461 5.006C13.461 4.134 13.167 3.519 12.547 2.942C11.887 2.328 11.088 2 9.957 2C8.82 2 7.999 2.335 7.447 2.888C6.751 3.583 6.49 4.106 6.49 4.988C6.49 5.509 6.55 6.982 6.585 7.607C6.61323 8.11627 6.44581 8.61708 6.117 9.007C6.171 9.107 6.222 9.212 6.269 9.325C6.569 10.096 6.467 10.868 6.117 11.596C5.725 12.414 5.387 12.989 4.707 13.75C4.5054 13.9764 4.29105 14.191 4.065 14.393C4.23437 14.5554 4.37383 14.7463 4.477 14.957C5.0063 14.9103 5.53947 14.9356 6.062 15.032C6.872 15.178 7.386 15.466 8.256 16.093L8.272 16.104L8.485 16.256C9.105 16.696 9.362 16.802 9.958 16.802C10.567 16.802 10.868 16.681 11.481 16.25L11.688 16.104C12.565 15.472 13.095 15.177 13.919 15.028C14.4343 14.9423 14.9579 14.9174 15.479 14.954C15.5834 14.7418 15.7245 14.5498 15.896 14.387C15.6798 14.1921 15.4739 13.9862 15.279 13.77C14.6972 13.1222 14.2101 12.3953 13.832 11.611C13.469 10.862 13.362 10.071 13.695 9.29C13.735 9.192 13.78 9.1 13.827 9.014C13.4896 8.61515 13.3216 8.1011 13.359 7.58ZM3.043 7.477C3.463 7.477 3.644 7.782 4.263 7.782C4.37493 7.78487 4.48606 7.7623 4.588 7.716C4.58 7.56 4.49 5.73 4.49 4.987C4.49 3.299 5.209 2.297 6.032 1.473C6.855 0.65 8.138 0 9.958 0C11.778 0 13.024 0.653 13.91 1.478C14.796 2.303 15.461 3.408 15.461 5.006C15.461 6.561 15.362 7.6 15.354 7.722C15.4399 7.7661 15.5354 7.78842 15.632 7.787C16.262 7.787 16.262 7.477 16.962 7.477C17.648 7.477 17.945 8.047 17.945 8.3C17.945 8.921 17.113 9.267 16.615 9.426C16.246 9.543 15.684 9.717 15.54 10.061C15.467 10.235 15.497 10.461 15.632 10.739C15.636 10.747 16.892 13.622 19.562 14.065C19.797 14.1 19.954 14.306 19.954 14.548C19.954 14.881 19.584 15.165 19.227 15.33C18.784 15.53 18.137 15.7 17.275 15.835C17.232 15.913 17.141 16.32 17.04 16.722C16.905 17.264 16.24 17.088 16.05 17.048C15.4588 16.9235 14.85 16.9072 14.253 17C13.77 17.087 13.34 17.378 12.857 17.726C12.144 18.23 11.392 18.802 9.957 18.802C8.522 18.802 7.813 18.23 7.1 17.726C6.618 17.378 6.196 17.089 5.705 17C4.806 16.837 4.135 17.036 3.909 17.056C3.683 17.077 3.068 17.301 2.913 16.73C2.869 16.564 2.723 15.922 2.679 15.835C1.822 15.7 1.17 15.522 0.726 15.322C0.361 15.157 0 14.879 0 14.544C0 14.308 0.158 14.104 0.392 14.061C3.035 13.578 4.157 11.057 4.313 10.731C4.446 10.455 4.474 10.231 4.405 10.052C4.261 9.709 3.7 9.539 3.331 9.417C3.226 9.383 1.996 9.044 1.996 8.3C1.996 8.06 2.2 7.727 2.577 7.57C2.739 7.504 2.936 7.478 3.042 7.478" fill="#1E1E1E"/>
</svg>
