<svg width="17" height="16" viewBox="0 0 17 16" fill="none" xmlns="http://www.w3.org/2000/svg">
<path d="M7.97086 1.39888C8.12148 1.09369 8.55667 1.09369 8.70729 1.39888L10.6571 5.34959C10.7169 5.47078 10.8325 5.55478 10.9663 5.57422L15.3261 6.20774C15.6629 6.25668 15.7974 6.67057 15.5537 6.90813L12.3989 9.98333C12.3021 10.0777 12.2579 10.2136 12.2808 10.3468L13.0255 14.689C13.0831 15.0245 12.731 15.2803 12.4297 15.1219L8.53015 13.0718C8.41053 13.0089 8.26762 13.0089 8.148 13.0718L4.24841 15.1219C3.94717 15.2803 3.59509 15.0245 3.65262 14.689L4.39738 10.3468C4.42022 10.2136 4.37606 10.0777 4.27928 9.98333L1.12445 6.90813C0.880742 6.67057 1.01522 6.25668 1.35202 6.20774L5.71189 5.57422C5.84564 5.55478 5.96125 5.47078 6.02106 5.34959L7.97086 1.39888Z" fill="#FFA86B" stroke="#1E1E1E" stroke-width="1.5" stroke-linejoin="round"/>
</svg>
