<svg width="21" height="22" viewBox="0 0 21 22" fill="none" xmlns="http://www.w3.org/2000/svg">
<path d="M14.0625 6.94379H6.9375H8.88068C9.56783 6.94379 10.2268 7.22976 10.7127 7.73878C11.1986 8.24781 11.4716 8.9382 11.4716 9.65807C11.4716 10.3779 11.1986 11.0683 10.7127 11.5774C10.2268 12.0864 9.56783 12.3724 8.88068 12.3724H6.9375L10.8239 16.4438M6.9375 9.65807H14.0625M20 11.1C20 16.3467 15.7467 20.6 10.5 20.6C5.25329 20.6 1 16.3467 1 11.1C1 5.85333 5.25329 1.60004 10.5 1.60004C15.7467 1.60004 20 5.85333 20 11.1Z" stroke="#1E1E1E" stroke-width="2" stroke-linecap="round" stroke-linejoin="round"/>
</svg>
