<svg width="23" height="23" viewBox="0 0 23 23" fill="none" xmlns="http://www.w3.org/2000/svg">
<circle cx="11.5" cy="11.5" r="10.5" fill="#FCFF5D"/>
<path d="M15.0833 7.16146H8.04167M15.0833 10.6823H8.04167M11.5625 17.724L8.04167 14.2031H9.80208C10.7359 14.2031 11.6314 13.8322 12.2917 13.1719C12.952 12.5116 13.3229 11.6161 13.3229 10.6823C13.3229 9.74851 12.952 8.85297 12.2917 8.19269C11.6314 7.5324 10.7359 7.16146 9.80208 7.16146M22.125 11.5625C22.125 12.9496 21.8518 14.3231 21.321 15.6046C20.7902 16.8861 20.0121 18.0505 19.0313 19.0313C18.0505 20.0121 16.8861 20.7902 15.6046 21.321C14.3231 21.8518 12.9496 22.125 11.5625 22.125C10.1754 22.125 8.80191 21.8518 7.52041 21.321C6.2389 20.7902 5.0745 20.0121 4.09368 19.0313C3.11287 18.0505 2.33484 16.8861 1.80402 15.6046C1.27321 14.3231 1 12.9496 1 11.5625C1 8.76115 2.11283 6.07454 4.09368 4.09368C6.07454 2.11283 8.76115 1 11.5625 1C14.3638 1 17.0505 2.11283 19.0313 4.09368C21.0122 6.07454 22.125 8.76115 22.125 11.5625Z" stroke="#1E1E1E" stroke-width="1.76042" stroke-linecap="round" stroke-linejoin="round"/>
</svg>
