<svg width="21" height="17" viewBox="0 0 21 17" fill="none" xmlns="http://www.w3.org/2000/svg">
<path d="M17.5 4C16.74 3.99987 18.5424 2.96755 18 3.5C17.4576 4.03245 18.0139 5.24009 18 6L13.2397 6.42329H10.976C10.9744 6.50785 10.9549 6.59111 10.9188 6.66761C10.8827 6.74411 10.8309 6.81211 10.7666 6.86717C10.7024 6.92222 10.8478 6.39931 10.7666 6.42329C10.6855 6.44726 18.0838 5.51129 18 5.5L17.5 7.5C15.447 7.22 17.389 12.073 15.5 10.5C14.903 13.81 12.187 10.231 15 12L13.5 13.5C13.5831 13.5521 11.5809 14.5364 11.6298 14.6213C11.6788 14.7062 9.49655 14.402 9.5 14.5C9.50345 14.598 8.54287 14.9118 8.5 15C8.45713 15.0882 8.07919 14.9422 8 15L6.397 14.6213C7.344 14.6803 8.243 14.6383 8.989 14.4903C13.707 13.5483 16.844 9.99829 16.844 4.14229C16.844 3.66429 19.427 4 17.5 4ZM9.004 4.81129C9.02145 3.84734 9.32289 2.90996 9.87056 2.11651C10.4182 1.32306 11.1878 0.708806 12.0829 0.350653C12.978 -0.00749937 13.9589 -0.0936341 14.9027 0.103034C15.8466 0.299701 16.7114 0.770431 17.389 1.45629C18.1 1.45129 18.705 1.63129 20.057 0.811287C19.723 2.45129 19.557 3.16329 18.844 4.14229C18.844 11.7843 14.147 15.5003 9.38 16.4513C6.113 17.1033 1.36 16.0323 0 14.6103C0.693 14.5563 3.513 14.2533 5.143 13.0603C3.763 12.1503 -1.725 8.92029 1.882 0.237286C3.575 2.21429 5.292 3.56029 7.032 4.27429C8.189 4.74929 8.474 4.74029 9.005 4.81229" fill="#A9DEF9"/>
</svg>
