<svg width="22" height="22" viewBox="0 0 22 22" fill="none" xmlns="http://www.w3.org/2000/svg">
<circle cx="11" cy="11" r="10" fill="white" stroke="black" stroke-width="1.5"/>
<path d="M8.68908 9.10928H8.26892C8.04605 9.10928 7.83231 9.19782 7.67472 9.35541C7.51712 9.513 7.42859 9.72674 7.42859 9.94961V13.7311C7.42859 13.954 7.51712 14.1677 7.67472 14.3253C7.83231 14.4829 8.04605 14.5714 8.26892 14.5714H12.0504C12.2733 14.5714 12.487 14.4829 12.6446 14.3253C12.8022 14.1677 12.8907 13.954 12.8907 13.7311V13.3109" stroke="black" stroke-width="1.1" stroke-linecap="round" stroke-linejoin="round"/>
<path d="M12.4706 8.2689L13.7311 9.5294M14.313 8.93486C14.4785 8.76938 14.5714 8.54494 14.5714 8.31092C14.5714 8.07689 14.4785 7.85245 14.313 7.68697C14.1475 7.52149 13.9231 7.42853 13.6891 7.42853C13.455 7.42853 13.2306 7.52149 13.0651 7.68697L9.52942 11.2101V12.4706H10.7899L14.313 8.93486Z" stroke="black" stroke-width="1.1" stroke-linecap="round" stroke-linejoin="round"/>
</svg>
