<svg width="24" height="22" viewBox="0 0 24 22" fill="none" xmlns="http://www.w3.org/2000/svg">
<path d="M7.96191 22L5.97143 18.6476L2.2 17.8095L2.56667 13.9333L0 11L2.56667 8.06667L2.2 4.19048L5.97143 3.35238L7.96191 0L11.5238 1.51905L15.0857 0L17.0762 3.35238L20.8476 4.19048L20.481 8.06667L23.0476 11L20.481 13.9333L20.8476 17.8095L17.0762 18.6476L15.0857 22L11.5238 20.481L7.96191 22ZM8.17143 11L8.85238 13.1476L9.625 12.375H8.85238L10.4238 13.2H11L12.375 11.7333L15.0857 8.74762L14.8762 9.53333L11.5238 11L11 12.375L8.17143 11L8.85238 11.2776L9.97021 11.7333L8.17143 11ZM10.4238 14.719L16.3429 8.8L14.8762 7.28095L10.4238 11.7333L8.17143 9.53333L6.70476 11L10.4238 14.719Z" fill="#FFA86B"/>
<path d="M7.96191 22L5.97143 18.6476L2.2 17.8095L2.56667 13.9333L0 11L2.56667 8.06667L2.2 4.19048L5.97143 3.35238L7.96191 0L11.5238 1.51905L15.0857 0L17.0762 3.35238L20.8476 4.19048L20.481 8.06667L23.0476 11L20.481 13.9333L20.8476 17.8095L17.0762 18.6476L15.0857 22L11.5238 20.481L7.96191 22ZM8.85238 19.3286L11.5238 18.1762L14.2476 19.3286L15.7143 16.8143L18.5952 16.1333L18.3333 13.2L20.2714 11L18.3333 8.74762L18.5952 5.81429L15.7143 5.18571L14.1952 2.67143L11.5238 3.82381L8.8 2.67143L7.33333 5.18571L4.45238 5.81429L4.71429 8.74762L2.77619 11L4.71429 13.2L4.45238 16.1857L7.33333 16.8143L8.85238 19.3286ZM10.4238 14.719L16.3429 8.8L14.8762 7.28095L10.4238 11.7333L8.17143 9.53333L6.70476 11L10.4238 14.719Z" fill="#1E1E1E"/>
</svg>
