<svg width="14" height="14" viewBox="0 0 14 14" fill="none" xmlns="http://www.w3.org/2000/svg">
<path d="M4.83636 13.3636L3.62727 11.3273L1.33636 10.8182L1.55909 8.46364L0 6.68182L1.55909 4.9L1.33636 2.54545L3.62727 2.03636L4.83636 0L7 0.922727L9.16364 0L10.3727 2.03636L12.6636 2.54545L12.4409 4.9L14 6.68182L12.4409 8.46364L12.6636 10.8182L10.3727 11.3273L9.16364 13.3636L7 12.4409L4.83636 13.3636ZM4.96364 6.68182L5.37727 7.98636L5.84659 7.51705H5.37727L6.33182 8.01818H6.68182L7.51705 7.12727L9.16364 5.31364L9.03636 5.79091L7 6.68182L6.68182 7.51705L4.96364 6.68182L5.37727 6.85045L6.05628 7.12727L4.96364 6.68182ZM6.33182 8.94091L9.92727 5.34545L9.03636 4.42273L6.33182 7.12727L4.96364 5.79091L4.07273 6.68182L6.33182 8.94091Z" fill="#FFA86B"/>
<path d="M4.83636 13.3636L3.62727 11.3273L1.33636 10.8182L1.55909 8.46364L0 6.68182L1.55909 4.9L1.33636 2.54545L3.62727 2.03636L4.83636 0L7 0.922727L9.16364 0L10.3727 2.03636L12.6636 2.54545L12.4409 4.9L14 6.68182L12.4409 8.46364L12.6636 10.8182L10.3727 11.3273L9.16364 13.3636L7 12.4409L4.83636 13.3636ZM5.37727 11.7409L7 11.0409L8.65455 11.7409L9.54545 10.2136L11.2955 9.8L11.1364 8.01818L12.3136 6.68182L11.1364 5.31364L11.2955 3.53182L9.54545 3.15L8.62273 1.62273L7 2.32273L5.34545 1.62273L4.45455 3.15L2.70455 3.53182L2.86364 5.31364L1.68636 6.68182L2.86364 8.01818L2.70455 9.83182L4.45455 10.2136L5.37727 11.7409ZM6.33182 8.94091L9.92727 5.34545L9.03636 4.42273L6.33182 7.12727L4.96364 5.79091L4.07273 6.68182L6.33182 8.94091Z" fill="#1E1E1E"/>
</svg>
