<svg width="28" height="27" viewBox="0 0 28 27" fill="none" xmlns="http://www.w3.org/2000/svg">
<path d="M9.67273 26.7273L7.25454 22.6545L2.67273 21.6364L3.11818 16.9273L0 13.3636L3.11818 9.8L2.67273 5.09091L7.25454 4.07273L9.67273 0L14 1.84545L18.3273 0L20.7455 4.07273L25.3273 5.09091L24.8818 9.8L28 13.3636L24.8818 16.9273L25.3273 21.6364L20.7455 22.6545L18.3273 26.7273L14 24.8818L9.67273 26.7273ZM9.92727 13.3636L10.7545 15.9727L11.6932 15.0341H10.7545L12.6636 16.0364H13.3636L15.0341 14.2545L18.3273 10.6273L18.0727 11.5818L14 13.3636L13.3636 15.0341L9.92727 13.3636L10.7545 13.7009L12.1126 14.2545L9.92727 13.3636ZM12.6636 17.8818L19.8545 10.6909L18.0727 8.84545L12.6636 14.2545L9.92727 11.5818L8.14545 13.3636L12.6636 17.8818Z" fill="#FFA86B"/>
<path d="M9.67273 26.7273L7.25454 22.6545L2.67273 21.6364L3.11818 16.9273L0 13.3636L3.11818 9.8L2.67273 5.09091L7.25454 4.07273L9.67273 0L14 1.84545L18.3273 0L20.7455 4.07273L25.3273 5.09091L24.8818 9.8L28 13.3636L24.8818 16.9273L25.3273 21.6364L20.7455 22.6545L18.3273 26.7273L14 24.8818L9.67273 26.7273ZM10.7545 23.4818L14 22.0818L17.3091 23.4818L19.0909 20.4273L22.5909 19.6L22.2727 16.0364L24.6273 13.3636L22.2727 10.6273L22.5909 7.06364L19.0909 6.3L17.2455 3.24545L14 4.64545L10.6909 3.24545L8.90909 6.3L5.40909 7.06364L5.72727 10.6273L3.37273 13.3636L5.72727 16.0364L5.40909 19.6636L8.90909 20.4273L10.7545 23.4818ZM12.6636 17.8818L19.8545 10.6909L18.0727 8.84545L12.6636 14.2545L9.92727 11.5818L8.14545 13.3636L12.6636 17.8818Z" fill="#1E1E1E"/>
</svg>
