<svg width="44" height="44" viewBox="0 0 44 44" fill="none" xmlns="http://www.w3.org/2000/svg">
<g filter="url(#filter0_d_400_13677)">
<rect x="1" y="1" width="40" height="40" rx="10" fill="#FFF9CD"/>
<rect x="0.5" y="0.5" width="41" height="41" rx="10.5" stroke="#1E1E1E"/>
</g>
<path d="M24 17.1667C24.6236 17.6344 25.1035 18.2676 25.3852 18.9944C25.6668 19.7213 25.7389 20.5126 25.5933 21.2783M24.4458 23.4467C24.3065 23.5859 24.1576 23.7151 24 23.8333M26.25 14.6667C27.5875 15.7475 28.5129 17.2552 28.8712 18.937C29.2296 20.6189 28.9991 22.3728 28.2183 23.905M26.8217 25.8208C26.64 26.0013 26.4492 26.1724 26.25 26.3333M19.0575 14.7117L19.4167 14.25C19.4895 14.1085 19.6105 13.9978 19.7579 13.9377C19.9053 13.8777 20.0693 13.8724 20.2202 13.9227C20.3712 13.973 20.4991 14.0757 20.581 14.2121C20.6629 14.3486 20.6933 14.5098 20.6667 14.6667V16.3333M20.6667 19.6667V26.3333C20.6933 26.4902 20.6629 26.6514 20.581 26.7879C20.4991 26.9243 20.3712 27.027 20.2202 27.0773C20.0693 27.1276 19.9053 27.1223 19.7579 27.0623C19.6105 27.0022 19.4895 26.8915 19.4167 26.75L16.5 23H14.8333C14.6123 23 14.4004 22.9122 14.2441 22.7559C14.0878 22.5996 14 22.3877 14 22.1667V18.8333C14 18.6123 14.0878 18.4004 14.2441 18.2441C14.4004 18.0878 14.6123 18 14.8333 18H16.5L17.5783 16.6133M14 13L29 28" stroke="#1E1E1E" stroke-width="1.66667" stroke-linecap="round" stroke-linejoin="round"/>
<defs>
<filter id="filter0_d_400_13677" x="0" y="0" width="44" height="44" filterUnits="userSpaceOnUse" color-interpolation-filters="sRGB">
<feFlood flood-opacity="0" result="BackgroundImageFix"/>
<feColorMatrix in="SourceAlpha" type="matrix" values="0 0 0 0 0 0 0 0 0 0 0 0 0 0 0 0 0 0 127 0" result="hardAlpha"/>
<feOffset dx="2" dy="2"/>
<feComposite in2="hardAlpha" operator="out"/>
<feColorMatrix type="matrix" values="0 0 0 0 0.117647 0 0 0 0 0.117647 0 0 0 0 0.117647 0 0 0 1 0"/>
<feBlend mode="normal" in2="BackgroundImageFix" result="effect1_dropShadow_400_13677"/>
<feBlend mode="normal" in="SourceGraphic" in2="effect1_dropShadow_400_13677" result="shape"/>
</filter>
</defs>
</svg>
