<svg width="18" height="18" viewBox="0 0 18 18" fill="none" xmlns="http://www.w3.org/2000/svg">
<path d="M6.3 17.0625L4.75625 14.4625L1.83125 13.8125L2.11563 10.8062L0.125 8.53125L2.11563 6.25625L1.83125 3.25L4.75625 2.6L6.3 0L9.0625 1.17813L11.825 0L13.3687 2.6L16.2937 3.25L16.0094 6.25625L18 8.53125L16.0094 10.8062L16.2937 13.8125L13.3687 14.4625L11.825 17.0625L9.0625 15.8844L6.3 17.0625ZM6.4625 8.53125L6.99062 10.1969L7.58984 9.59766H6.99062L8.20937 10.2375H8.65625L9.72266 9.1L11.825 6.78438L11.6625 7.39375L9.0625 8.53125L8.65625 9.59766L6.4625 8.53125L6.99062 8.74656L7.85758 9.1L6.4625 8.53125ZM8.20937 11.4156L12.8 6.825L11.6625 5.64687L8.20937 9.1L6.4625 7.39375L5.325 8.53125L8.20937 11.4156Z" fill="#FFA86B"/>
<path d="M6.3 17.0625L4.75625 14.4625L1.83125 13.8125L2.11563 10.8062L0.125 8.53125L2.11563 6.25625L1.83125 3.25L4.75625 2.6L6.3 0L9.0625 1.17813L11.825 0L13.3687 2.6L16.2937 3.25L16.0094 6.25625L18 8.53125L16.0094 10.8062L16.2937 13.8125L13.3687 14.4625L11.825 17.0625L9.0625 15.8844L6.3 17.0625ZM6.99062 14.9906L9.0625 14.0969L11.175 14.9906L12.3125 13.0406L14.5469 12.5125L14.3438 10.2375L15.8469 8.53125L14.3438 6.78438L14.5469 4.50938L12.3125 4.02187L11.1344 2.07188L9.0625 2.96563L6.95 2.07188L5.8125 4.02187L3.57812 4.50938L3.78125 6.78438L2.27813 8.53125L3.78125 10.2375L3.57812 12.5531L5.8125 13.0406L6.99062 14.9906ZM8.20937 11.4156L12.8 6.825L11.6625 5.64687L8.20937 9.1L6.4625 7.39375L5.325 8.53125L8.20937 11.4156Z" fill="#1E1E1E"/>
</svg>
