<svg width="19" height="19" viewBox="0 0 19 19" fill="none" xmlns="http://www.w3.org/2000/svg">
<path d="M4 8.79993H7" stroke="#1E1E1E" stroke-width="1.125" stroke-linecap="round" stroke-linejoin="round"/>
<path d="M15.1248 9.55005H13.1733C11.8345 9.55005 10.75 10.5573 10.75 11.8C10.75 13.0428 11.8352 14.05 13.1725 14.05H15.1248C15.1878 14.05 15.2185 14.05 15.2448 14.0485C15.6498 14.0238 15.9722 13.7245 15.9985 13.3488C16 13.3248 16 13.2955 16 13.2378V10.3623C16 10.3045 16 10.2753 15.9985 10.2513C15.9715 9.87555 15.6498 9.5763 15.2448 9.55155C15.2193 9.55005 15.1878 9.55005 15.1248 9.55005Z" stroke="#1E1E1E" stroke-width="1.125"/>
<path d="M15.2237 9.55005C15.1652 8.14605 14.9777 7.28505 14.371 6.67905C13.4927 5.80005 12.0782 5.80005 9.25 5.80005H7C4.17175 5.80005 2.75725 5.80005 1.879 6.67905C1 7.5573 1 8.9718 1 11.8C1 14.6283 1 16.0428 1.879 16.921C2.75725 17.8 4.17175 17.8 7 17.8H9.25C12.0782 17.8 13.4927 17.8 14.371 16.921C14.9777 16.315 15.166 15.454 15.2237 14.05" stroke="#1E1E1E" stroke-width="1.125"/>
<path d="M12.9932 11.8H13.0013" stroke="#1E1E1E" stroke-width="1.5" stroke-linecap="round" stroke-linejoin="round"/>
<path d="M18 5.49998C18 7.98526 15.9853 9.99998 13.5 9.99998C11.0147 9.99998 9.00003 7.98526 9.00003 5.49998C9.00003 3.0147 11.0147 0.999983 13.5 0.999983C15.9853 0.999983 18 3.0147 18 5.49998Z" fill="#FFE72D" stroke="#1E1E1E"/>
<path d="M13.5966 7.38227C13.5514 7.38227 13.5159 7.37258 13.49 7.3532C13.4674 7.33059 13.4464 7.30799 13.427 7.28538L12.3854 6.12749C12.3564 6.09519 12.337 6.06451 12.3273 6.03544C12.3208 6.00637 12.3176 5.966 12.3176 5.91432V5.73991C12.3176 5.70761 12.3273 5.68016 12.3467 5.65755C12.3693 5.63494 12.3983 5.62364 12.4339 5.62364H12.6616C12.8651 5.62364 13.0217 5.5978 13.1315 5.54612C13.2413 5.49122 13.3156 5.41854 13.3544 5.32811C13.3964 5.23767 13.4174 5.13271 13.4174 5.0132C13.4174 4.90016 13.3964 4.79842 13.3544 4.70799C13.3156 4.61755 13.2446 4.54488 13.1412 4.48997C13.0379 4.43184 12.8925 4.40277 12.7052 4.40277H12.4C12.3677 4.40277 12.3402 4.39308 12.3176 4.3737C12.295 4.35109 12.2837 4.32202 12.2837 4.28649V4.10724C12.2837 4.07494 12.295 4.04749 12.3176 4.02488C12.3402 4.00227 12.3677 3.99097 12.4 3.99097H14.4008C14.4331 3.99097 14.4606 4.00227 14.4832 4.02488C14.5058 4.04749 14.5171 4.07494 14.5171 4.10724V4.28649C14.5171 4.32202 14.5058 4.35109 14.4832 4.3737C14.4606 4.39308 14.4331 4.40277 14.4008 4.40277H13.6305L13.6402 4.28649C13.8179 4.3414 13.9406 4.43991 14.0084 4.58202C14.0762 4.7209 14.1102 4.87755 14.1102 5.05196C14.1102 5.23929 14.0698 5.40885 13.989 5.56066C13.9083 5.71246 13.7856 5.83358 13.6208 5.92401C13.4593 6.01445 13.2591 6.06612 13.0201 6.07904L12.8505 6.09358L12.9038 5.81743L14.1489 7.2224C14.1747 7.25146 14.1877 7.27569 14.1877 7.29507C14.1877 7.32413 14.178 7.34674 14.1586 7.36289C14.1392 7.37581 14.115 7.38227 14.0859 7.38227H13.5966ZM12.4 5.18761C12.3644 5.18761 12.3354 5.17631 12.3128 5.1537C12.2934 5.13109 12.2837 5.10364 12.2837 5.07134V4.89208C12.2837 4.85656 12.295 4.8291 12.3176 4.80972C12.3402 4.78712 12.3677 4.77581 12.4 4.77581H14.4008C14.4331 4.77581 14.4606 4.78712 14.4832 4.80972C14.5058 4.8291 14.5171 4.85656 14.5171 4.89208L14.5123 5.07134C14.5123 5.10364 14.501 5.13109 14.4783 5.1537C14.459 5.17631 14.4315 5.18761 14.396 5.18761H12.4Z" fill="#1E1E1E"/>
</svg>
