<svg width="26" height="26" viewBox="0 0 26 26" fill="none" xmlns="http://www.w3.org/2000/svg">
<path d="M5.23535 12.2939H9.47065" stroke="#1E1E1E" stroke-width="1.58824" stroke-linecap="round" stroke-linejoin="round"/>
<path d="M20.9403 13.353H18.1852C16.2952 13.353 14.7642 14.775 14.7642 16.5295C14.7642 18.284 16.2963 19.706 18.1842 19.706H20.9403C21.0292 19.706 21.0726 19.706 21.1097 19.7039C21.6815 19.6689 22.1367 19.2464 22.1738 18.716C22.1759 18.6821 22.1759 18.6408 22.1759 18.5593V14.4997C22.1759 14.4182 22.1759 14.3769 22.1738 14.343C22.1357 13.8126 21.6815 13.3901 21.1097 13.3551C21.0737 13.353 21.0292 13.353 20.9403 13.353Z" stroke="#1E1E1E" stroke-width="1.58824"/>
<path d="M21.0806 13.3531C20.998 11.371 20.7333 10.1554 19.8767 9.2999C18.6368 8.05896 16.6399 8.05896 12.6471 8.05896H9.47059C5.47776 8.05896 3.48082 8.05896 2.24094 9.2999C1 10.5398 1 12.5367 1 16.5295C1 20.5224 1 22.5193 2.24094 23.7592C3.48082 25.0001 5.47776 25.0001 9.47059 25.0001H12.6471C16.6399 25.0001 18.6368 25.0001 19.8767 23.7592C20.7333 22.9037 20.9991 21.6881 21.0806 19.706" stroke="#1E1E1E" stroke-width="1.58824"/>
<path d="M17.9312 16.5294H17.9431" stroke="#1E1E1E" stroke-width="2.11765" stroke-linecap="round" stroke-linejoin="round"/>
<path d="M24.9999 7.63527C24.9999 11.1439 22.1556 13.9882 18.6469 13.9882C15.1383 13.9882 12.294 11.1439 12.294 7.63527C12.294 4.12663 15.1383 1.28232 18.6469 1.28232C22.1556 1.28232 24.9999 4.12663 24.9999 7.63527Z" fill="#FFE72D" stroke="#1E1E1E" stroke-width="1.41176"/>
<path d="M18.7837 10.2925C18.7199 10.2925 18.6697 10.2788 18.6332 10.2514C18.6013 10.2195 18.5717 10.1876 18.5443 10.1557L17.0738 8.52103C17.0328 8.47543 17.0054 8.43211 16.9917 8.39107C16.9826 8.35004 16.9781 8.29304 16.9781 8.22008V7.97386C16.9781 7.92826 16.9917 7.8895 17.0191 7.85758C17.051 7.82567 17.092 7.80971 17.1422 7.80971H17.4637C17.7509 7.80971 17.9721 7.77323 18.1271 7.70027C18.2821 7.62276 18.387 7.52016 18.4417 7.39249C18.501 7.26482 18.5306 7.11663 18.5306 6.94792C18.5306 6.78833 18.501 6.64469 18.4417 6.51702C18.387 6.38935 18.2867 6.28676 18.1408 6.20924C17.9949 6.12717 17.7897 6.08613 17.5252 6.08613H17.0943C17.0487 6.08613 17.01 6.07245 16.9781 6.04509C16.9461 6.01317 16.9302 5.97213 16.9302 5.92198V5.66891C16.9302 5.62331 16.9461 5.58456 16.9781 5.55264C17.01 5.52072 17.0487 5.50476 17.0943 5.50476H19.9191C19.9647 5.50476 20.0034 5.52072 20.0354 5.55264C20.0673 5.58456 20.0832 5.62331 20.0832 5.66891V5.92198C20.0832 5.97213 20.0673 6.01317 20.0354 6.04509C20.0034 6.07245 19.9647 6.08613 19.9191 6.08613H18.8316L18.8453 5.92198C19.0961 5.99949 19.2693 6.13856 19.3651 6.33919C19.4608 6.53526 19.5087 6.75641 19.5087 7.00263C19.5087 7.2671 19.4517 7.50648 19.3377 7.72079C19.2237 7.9351 19.0505 8.10609 18.8179 8.23376C18.5899 8.36144 18.3072 8.43439 17.9698 8.45263L17.7304 8.47315L17.8056 8.08329L19.5634 10.0668C19.5999 10.1078 19.6181 10.142 19.6181 10.1694C19.6181 10.2104 19.6045 10.2423 19.5771 10.2651C19.5497 10.2834 19.5155 10.2925 19.4745 10.2925H18.7837ZM17.0943 7.19414C17.0442 7.19414 17.0031 7.17818 16.9712 7.14627C16.9439 7.11435 16.9302 7.07559 16.9302 7.02999V6.77693C16.9302 6.72677 16.9461 6.68801 16.9781 6.66065C17.01 6.62874 17.0487 6.61278 17.0943 6.61278H19.9191C19.9647 6.61278 20.0034 6.62874 20.0354 6.66065C20.0673 6.68801 20.0832 6.72677 20.0832 6.77693L20.0764 7.02999C20.0764 7.07559 20.0604 7.11435 20.0285 7.14627C20.0012 7.17818 19.9624 7.19414 19.9122 7.19414H17.0943Z" fill="#1E1E1E"/>
</svg>
