<svg width="25" height="24" viewBox="0 0 25 24" fill="none" xmlns="http://www.w3.org/2000/svg">
<path d="M19.755 17.37H23.2V11.54H19.755C18.1451 11.54 16.84 12.8451 16.84 14.455C16.84 16.0649 18.1451 17.37 19.755 17.37Z" fill="white"/>
<path d="M23.2 17.37V18.4742C23.8098 18.4742 24.3042 17.9798 24.3042 17.37H23.2ZM23.2 11.54H24.3042C24.3042 10.9302 23.8098 10.4358 23.2 10.4358V11.54ZM7.23291 5.8412C6.71995 6.17096 6.57144 6.85412 6.9012 7.36709C7.23096 7.88005 7.91412 8.02856 8.42709 7.6988L7.23291 5.8412ZM15.25 2L16.1216 1.32211C15.7707 0.871006 15.1336 0.762165 14.6529 1.0712L15.25 2ZM18.0884 7.44789C18.4628 7.92925 19.1565 8.01597 19.6379 7.64158C20.1192 7.26719 20.206 6.57347 19.8316 6.09211L18.0884 7.44789ZM23.2 16.2658H19.755V18.4742H23.2V16.2658ZM19.755 12.6442H23.2V10.4358H19.755V12.6442ZM22.0958 11.54V17.37H24.3042V11.54H22.0958ZM17.9442 14.455C17.9442 13.4549 18.7549 12.6442 19.755 12.6442V10.4358C17.5353 10.4358 15.7358 12.2353 15.7358 14.455H17.9442ZM19.755 16.2658C18.7549 16.2658 17.9442 15.4551 17.9442 14.455H15.7358C15.7358 16.6747 17.5353 18.4742 19.755 18.4742V16.2658ZM8.42709 7.6988L15.8471 2.9288L14.6529 1.0712L7.23291 5.8412L8.42709 7.6988ZM14.3784 2.67789L18.0884 7.44789L19.8316 6.09211L16.1216 1.32211L14.3784 2.67789ZM3.06 7.87417H21.08V5.66583H3.06V7.87417ZM21.08 21.5658H3.06V23.7742H21.08V21.5658ZM3.10417 21.61V7.83H0.895833V21.61H3.10417ZM3.06 21.5658C3.08439 21.5658 3.10417 21.5856 3.10417 21.61H0.895833C0.895833 22.8052 1.86476 23.7742 3.06 23.7742V21.5658ZM21.0358 21.61C21.0358 21.5856 21.0556 21.5658 21.08 21.5658V23.7742C22.2752 23.7742 23.2442 22.8052 23.2442 21.61H21.0358ZM21.08 7.87417C21.0556 7.87417 21.0358 7.85439 21.0358 7.83H23.2442C23.2442 6.63477 22.2752 5.66583 21.08 5.66583V7.87417ZM3.06 5.66583C1.86476 5.66583 0.895833 6.63476 0.895833 7.83H3.10417C3.10417 7.85439 3.08439 7.87417 3.06 7.87417V5.66583ZM21.0358 18.165V21.61H23.2442V18.165H21.0358ZM21.0358 7.83V10.6125H23.2442V7.83H21.0358Z" fill="black"/>
</svg>
