<svg width="20" height="20" viewBox="0 0 20 20" fill="none" xmlns="http://www.w3.org/2000/svg">
<path d="M8 1.5H7.5V2V6V6.5H8H12H12.5V6V2V1.5H12H8ZM14 1.5H13.5V2V6V6.5H14H18H18.5V6V2V1.5H18H14ZM14 7.5H13.5V8V12V12.5H14H18H18.5V12V8V7.5H18H14ZM14 13.5H13.5V14V18V18.5H14H18H18.5V18V14V13.5H18H14ZM12 18.5H12.5V18V14V13.5H12H8H7.5V14V18V18.5H8H12ZM6 18.5H6.5V18V14V13.5H6H2H1.5V14V18V18.5H2H6ZM6 12.5H6.5V12V8V7.5H6H2H1.5V8V12V12.5H2H6ZM6 6.5H6.5V6V2V1.5H6H2H1.5V2V6V6.5H2H6ZM7.5 12V12.5H8H12H12.5V12V8V7.5H12H8H7.5V8V12ZM2 0.5H18C18.3978 0.5 18.7794 0.658035 19.0607 0.93934C19.342 1.22064 19.5 1.60218 19.5 2V18C19.5 18.3978 19.342 18.7794 19.0607 19.0607C18.7794 19.342 18.3978 19.5 18 19.5H2C1.1929 19.5 0.5 18.8206 0.5 18V2C0.5 1.60218 0.658035 1.22064 0.93934 0.93934C1.22064 0.658035 1.60218 0.5 2 0.5Z" fill="#D2D2D2" stroke="#1E1E1E"/>
</svg>
