<svg width="25" height="19" viewBox="0 0 25 19" fill="none" xmlns="http://www.w3.org/2000/svg">
<path fill-rule="evenodd" clip-rule="evenodd" d="M1 1.89036C1 1.65422 1.09381 1.42776 1.26078 1.26078C1.42776 1.09381 1.65422 1 1.89036 1H23.2591C23.4952 1 23.7217 1.09381 23.8887 1.26078C24.0556 1.42776 24.1494 1.65422 24.1494 1.89036C24.1494 2.1265 24.0556 2.35297 23.8887 2.51995C23.7217 2.68692 23.4952 2.78073 23.2591 2.78073H1.89036C1.65422 2.78073 1.42776 2.68692 1.26078 2.51995C1.09381 2.35297 1 2.1265 1 1.89036ZM1 6.63897C1 6.40283 1.09381 6.17636 1.26078 6.00939C1.42776 5.84241 1.65422 5.7486 1.89036 5.7486H23.2591C23.4952 5.7486 23.7217 5.84241 23.8887 6.00939C24.0556 6.17636 24.1494 6.40283 24.1494 6.63897C24.1494 6.87511 24.0556 7.10157 23.8887 7.26855C23.7217 7.43552 23.4952 7.52933 23.2591 7.52933H1.89036C1.65422 7.52933 1.42776 7.43552 1.26078 7.26855C1.09381 7.10157 1 6.87511 1 6.63897ZM22.1847 9.47982C23.4134 9.92263 24.1494 11.1323 24.1494 12.6175C24.1494 13.6835 23.5274 14.6475 22.8958 15.374C22.2405 16.1291 21.4332 16.7867 20.7946 17.258L20.7067 17.3233C20.2793 17.6403 19.795 18 19.1052 18C18.4155 18 17.93 17.6403 17.5026 17.3233L17.4147 17.258C16.776 16.7879 15.9688 16.1291 15.3135 15.374C14.6819 14.6463 14.0598 13.6835 14.0598 12.6175C14.0598 11.1323 14.7959 9.92263 16.0246 9.47982C17.0159 9.1213 18.1258 9.33736 19.1052 10.0259C20.0846 9.33736 21.1946 9.12249 22.1859 9.47982M21.5816 11.1537C21.1816 11.0112 20.4895 11.0706 19.7297 11.8197C19.5631 11.9835 19.3389 12.0754 19.1052 12.0754C18.8716 12.0754 18.6473 11.9835 18.4808 11.8197C17.721 11.0718 17.0289 11.0101 16.6288 11.1549C16.2478 11.2914 15.8406 11.72 15.8406 12.6175C15.8406 13.0175 16.0994 13.5636 16.6573 14.2059C17.1916 14.8196 17.8801 15.3895 18.4701 15.824C18.7467 16.027 18.8821 16.1243 18.9901 16.1825C19.0613 16.2193 19.0803 16.2193 19.1029 16.2193H19.1076C19.1314 16.2193 19.1504 16.2193 19.2204 16.1825C19.3284 16.1243 19.4638 16.0281 19.7404 15.824C20.3304 15.3895 21.0201 14.8196 21.5531 14.2059C22.1111 13.5636 22.3699 13.0187 22.3699 12.6175C22.3699 11.72 21.9627 11.2902 21.5816 11.1537ZM1 11.3876C1 11.1514 1.09381 10.925 1.26078 10.758C1.42776 10.591 1.65422 10.4972 1.89036 10.4972H10.2004C10.4366 10.4972 10.663 10.591 10.83 10.758C10.997 10.925 11.0908 11.1514 11.0908 11.3876C11.0908 11.6237 10.997 11.8502 10.83 12.0172C10.663 12.1841 10.4366 12.2779 10.2004 12.2779H1.89036C1.65422 12.2779 1.42776 12.1841 1.26078 12.0172C1.09381 11.8502 1 11.6237 1 11.3876ZM1 16.1362C1 15.9 1.09381 15.6736 1.26078 15.5066C1.42776 15.3396 1.65422 15.2458 1.89036 15.2458H10.2004C10.4366 15.2458 10.663 15.3396 10.83 15.5066C10.997 15.6736 11.0908 15.9 11.0908 16.1362C11.0908 16.3723 10.997 16.5988 10.83 16.7658C10.663 16.9327 10.4366 17.0265 10.2004 17.0265H1.89036C1.65422 17.0265 1.42776 16.9327 1.26078 16.7658C1.09381 16.5988 1 16.3723 1 16.1362Z" fill="#D2D2D2"/>
<path d="M22.1847 9.47982C23.4134 9.92263 24.1494 11.1323 24.1494 12.6175C24.1494 13.6835 23.5274 14.6475 22.8958 15.374C22.2405 16.129 21.4332 16.7867 20.7946 17.258L20.7067 17.3233C20.2793 17.6403 19.795 18 19.1052 18C18.4155 18 17.93 17.6403 17.5026 17.3233L17.4147 17.258C16.776 16.7879 15.9688 16.129 15.3135 15.374C14.6819 14.6463 14.0598 13.6835 14.0598 12.6175C14.0598 11.1323 14.7959 9.92263 16.0246 9.47982C17.0159 9.1213 18.1258 9.33736 19.1052 10.0259C20.0846 9.33736 21.1946 9.12249 22.1859 9.47982M1 1.89036C1 1.65422 1.09381 1.42776 1.26078 1.26078C1.42776 1.09381 1.65422 1 1.89036 1H23.2591C23.4952 1 23.7217 1.09381 23.8887 1.26078C24.0556 1.42776 24.1494 1.65422 24.1494 1.89036C24.1494 2.1265 24.0556 2.35297 23.8887 2.51995C23.7217 2.68692 23.4952 2.78073 23.2591 2.78073H1.89036C1.65422 2.78073 1.42776 2.68692 1.26078 2.51995C1.09381 2.35297 1 2.1265 1 1.89036ZM1 6.63897C1 6.40283 1.09381 6.17636 1.26078 6.00939C1.42776 5.84241 1.65422 5.7486 1.89036 5.7486H23.2591C23.4952 5.7486 23.7217 5.84241 23.8887 6.00939C24.0556 6.17636 24.1494 6.40283 24.1494 6.63897C24.1494 6.87511 24.0556 7.10157 23.8887 7.26855C23.7217 7.43552 23.4952 7.52933 23.2591 7.52933H1.89036C1.65422 7.52933 1.42776 7.43552 1.26078 7.26855C1.09381 7.10157 1 6.87511 1 6.63897ZM21.5816 11.1537C21.1816 11.0112 20.4895 11.0706 19.7297 11.8197C19.5631 11.9835 19.3389 12.0754 19.1052 12.0754C18.8716 12.0754 18.6473 11.9835 18.4808 11.8197C17.721 11.0718 17.0289 11.0101 16.6288 11.1549C16.2478 11.2914 15.8406 11.72 15.8406 12.6175C15.8406 13.0175 16.0994 13.5636 16.6573 14.2059C17.1916 14.8196 17.8801 15.3895 18.4701 15.824C18.7467 16.027 18.8821 16.1243 18.9901 16.1825C19.0613 16.2193 19.0803 16.2193 19.1029 16.2193H19.1076C19.1314 16.2193 19.1504 16.2193 19.2204 16.1825C19.3284 16.1243 19.4638 16.0281 19.7404 15.824C20.3304 15.3895 21.0201 14.8196 21.5531 14.2059C22.1111 13.5636 22.3699 13.0187 22.3699 12.6175C22.3699 11.72 21.9627 11.2902 21.5816 11.1537ZM1 11.3876C1 11.1514 1.09381 10.925 1.26078 10.758C1.42776 10.591 1.65422 10.4972 1.89036 10.4972H10.2004C10.4366 10.4972 10.663 10.591 10.83 10.758C10.997 10.925 11.0908 11.1514 11.0908 11.3876C11.0908 11.6237 10.997 11.8502 10.83 12.0172C10.663 12.1841 10.4366 12.2779 10.2004 12.2779H1.89036C1.65422 12.2779 1.42776 12.1841 1.26078 12.0172C1.09381 11.8502 1 11.6237 1 11.3876ZM1 16.1362C1 15.9 1.09381 15.6736 1.26078 15.5066C1.42776 15.3396 1.65422 15.2458 1.89036 15.2458H10.2004C10.4366 15.2458 10.663 15.3396 10.83 15.5066C10.997 15.6736 11.0908 15.9 11.0908 16.1362C11.0908 16.3723 10.997 16.5988 10.83 16.7658C10.663 16.9327 10.4366 17.0265 10.2004 17.0265H1.89036C1.65422 17.0265 1.42776 16.9327 1.26078 16.7658C1.09381 16.5988 1 16.3723 1 16.1362Z" stroke="#D2D2D2" stroke-width="0.6"/>
</svg>
